<svg xmlns="http://www.w3.org/2000/svg" viewBox="0 0 126.01 126.5"><defs><style>.cls-1{fill:#f0f1f8;}.cls-2{fill:#fff;}.cls-3{fill:none;}.cls-4{fill:#2b265e;}.cls-5{fill:#6f36ff;}.cls-6{fill:#e7e6e6;}.cls-7{fill:#8c94c9;}.cls-8{fill:#97d3f1;}</style></defs><title>2Ресурс 1</title><g id="Слой_2" data-name="Слой 2"><g id="Layer_1" data-name="Layer 1"><g id="Group_20190" data-name="Group 20190"><circle id="Ellipse_1261" data-name="Ellipse 1261" class="cls-1" cx="63.29" cy="62.72" r="62.72"/><path id="Path_26142" data-name="Path 26142" class="cls-2" d="M74.44,86.58C70.81,88.11,67.18,87.8,63,87.8H18.83c-2.41,0-5.57.56-7.8-.41a22.2,22.2,0,0,1-6.26-4.76c-3.63-4-2.25-11.08-2.25-16.06V21.7C2.52,15.88-1,1.5,8,1.5H64.48c2.32,0,7-1.06,8.58.85C75.88,5.66,75,10.49,75,14.65V58.49c0,5.48-.81,11.68.44,17a5.47,5.47,0,0,1,3.66-.06c.22.06,3.07,1.47,3.14,1a13.25,13.25,0,0,1-5.48,8.9A13.61,13.61,0,0,1,74.44,86.58Z"/><path id="Path_26143" data-name="Path 26143" class="cls-3" d="M27.66,77.41c-.5,0-.47.65-.47.69a19,19,0,0,1-2,4.35,10.85,10.85,0,0,1-1.66,2.44c1.41.16,32.16,0,46.1.06a10.42,10.42,0,0,0,5.82-1.41,8.83,8.83,0,0,0,4.13-5.85H77.41C63.36,77.65,32.86,77.22,27.66,77.41Z"/><path id="Path_26144" data-name="Path 26144" class="cls-3" d="M88.53,113.29a17,17,0,0,0,11.71,9h.22A17.3,17.3,0,0,1,88.53,113.29Z"/><path id="Path_26145" data-name="Path 26145" class="cls-4" d="M115.08,87.08a20.8,20.8,0,0,0-17.47-2.16c-1.16.35-2,1-1.69,2.41.25,1.16,1.28,1.63,2.75,1.29.63-.16,1.26-.31,2.35-.6-.06,0-.09.07-.15.1a16.11,16.11,0,0,1,3.1-.28,17.41,17.41,0,1,1,.26,34.81H104a17.92,17.92,0,0,1-3.51-.34h-.22a17,17,0,0,1-11.71-9,17.42,17.42,0,0,1-.91-14.06c0-.06,0-.15.06-.21.57-1.6.25-2.63-.87-3.07s-2.1.12-2.7,1.66A20.83,20.83,0,0,0,83,108.88a21.28,21.28,0,1,0,32.1-21.8Z"/><path id="Path_26146" data-name="Path 26146" class="cls-4" d="M81.3,73.9c-1.66,0-3.32,0-5.14,0V28.18c0-2.19-.47-3.07-1.75-3.1s-1.91.88-1.91,3.1V73.9H25.72c-2.32,0-2.63.34-2.91,2.66-.79,6.23-6,9.61-12,8.27-4-.91-6.54-4.33-7-9-.12-1.28-.63-2.16-2-2.1S.1,74.87.14,76.09A13.1,13.1,0,0,0,10.82,88.64a40.42,40.42,0,0,0,6.51.07H69c.88,0,1.79,0,2.66-.07,6.42-.43,11.9-6.13,11.93-12.36C83.61,74.55,83.05,73.93,81.3,73.9Zm-5.83,9.61a10.22,10.22,0,0,1-5.82,1.41c-13.93,0-44.68.09-46.09-.06a11,11,0,0,0,1.66-2.45,19.62,19.62,0,0,0,2-4.35s0-.66.47-.69c5.2-.18,35.7.25,49.76.25h2.19a8.75,8.75,0,0,1-4.14,5.89Z"/><path id="Path_26147" data-name="Path 26147" class="cls-4" d="M.26,58.84c0,2.34.47,3.19,1.79,3.22s2-.84,2-3.22V7c0-2.47.41-3,2.5-3h63.1c2.16,0,2.85.72,2.88,2.94s0,4.39,0,6.58c0,1.28.5,2.16,1.91,2.13s1.75-.94,1.75-2.13V6.83c0-4.23-2.32-6.49-6.64-6.49H38.05c-10.58,0-21.2,0-31.78.07a6.93,6.93,0,0,0-3.75,1.1C.73,2.66.26,4.63.26,6.73Q.3,32.8.26,58.84Z"/><path id="Path_26148" data-name="Path 26148" class="cls-4" d="M59.6,55.36a3.16,3.16,0,0,0,1.66-.19c.56-.4,1.28-1.19,1.22-1.72S61.64,52.2,61,51.73c-.25-.22-.81-.06-1.22-.06H17.76c-.4,0-1-.13-1.22.09-.56.44-1.31,1.06-1.34,1.63a2.53,2.53,0,0,0,1.16,1.75,3.4,3.4,0,0,0,1.81.22Z"/><path id="Path_26149" data-name="Path 26149" class="cls-4" d="M17.61,61.5c-1.66,0-2.6.75-2.48,1.94.16,1.47,1.16,1.78,2.48,1.78,3.91,0,7.83,0,11.74,0H41.09c1.32.07,2.32-.37,2.41-1.81.1-1.13-.84-1.88-2.38-1.88C33.23,61.5,25.44,61.5,17.61,61.5Z"/><path id="Path_26150" data-name="Path 26150" class="cls-4" d="M1.86,69.92a1.78,1.78,0,0,0,1.9-1.65,1,1,0,0,0,0-.17,1.81,1.81,0,0,0-1.72-1.9H1.89A1.74,1.74,0,0,0,0,67.78,2.25,2.25,0,0,0,0,68a1.71,1.71,0,0,0,1.5,1.88A2,2,0,0,0,1.86,69.92Z"/><path id="Path_26151" data-name="Path 26151" class="cls-4" d="M74.22,18.57a1.72,1.72,0,0,0-1.9,1.51,1.61,1.61,0,0,0,0,.31,1.87,1.87,0,0,0,3.73.12,1.73,1.73,0,0,0-1.48-1.93A1.9,1.9,0,0,0,74.22,18.57Z"/><path id="Path_26152" data-name="Path 26152" class="cls-4" d="M92.88,91c-.09-1.15-.69-1.91-1.84-1.91A1.87,1.87,0,0,0,91,92.81h0a1.92,1.92,0,0,0,1.32-.44l0,0A2.75,2.75,0,0,0,92.88,91Z"/><path id="Path_26153" data-name="Path 26153" class="cls-2" d="M96.7,108.06c1.41,1.28,2.88,2.57,4.39,3.76a1.86,1.86,0,0,0,2.61,0c.06-.07.12-.13.17-.2q4.38-5.4,8.65-10.9a1.8,1.8,0,0,0-.11-2.54,1.66,1.66,0,0,0-.3-.22,1.94,1.94,0,0,0-2.69.28,9,9,0,0,0-.79,1c-2.13,2.7-4.29,5.39-6.51,8.2-1-.84-1.88-1.6-2.79-2.31A2,2,0,0,0,96.58,108l.12.1Z"/><path id="Path_26154" data-name="Path 26154" class="cls-2" d="M88.53,113.29a17.3,17.3,0,0,0,11.93,9h.31a19.35,19.35,0,0,1,.07-34.2,17.37,17.37,0,0,0-8.55,4.2l0,0a17.67,17.67,0,0,0-4.64,6.86A18.51,18.51,0,0,0,88.53,113.29Z"/><path id="Path_26155" data-name="Path 26155" class="cls-5" d="M100.81,122.27h-.32a18,18,0,0,0,3.51.35,17.41,17.41,0,0,0,0-34.82,16.94,16.94,0,0,0-3.1.28,19.32,19.32,0,0,0-.09,34.19Zm-1.44-17.19c.87.72,1.75,1.48,2.78,2.32,2.26-2.82,4.39-5.51,6.52-8.2.25-.31.5-.66.78-1a1.93,1.93,0,0,1,2.69-.28,1.78,1.78,0,0,1,.63,2.45,1.66,1.66,0,0,1-.22.3q-4.27,5.51-8.64,10.9a1.86,1.86,0,0,1-2.6.39,1.54,1.54,0,0,1-.19-.17c-1.5-1.19-3-2.47-4.38-3.75a2,2,0,0,1,2.55-3l.08.06Z"/><path id="Path_26156" data-name="Path 26156" d="M88.53,113.29a18.17,18.17,0,0,1-.91-14.09A17.49,17.49,0,0,0,88.53,113.29Z"/><path id="Path_26157" data-name="Path 26157" d="M92.29,92.31l0,0Z"/><path id="Path_26158" data-name="Path 26158" class="cls-4" d="M61.63,24.24v-.82a1.66,1.66,0,0,0-1.19-1.78,1.61,1.61,0,0,0-1.94.81,9.86,9.86,0,0,1-3.44,2.94A47.53,47.53,0,0,1,46.76,29c-8.55,2.88-17.32,4.76-27.06,6.74-1,.22-2,.4-3.1.62l-1.84.38,0,.34c0,.19,0,.35-.06.5s-.05.5-.06.75v6.08c0,1.6.31,1.88,1.94,1.88H59.91c1.41,0,1.72-.35,1.75-1.79v-.4Zm-2.38,1.1v18.4a25.48,25.48,0,0,1-4.94,0V28.59a23.23,23.23,0,0,0,4.94-3.26Zm-7.61,4.44v14H46.89c-.19-2-.19-10.34,0-12.25Zm-7.39,2.57V43.81H39.37V33.72l.81-.22c1.35-.37,2.73-.78,4.08-1.15ZM36.8,34.41v9.4H32C32,43,32,36.32,32,35.54Zm-7.48,1.72v7.7H24.56c-.09-.81-.09-6,0-6.7Zm-7.39,1.6v6.05H17V39.39c0-.19,0-.41,0-.66v-.06Z"/><path id="Path_26159" data-name="Path 26159" class="cls-4" d="M32,23.45c1-.87,2-1.75,3-2.63,0-.37,0-.75,0-1.12A2.46,2.46,0,0,1,37,17.38a2.28,2.28,0,0,1,2.57,1,2,2,0,0,0,2,1.22,8,8,0,0,1,1.19.22c1.54-1.5,1.91-1.6,3.88-.94,1.1-.84,2.23-1.72,3.48-2.69-.12-1.38,0-2.79,1.6-3.32a2.48,2.48,0,0,1,3,.94,15.07,15.07,0,0,1,1.5-.41,1.75,1.75,0,0,0,1.6-1.34,2.36,2.36,0,0,1,2.47-1.5,2.64,2.64,0,0,1,2.22,1.72,2.71,2.71,0,0,1-.84,2.82,2.66,2.66,0,0,1-2.91.16,6.67,6.67,0,0,1-.91-.76c-.47.13-.94.32-1.44.41a1.74,1.74,0,0,0-1.5,1.25,2.37,2.37,0,0,1-3,1.48l-.09,0c-.25-.08-.5-.16-.75-.22l-3.45,2.7c0,2.19-.53,3.13-1.87,3.41s-2.38-.31-3.26-2.13c-.78-.16-1.6-.31-2.47-.47a2.83,2.83,0,0,1-3.82,1.21A1.18,1.18,0,0,1,36,22c-1,.85-1.91,1.66-2.88,2.48v1.23a2.34,2.34,0,0,1-2.29,2.38A2.43,2.43,0,0,1,28.14,26c-.07-.31,0-.65-.07-.93a2.06,2.06,0,0,0-.37-.29c-.85-.5-1.69-1-2.63-1.53a3.39,3.39,0,0,1-3.13.34c-.88.79-1.66,1.54-2.48,2.23A2.21,2.21,0,0,0,18.52,28a2.3,2.3,0,0,1-2,2.56,2.37,2.37,0,0,1-.65,0,2.52,2.52,0,0,1,.3-5c.1,0,.2,0,.3,0a9.41,9.41,0,0,1,.91.25c1-.93,2-1.94,3-2.88a1.24,1.24,0,0,0,.32-1.28,2.39,2.39,0,0,1,.91-2.25,2.48,2.48,0,0,1,3.51.34,2.43,2.43,0,0,1,.37.59,9,9,0,0,1,.41,1.7c.93.53,1.91,1.12,2.84,1.66A3.61,3.61,0,0,1,32,23.45Z"/><circle id="Ellipse_1262" data-name="Ellipse 1262" class="cls-6" cx="11.25" cy="116.48" r="1.78"/><circle id="Ellipse_1263" data-name="Ellipse 1263" class="cls-7" cx="45.57" cy="102.05" r="1.78"/><circle id="Ellipse_1264" data-name="Ellipse 1264" class="cls-8" cx="62.76" cy="110.63" r="1.78"/><circle id="Ellipse_1265" data-name="Ellipse 1265" class="cls-7" cx="105.47" cy="51.82" r="1.78"/><circle id="Ellipse_1266" data-name="Ellipse 1266" class="cls-8" cx="94.04" cy="35.41" r="1.78"/><circle id="Ellipse_1267" data-name="Ellipse 1267" class="cls-6" cx="118.06" cy="14.5" r="1.78"/></g></g></g></svg>