<svg xmlns="http://www.w3.org/2000/svg" viewBox="0 0 175.7 120.92"><defs><style>.cls-1{fill:#f0f1f8;}.cls-2{fill:#fff;}.cls-3{fill:#6f36ff;}.cls-4{fill:#2b265e;}.cls-5{fill:#e7e6e6;}.cls-6{fill:#8c94c9;}.cls-7{fill:#97d3f1;}.cls-8{fill:#29275c;}</style></defs><title>Ресурс 1</title><g id="Слой_2" data-name="Слой 2"><g id="Layer_1" data-name="Layer 1"><g id="Group_18749" data-name="Group 18749"><g id="Group_19884" data-name="Group 19884"><circle id="Ellipse_1280" data-name="Ellipse 1280" class="cls-1" cx="87.84" cy="60.46" r="60.46"/><path id="Path_26197" data-name="Path 26197" class="cls-2" d="M104.19,7.52H69.3c-6.88,0-16.18-1.66-22.3,1.6-2.12,1.11-1,3.77-1,5.91v93.78h83.64V31.06S109.08,7.52,104.19,7.52Z"/><path id="Path_26198" data-name="Path 26198" class="cls-3" d="M106.58,48.53A22.91,22.91,0,0,0,75.85,38.27,23.73,23.73,0,0,0,72,40.68c-6.1,7.67-8.09,16.09-4.44,25.3s10.9,14.16,20.86,15.36c-.3.12-.39.21-.51.21-1.09,0-2.2.06-3.29.06-.22,0-.43,0-.64.06a22.91,22.91,0,0,0,22.58-33.14Z"/><path id="Path_26199" data-name="Path 26199" class="cls-2" d="M88.53,81.47c.12,0,.24-.09.51-.21-10-1.21-17.2-6.11-20.85-15.37s-1.66-17.6,4.43-25.29A23,23,0,0,0,66.16,69,22.73,22.73,0,0,0,77.87,79.9a1.15,1.15,0,0,1,.63.27,23.16,23.16,0,0,0,6,1.39,3.36,3.36,0,0,1,.63-.06C86.32,81.5,87.44,81.47,88.53,81.47Z"/><path id="Path_26200" data-name="Path 26200" class="cls-4" d="M20.13,73.29A1.73,1.73,0,0,0,21.06,71a.61.61,0,0,0,0-.12A1.78,1.78,0,0,0,18.66,70l-.1,0a1.66,1.66,0,0,0-.95,2.14,1.38,1.38,0,0,0,.14.27,1.63,1.63,0,0,0,2.08,1A1.68,1.68,0,0,0,20.13,73.29Z"/><circle id="Ellipse_1281" data-name="Ellipse 1281" class="cls-5" cx="156.2" cy="77.12" r="1.72"/><circle id="Ellipse_1282" data-name="Ellipse 1282" class="cls-6" cx="173.98" cy="56.32" r="1.72"/><circle id="Ellipse_1283" data-name="Ellipse 1283" class="cls-6" cx="159.64" cy="30.73" r="1.72"/><circle id="Ellipse_1284" data-name="Ellipse 1284" class="cls-5" cx="21.07" cy="29.28" r="1.72"/><circle id="Ellipse_1285" data-name="Ellipse 1285" class="cls-7" cx="1.72" cy="56.32" r="1.72"/><path id="Path_26201" data-name="Path 26201" class="cls-2" d="M40.2,69.69l.7.28A1.94,1.94,0,0,0,40.2,69.69Z"/><g id="Group_19881" data-name="Group 19881"><path id="Path_26202" data-name="Path 26202" class="cls-4" d="M43.89,107.06V101.9c0-.75-.12-1.51-.12-2.26V42A10.53,10.53,0,0,1,44,39.75a1.83,1.83,0,0,1,1.84-1.66,2,2,0,0,1,1.87,1.84,12.69,12.69,0,0,1,0,1.51v65.14c1.21.3,78.39.39,80.41.09V32.93c-.51,0-1-.06-1.57-.06h-15.7a8.31,8.31,0,0,1-1.93-.18,4.1,4.1,0,0,1-3.29-3.5,12,12,0,0,1-.24-2.54c0-5.28,0-10.56,0-15.84V9.09c-.67,0-1.15-.09-1.66-.09H51.79c-2.11,0-3.35.75-3.89,2.41A5.63,5.63,0,0,0,47.72,13V26.17a7.74,7.74,0,0,1-.06,1.36A1.88,1.88,0,0,1,46,29a1.72,1.72,0,0,1-2-1.27,7,7,0,0,1-.24-1.93c0-4.53.15-9.06.15-13.58a7.42,7.42,0,0,1,7.19-7.13c4.13-.06,8.24,0,12.37,0l42.86,0a3.47,3.47,0,0,1,2.78,1.18c7.27,7.79,14.61,15.54,21.91,23.3A3.35,3.35,0,0,1,132,32c0,4.38,0,8.76,0,13.13V107a7.74,7.74,0,0,0,1.18.12h7.7a8,8,0,0,1,1.2,0,1.85,1.85,0,0,1,1.57,1.6,1.72,1.72,0,0,1-1.2,1.87,4.63,4.63,0,0,1-1.48.18H32.57a3.76,3.76,0,0,1-1.06-.06,1.9,1.9,0,0,1-1.54-2,1.82,1.82,0,0,1,1.66-1.69,6.26,6.26,0,0,1,1.06,0H42.2C42.65,107.06,43.16,107.06,43.89,107.06Z"/><path id="Path_26203" data-name="Path 26203" class="cls-8" d="M109,58.8a22.07,22.07,0,0,0-6.76-16,21.51,21.51,0,0,0-14.1-6.34A22.32,22.32,0,0,0,64.23,56.41a23,23,0,0,0,2,12,3,3,0,0,1,.3,1.57,1.83,1.83,0,0,1-1.63,1.54,1.8,1.8,0,0,1-1.93-1.18,49.63,49.63,0,0,1-2-5.68A26.14,26.14,0,0,1,80.08,33.38,25.33,25.33,0,0,1,103.74,39a24.9,24.9,0,0,1,8.72,15.42,25.69,25.69,0,0,1-6.22,21.85,25.45,25.45,0,0,1-14.76,8.49,26.06,26.06,0,0,1-17.77-2.84,2.15,2.15,0,0,1-1.42-2A1.82,1.82,0,0,1,74,78.05a1.86,1.86,0,0,1,.74.12,10.22,10.22,0,0,1,.94.46,23.14,23.14,0,0,0,10.56,2.65,22.24,22.24,0,0,0,22.28-18.23C108.78,61.6,108.87,60.19,109,58.8Z"/><path id="Path_26204" data-name="Path 26204" class="cls-8" d="M47.87,33.84A1.92,1.92,0,0,1,44,34,2.11,2.11,0,0,1,45.85,32,2,2,0,0,1,47.87,33.84Z"/><path id="Path_26205" data-name="Path 26205" class="cls-8" d="M70.42,75.19a1.88,1.88,0,0,1-1.82,1.93h0a2,2,0,0,1-1.9-1.78,1.89,1.89,0,1,1,3.77-.15Z"/><path id="Path_26206" data-name="Path 26206" class="cls-8" d="M149.38,108.81a2,2,0,0,1-2,1.9,1.93,1.93,0,0,1,0-3.86A2.06,2.06,0,0,1,149.38,108.81Z"/></g><g id="Group_19882" data-name="Group 19882"><path id="Path_26207" data-name="Path 26207" class="cls-2" d="M93.45,57.89a3.75,3.75,0,0,1-4.5-.06,4,4,0,0,1-4.65,0,3.8,3.8,0,0,1-4.56,0c-.18.09-.33.21-.51.3a3.47,3.47,0,0,1-5.13-2.92v-.19c0-1.9-.21-1.3,1-2.84,1-1.23,2-2.47,3-3.74a1.71,1.71,0,0,1,1.51-.72c4.65,0,9.27,0,13.92,0a2.22,2.22,0,0,1,2,1c1,1.39,2.08,2.74,3.14,4.07a2,2,0,0,1,.45,1.33c0,.36,0,.76,0,1.12a3.53,3.53,0,0,1-3.71,3.32,4.78,4.78,0,0,1-1.24-.36A3.44,3.44,0,0,1,93.45,57.89ZM86.6,49.83H80.08a.87.87,0,0,0-.82.4c-.87,1.11-1.72,2.26-2.63,3.32a2.23,2.23,0,0,0-.42,2.05,1.06,1.06,0,0,0,1,.93,1.49,1.49,0,0,0,1.57-.66,1,1,0,0,1,1.36-.47,1.06,1.06,0,0,1,.45.44c.06.06.09.18.15.21a2,2,0,0,0,.63.42,1.73,1.73,0,0,0,2-.63.88.88,0,0,1,1.17-.45,1.76,1.76,0,0,1,.67.51,1.67,1.67,0,0,0,2.32.4,1.64,1.64,0,0,0,.39-.4,1.06,1.06,0,0,1,1.43-.45,1,1,0,0,1,.44.45,1.7,1.7,0,0,0,2.37.39,1.64,1.64,0,0,0,.41-.42,1.06,1.06,0,0,1,1.44-.39,1.08,1.08,0,0,1,.4.42c.06.06.09.15.15.21.37.57.94.51,1.48.42a1,1,0,0,0,.88-1c0-.27,0-.57,0-.84a1.22,1.22,0,0,0-.3-.91c-.91-1.14-1.81-2.32-2.72-3.5a1,1,0,0,0-.87-.42c-2.21,0-4.35,0-6.52,0Z"/><path id="Path_26208" data-name="Path 26208" class="cls-2" d="M90.76,67.61h4.17a4.36,4.36,0,0,0,0-.51V60.19a1,1,0,0,1,2,0v.39c0,2.6,0,5.19,0,7.75a1.24,1.24,0,0,1-1.11,1.36,1,1,0,0,1-.25,0q-9.11,0-18.2,0a1.19,1.19,0,0,1-1.33-1,1.6,1.6,0,0,1,0-.31c0-2.62,0-5.22,0-7.84v-.33a1,1,0,0,1,.94-.91,1.05,1.05,0,0,1,1.09.84,4.53,4.53,0,0,1,0,.52v7h4.16c0-.18,0-.36,0-.54,0-1.82,0-3.63,0-5.44a1.19,1.19,0,0,1,1.06-1.32,1,1,0,0,1,.24,0c1.9,0,3.83,0,5.74,0,1,0,1.3.34,1.3,1.31v5.22A2.11,2.11,0,0,1,90.76,67.61Zm-6.22-5.22v5.19h4.14V62.39Z"/><path id="Path_26209" data-name="Path 26209" class="cls-2" d="M86.6,55.06H78.45a1.85,1.85,0,0,1-.7-.13,1,1,0,0,1-.54-1.08,1,1,0,0,1,.85-.82h17a1,1,0,0,1,.9,1,1,1,0,0,1-.9,1,2.18,2.18,0,0,1-.51,0c-2.66,0-5.32,0-8,0Z"/></g><g id="Group_19883" data-name="Group 19883"><path id="Path_26210" data-name="Path 26210" class="cls-4" d="M70.54,92.94l-.48-.09c-.25,0-.52-.1-.76-.13-.63-.09-1.33-.21-2-.27a.53.53,0,0,1-.51-.39c-.34-.72-.7-1.42-1-2.11l-.36-.76a.74.74,0,0,0-.7-.51.88.88,0,0,0-.69.57l-.45.94c-.34.63-.64,1.3-1,2a.42.42,0,0,1-.39.27c-.94.12-1.93.27-3.2.49a1,1,0,0,0-.67.39c-.27.42.1.75.25.9l.09.09a2.68,2.68,0,0,0,.3.28l.51.51c.45.45.94.91,1.42,1.36a.47.47,0,0,1,.15.51c-.12.57-.21,1.15-.3,1.69l0,.24c-.06.33-.12.67-.15,1l-.06.45v0a.65.65,0,0,0,.27.6.68.68,0,0,0,.63.06,1,1,0,0,0,.34-.15l.06,0,.69-.36c.6-.33,1.27-.66,1.87-1a.56.56,0,0,1,.67,0c.6.36,1.26.67,1.87,1,.24.12.48.24.69.36l.09,0A1.09,1.09,0,0,0,68,101a1,1,0,0,0,.34.06.59.59,0,0,0,.61-.58.66.66,0,0,0,0-.14c0-.09,0-.18,0-.24v-.06c-.06-.27-.09-.57-.15-.85-.13-.69-.22-1.42-.37-2.11a.71.71,0,0,1,.28-.75c.75-.7,1.44-1.39,2.23-2.21.3-.33.33-.57.27-.75A.92.92,0,0,0,70.54,92.94Zm-3.77,3.77c.12.57.21,1.18.3,1.75l.06.36-.24-.12c-.55-.27-1.09-.57-1.64-.87a.87.87,0,0,0-1,0l-1.36.72-.48.24a.07.07,0,0,0-.06,0c0-.06,0-.15,0-.21l.06-.42c.09-.46.15-.94.27-1.42a1,1,0,0,0-.33-1.06c-.39-.36-.79-.75-1.18-1.14l-.33-.34,1-.18c.34-.06.67-.09,1-.15a.92.92,0,0,0,.82-.6c.21-.48.48-1,.72-1.48l.21-.42v0l.09.18c.09.15.15.3.24.45.21.43.43.85.6,1.27a1.09,1.09,0,0,0,.91.67c.6.09,1.18.15,1.81.27l.24,0-.27.24c-.42.42-.88.84-1.33,1.27A1.1,1.1,0,0,0,66.77,96.71Z"/><path id="Path_26211" data-name="Path 26211" class="cls-4" d="M85.48,93.12,85,93l-.76-.12c-.63-.1-1.32-.22-2-.28a.53.53,0,0,1-.51-.39c-.33-.72-.69-1.42-1-2.11l-.36-.76a.72.72,0,0,0-.66-.51h0a.89.89,0,0,0-.7.57l-.48,1c-.33.63-.63,1.3-1,1.93a.41.41,0,0,1-.39.27c-.93.13-1.93.28-3.2.49a1,1,0,0,0-.66.39c-.27.42.09.75.24.9l.06.06.3.3.51.52c.46.45.94.93,1.42,1.35a.46.46,0,0,1,.15.52c-.12.54-.21,1.12-.3,1.66l-.06.27c-.06.33-.12.66-.15,1l-.06.45v0a.66.66,0,0,0,.27.6.69.69,0,0,0,.64.06,1,1,0,0,0,.33-.15l.09,0,.69-.36c.61-.33,1.27-.66,1.88-1a.54.54,0,0,1,.66,0c.6.36,1.27.66,1.87,1l.7.36.09,0a1,1,0,0,0,.33.15,1.28,1.28,0,0,0,.33.06.59.59,0,0,0,.61-.58.61.61,0,0,0,0-.14c0-.09,0-.18,0-.24v-.06c-.06-.27-.09-.57-.15-.85-.12-.69-.21-1.42-.39-2.14a.69.69,0,0,1,.27-.75c.75-.7,1.51-1.45,2.23-2.21.3-.33.34-.57.28-.75S85.93,93.21,85.48,93.12Zm-3.8,3.74c.12.57.21,1.18.3,1.75L82,99l-.24-.12c-.54-.27-1.09-.57-1.63-.87a.9.9,0,0,0-1,0l-1.37.72-.45.24-.06,0c0-.06,0-.15,0-.21l.06-.42c.09-.46.15-.94.27-1.42a1,1,0,0,0-.33-1.06c-.39-.36-.79-.75-1.18-1.14l-.3-.3h0l1.06-.19c.36-.06.69-.09,1-.15a.91.91,0,0,0,.82-.6c.21-.51.48-1,.72-1.48l.21-.42v0l.1.18c.06.15.15.3.21.46.21.42.42.84.6,1.26a1.06,1.06,0,0,0,.9.67c.6.09,1.18.15,1.81.27l.25,0-.28.27c-.42.42-.84.85-1.3,1.24a1,1,0,0,0-.26.93Z"/><path id="Path_26212" data-name="Path 26212" class="cls-4" d="M100.27,92.94l-.48-.09c-.24,0-.52-.1-.76-.13-.63-.09-1.33-.21-2-.27a.53.53,0,0,1-.51-.39c-.34-.72-.7-1.42-1-2.11l-.36-.73a.7.7,0,0,0-.7-.51.89.89,0,0,0-.69.57l-.45.94c-.33.63-.67,1.3-1,2a.42.42,0,0,1-.39.27c-.94.12-1.93.28-3.2.49a.91.91,0,0,0-.66.39c-.28.42.09.75.24.9l.09.1q.14.15.3.3l.51.51c.45.45.94.9,1.42,1.36a.45.45,0,0,1,.15.51c-.12.57-.21,1.15-.3,1.69l0,.24c-.06.33-.12.66-.15,1l-.06.45v0a.66.66,0,0,0,.27.6.69.69,0,0,0,.64.06,1.09,1.09,0,0,0,.33-.15l.06,0,.69-.36c.64-.33,1.27-.66,1.87-1a.56.56,0,0,1,.67,0l1.87,1,.72.36.09,0a1,1,0,0,0,.34.15,1.14,1.14,0,0,0,.33.06.59.59,0,0,0,.61-.58.61.61,0,0,0,0-.14c0-.09,0-.18,0-.24v-.06c-.06-.27-.09-.57-.15-.85-.12-.69-.21-1.42-.37-2.11a.67.67,0,0,1,.28-.75c.75-.7,1.45-1.39,2.23-2.21.3-.33.33-.57.27-.75A.93.93,0,0,0,100.27,92.94ZM96.5,96.71c.12.57.21,1.18.3,1.75l.06.39-.24-.12c-.55-.27-1.09-.57-1.63-.87a.89.89,0,0,0-1,0l-1.36.72-.48.24a.09.09,0,0,0-.06,0c0-.06,0-.15,0-.21l.06-.42c.09-.46.15-.94.24-1.42a1,1,0,0,0-.33-1.06c-.39-.36-.79-.75-1.18-1.14l-.33-.34,1-.18c.34-.06.67-.09,1-.15a.92.92,0,0,0,.82-.6c.21-.48.48-1,.72-1.48l.21-.42v0l.09.18c.09.15.15.3.24.45.21.43.43.82.6,1.24a1.09,1.09,0,0,0,.91.67c.6.09,1.18.15,1.81.27l.24,0-.27.24c-.42.42-.88.84-1.33,1.27a1.13,1.13,0,0,0-.17,1Z"/><path id="Path_26213" data-name="Path 26213" class="cls-4" d="M115.51,93.44a.8.8,0,0,0-.63-.48l-.49-.09-.75-.12c-.63-.09-1.33-.21-2-.27a.57.57,0,0,1-.52-.4c-.33-.72-.69-1.41-1-2.11l-.36-.72a.73.73,0,0,0-.7-.52.87.87,0,0,0-.69.58l-.45.93c-.34.64-.64,1.3-1,2a.44.44,0,0,1-.39.27c-.94.12-1.93.27-3.2.48a1,1,0,0,0-.67.39c-.27.43.09.76.24.91l.1.09.27.27.51.51c.45.46.94.94,1.45,1.39a.47.47,0,0,1,.15.52c-.12.57-.21,1.14-.3,1.69l0,.27c-.06.33-.12.66-.15,1l-.06.45v0a.67.67,0,0,0,.27.6.72.72,0,0,0,.64.06,1.09,1.09,0,0,0,.33-.15l.06,0,.69-.36c.64-.33,1.27-.67,1.87-1a.56.56,0,0,1,.67,0l1.87,1,.72.36.09,0a1.09,1.09,0,0,0,.33.15,1.86,1.86,0,0,0,.34.06.6.6,0,0,0,.61-.59.57.57,0,0,0,0-.13c0-.09,0-.18,0-.24v-.06c-.06-.28-.09-.58-.15-.85-.13-.69-.22-1.42-.37-2.11a.72.72,0,0,1,.28-.76c.75-.69,1.45-1.39,2.23-2.2A.91.91,0,0,0,115.51,93.44Zm-4.44,3.26c.13.58.22,1.18.3,1.76l.06.39-.21-.12c-.54-.28-1.08-.58-1.63-.88a.9.9,0,0,0-1,0l-1.36.73-.48.24a.06.06,0,0,0-.06,0c0-.06,0-.15,0-.21l.06-.43c.09-.45.15-.93.24-1.42a1,1,0,0,0-.33-1.05c-.4-.36-.79-.76-1.18-1.15l-.33-.33,1-.18c.33-.06.67-.09,1-.15a.91.91,0,0,0,.81-.6c.21-.49.49-1,.73-1.48l.21-.43v0l.09.18a4,4,0,0,0,.24.46c.21.42.42.84.6,1.27a1.06,1.06,0,0,0,.91.66c.6.09,1.17.15,1.81.27l.24,0-.24.24c-.43.43-.88.85-1.33,1.27a1.07,1.07,0,0,0-.23.94Z"/></g></g></g></g></g></svg>