<svg xmlns="http://www.w3.org/2000/svg" viewBox="0 0 132.78 126.59"><defs><style>.cls-1{fill:#f0f1f8;}.cls-2{fill:none;}.cls-3{fill:#2b265e;}.cls-4{fill:#e7e6e6;}.cls-5{fill:#8c94c9;}.cls-6{fill:#97d3f1;}.cls-7{fill:#fff;}.cls-8{fill:#13ce66;}.cls-9{fill:#6f36ff;}</style></defs><title>3Ресурс 1</title><g id="Слой_2" data-name="Слой 2"><g id="Layer_1" data-name="Layer 1"><g id="Group_18747" data-name="Group 18747"><g id="Group_19872" data-name="Group 19872"><circle id="Ellipse_1268" data-name="Ellipse 1268" class="cls-1" cx="69.49" cy="63.29" r="63.29"/><path id="Path_26160" data-name="Path 26160" class="cls-2" d="M33.53,78.12c-.51,0-.48.66-.48.7a18.68,18.68,0,0,1-2,4.39,10.79,10.79,0,0,1-1.67,2.46c1.42.16,32.45,0,46.51.06a10.53,10.53,0,0,0,5.88-1.42A8.91,8.91,0,0,0,86,78.4H83.74C69.55,78.37,38.77,77.93,33.53,78.12Z"/><path id="Path_26161" data-name="Path 26161" class="cls-2" d="M95,114.33a17.17,17.17,0,0,0,11.82,9.07H107A17.46,17.46,0,0,1,95,114.33Z"/><path id="Path_26162" data-name="Path 26162" class="cls-3" d="M87.12,42.56A1.79,1.79,0,0,0,89,40.9a1,1,0,0,0,0-.17,1.83,1.83,0,0,0-1.74-1.92h-.16a1.76,1.76,0,0,0-1.9,1.6,1.22,1.22,0,0,0,0,.27,1.72,1.72,0,0,0,1.53,1.89A1.29,1.29,0,0,0,87.12,42.56Z"/><circle id="Ellipse_1269" data-name="Ellipse 1269" class="cls-4" cx="1.8" cy="94.23" r="1.8"/><circle id="Ellipse_1270" data-name="Ellipse 1270" class="cls-5" cx="51.6" cy="102.98" r="1.8"/><circle id="Ellipse_1271" data-name="Ellipse 1271" class="cls-5" cx="49.8" cy="75.65" r="1.8"/><circle id="Ellipse_1272" data-name="Ellipse 1272" class="cls-4" cx="124.76" cy="14.63" r="1.8"/><circle id="Ellipse_1273" data-name="Ellipse 1273" class="cls-6" cx="74.67" cy="60.8" r="1.8"/><g id="Group_19871" data-name="Group 19871"><path id="Path_26163" data-name="Path 26163" class="cls-7" d="M91.26,118.18c.13.07.29,0,.63,0-9.48-6.29-14.31-14.89-13.3-26.1S85.83,73.47,95.91,68.8a25.94,25.94,0,0,0-14.6,42.43,2.2,2.2,0,0,1,.54.6,26.16,26.16,0,0,0,5.4,4.49,2.76,2.76,0,0,1,.66.29C89,117.14,90.16,117.65,91.26,118.18Z"/><path id="Path_26164" data-name="Path 26164" class="cls-8" d="M126.87,94.26a26,26,0,0,0-25.94-25.94,24.15,24.15,0,0,0-5,.5C85.83,73.5,79.57,81,78.59,92.15s3.86,19.84,13.3,26.1c-.35,0-.51,0-.63,0-1.14-.53-2.25-1.07-3.35-1.61a3.06,3.06,0,0,0-.67-.28,25.93,25.93,0,0,0,39.63-22.06Z"/><path id="Path_26165" data-name="Path 26165" d="M35,3.32A29.48,29.48,0,0,0,10.37,31.06,29,29,0,0,0,13.12,45a3.8,3.8,0,0,0,.6,1,1.86,1.86,0,0,0,2,.51,1.8,1.8,0,0,0,1.14-1.9,6,6,0,0,0-.41-1.26,24.63,24.63,0,0,1-2-15c2-10.68,8.28-17.53,18.62-20.79.72-.22,1.51-.31,2.27-.47l-.22.09a27.38,27.38,0,0,1,5-.5,25.94,25.94,0,1,1,.33,51.88h-.33a25.58,25.58,0,0,1-13.68-3.91,1.75,1.75,0,0,0-2.3.82c-.57,1-.16,2,1.2,2.78a29.43,29.43,0,0,0,37-6.64,28.64,28.64,0,0,0,6.35-25.34A29.29,29.29,0,0,0,35,3.32Z"/><path id="Path_26166" data-name="Path 26166" d="M128.45,83.93a19.18,19.18,0,0,0-1.23-2.88,1.9,1.9,0,0,0-2.46-.75,1.79,1.79,0,0,0-1,2.24,14.32,14.32,0,0,0,.63,1.52A25.73,25.73,0,1,1,75.11,94.23c0-1,0-2,0-3a11.87,11.87,0,0,1,.29-1.77,25.56,25.56,0,0,1,26.83-20.95,23.28,23.28,0,0,1,8.91,2.12c1,.44,1.83,1,2.81,1.39a1.82,1.82,0,0,0,2.48-.71,1.87,1.87,0,0,0,.21-1.16,2.05,2.05,0,0,0-1.3-1.67,29.57,29.57,0,1,0-10.75,55.05,27.83,27.83,0,0,0,17.57-8.91C130.26,105.73,132.31,95.4,128.45,83.93Z"/><path id="Path_26167" data-name="Path 26167" d="M54.89,102.42c-.44-.23-.92-.38-1.39-.57A41.59,41.59,0,0,1,29.74,78.31a5.18,5.18,0,0,0-.45-1,1.65,1.65,0,0,0-1.77-.82A1.87,1.87,0,0,0,26,77.77a2.11,2.11,0,0,0,.19,1.7,45.17,45.17,0,0,0,13.74,18.8,44.38,44.38,0,0,0,12.61,7.24c.47.16.95.31,1.23.38a2,2,0,0,0,2-1.46A1.72,1.72,0,0,0,54.89,102.42Z"/><path id="Path_26168" data-name="Path 26168" d="M82.92,23.67a4.84,4.84,0,0,0,1.07.47A41.79,41.79,0,0,1,96.76,32.2a5.41,5.41,0,0,0,.95.7,1.83,1.83,0,0,0,2.18-.41,1.74,1.74,0,0,0,.19-2.18,5.52,5.52,0,0,0-.89-1,45.87,45.87,0,0,0-13.9-8.72c-.41-.16-.85-.26-1.1-.35a2,2,0,0,0-1.9,1.17A1.83,1.83,0,0,0,82.92,23.67Z"/><path id="Path_26169" data-name="Path 26169" d="M104,40.26a4,4,0,0,0,.53,1.52c.67,1.32,1.39,2.62,2.06,3.94.37.79.66,1.68,1,2.47a1.85,1.85,0,0,0,2.44,1l.06,0a1.81,1.81,0,0,0,1-2.35v0a38.43,38.43,0,0,0-3.64-7.46,1.73,1.73,0,0,0-1.58-.92A1.71,1.71,0,0,0,104,39.93.92.92,0,0,0,104,40.26Z"/><path id="Path_26170" data-name="Path 26170" d="M102,37.54a2,2,0,0,0,2-1.8,1.88,1.88,0,0,0-3.76-.24v.14A2,2,0,0,0,102,37.54Z"/><path id="Path_26171" data-name="Path 26171" d="M19.4,49.23a1.92,1.92,0,0,0-1.77,2A2,2,0,0,0,19.5,53a2,2,0,0,0,1.86-2,1.63,1.63,0,0,0-.25-.86c-.19-.19-.35-.38-.54-.6A1.55,1.55,0,0,0,19.4,49.23Z"/><path id="Path_26172" data-name="Path 26172" d="M121.09,77.55a1.92,1.92,0,1,0-1.86-2A2.16,2.16,0,0,0,121.09,77.55Z"/><path id="Path_26173" data-name="Path 26173" class="cls-7" d="M30.53,56.56c.12.07.28,0,.63,0-9.48-6.29-14.32-14.89-13.3-26.1S25.09,11.85,35.18,7.18a25.94,25.94,0,0,0-14.6,42.43,2.16,2.16,0,0,1,.53.6,26.43,26.43,0,0,0,5.4,4.49,2.83,2.83,0,0,1,.67.29C28.28,55.49,29.42,56,30.53,56.56Z"/><path id="Path_26174" data-name="Path 26174" class="cls-9" d="M66.14,32.61A26,26,0,0,0,40.2,6.67a24.25,24.25,0,0,0-5,.5C25.09,11.85,18.83,19.34,17.85,30.49s3.86,19.85,13.3,26.1c-.34,0-.5,0-.63,0L27.17,55a2.73,2.73,0,0,0-.66-.28A25.92,25.92,0,0,0,66.13,32.61Z"/><path id="Path_26175" data-name="Path 26175" class="cls-7" d="M20.57,49.58c.16.19.35.41.54.6A1.94,1.94,0,0,0,20.57,49.58Z"/></g><path id="Path_26176" data-name="Path 26176" class="cls-7" d="M44.53,31.51c-.67-.35-1.36-.6-2.06-.89a4.7,4.7,0,0,0-.63-.22c-.35-.13-.67-.29-1-.42V24.45a11.2,11.2,0,0,1,1.8.51c.73.32,1.36.79,2.09,1.17a2.54,2.54,0,0,0,.6.22,1.57,1.57,0,0,0,1.64-.7,1.44,1.44,0,0,0-.14-2l-.11-.09a7.33,7.33,0,0,0-2.09-1.39c-1.17-.47-2.43-.75-3.89-1.2v-.27c0-.38,0-.76,0-1.14a1.23,1.23,0,0,0-1.23-1.23h0a1.21,1.21,0,0,0-1.17,1.25h0c-.06.54-.06,1-.09,1.55-.79.19-1.42.28-2.06.47A6.12,6.12,0,0,0,32.8,24a5.6,5.6,0,0,0,.12,6.64,4.88,4.88,0,0,0,1.71,1.45c.66.35,1.36.6,2,.89a4.83,4.83,0,0,0,.64.22c.35.13.66.28.94.41v5.53a10.47,10.47,0,0,1-1.8-.5c-.72-.32-1.35-.79-2.08-1.17a2.54,2.54,0,0,0-.6-.22,1.53,1.53,0,0,0-1.64.7,1.42,1.42,0,0,0,.14,2,.31.31,0,0,0,.11.09,6.9,6.9,0,0,0,2.08,1.39c1.17.48,2.44.76,3.89,1.2V43c0,.38,0,.75,0,1.13a1.23,1.23,0,0,0,1.23,1.24h0a1.2,1.2,0,0,0,1.17-1.25v0c.07-.53.07-1,.1-1.54.79-.2,1.42-.29,2-.48a6.18,6.18,0,0,0,3.45-2.43A5.6,5.6,0,0,0,46.23,33,5.26,5.26,0,0,0,44.53,31.51Zm-.85,5c0,1.3-1.08,2.31-2.82,2.46V34.48h0a3.52,3.52,0,0,1,1.32.25,2.1,2.1,0,0,1,1.45,1.8Zm-8.19-9.45c0-1.3,1.08-2.31,2.81-2.46v4.52h0a3.84,3.84,0,0,1-1.33-.26,2.14,2.14,0,0,1-1.45-1.8Z"/><path id="Path_26177" data-name="Path 26177" class="cls-7" d="M97.31,90.47h7.11a1.46,1.46,0,0,1,1.23.51,1.31,1.31,0,0,1,.22,1.45,1.33,1.33,0,0,1-1.3.89H96.51v1.1c.19,0,.38,0,.57,0h7.14a2.94,2.94,0,0,1,1,.19,1.38,1.38,0,0,1,.76,1.58,1.49,1.49,0,0,1-1.42,1.11H97.3a7.63,7.63,0,0,0,7.59,4.23,6.88,6.88,0,0,0,2.5-.7,2.57,2.57,0,0,1,.82-.28,1.36,1.36,0,0,1,1.52,1,1.45,1.45,0,0,1-.76,1.74,11,11,0,0,1-3.45,1.07,10.29,10.29,0,0,1-5.91-.88,10.6,10.6,0,0,1-5.34-5.66c-.07-.15-.13-.31-.19-.47H93c-.48,0-.92,0-1.39,0A1.52,1.52,0,0,1,90.07,96a1.41,1.41,0,0,1,1.26-1.55h.07a8.78,8.78,0,0,1,1.45,0h.67V93.34H91.37A1.46,1.46,0,0,1,90.07,92a1.39,1.39,0,0,1,1.26-1.45c.76,0,1.52,0,2.28,0h.44a3.89,3.89,0,0,1,.19-.41,10.55,10.55,0,0,1,13.67-6c.35.14.69.29,1,.46a1.45,1.45,0,0,1,.7,1.9,1.48,1.48,0,0,1-1.9.73c-.47-.19-1-.41-1.45-.57a7.68,7.68,0,0,0-8.19,2.5A5.92,5.92,0,0,0,97.31,90.47Z"/></g></g></g></g></svg>