<svg xmlns="http://www.w3.org/2000/svg"
    xmlns:xlink="http://www.w3.org/1999/xlink" width="20px" height="17px">
    <path fill-rule="evenodd" fill="rgb(132, 92, 255)" d="M19.231,-0.000 L6.923,-0.000 C6.499,-0.000 6.154,0.346 6.154,0.772 C6.154,0.772 6.154,6.182 6.154,7.727 C6.154,9.273 4.615,9.273 4.615,9.273 L0.769,9.273 C0.345,9.273 -0.000,9.619 -0.000,10.045 L-0.000,16.227 C-0.000,16.652 0.345,16.999 0.769,16.999 L19.231,16.999 C19.655,16.999 20.000,16.652 20.000,16.227 L20.000,0.772 C20.000,0.346 19.655,-0.000 19.231,-0.000 ZM16.923,9.273 C16.923,10.382 15.895,12.363 13.846,12.363 L11.088,12.363 L12.467,13.749 C12.768,14.051 12.768,14.539 12.467,14.841 C12.317,14.992 12.120,15.067 11.923,15.067 C11.726,15.067 11.529,14.992 11.379,14.841 L8.687,12.137 C8.386,11.835 8.386,11.346 8.687,11.044 L11.379,8.340 C11.680,8.038 12.166,8.038 12.467,8.340 C12.768,8.642 12.768,9.130 12.467,9.432 L11.088,10.818 L13.846,10.818 C14.921,10.818 15.385,9.645 15.385,9.273 L15.385,7.727 C15.385,7.300 15.728,6.954 16.154,6.954 C16.579,6.954 16.923,7.300 16.923,7.727 L16.923,9.273 Z"/>
</svg>