<?xml version="1.0" encoding="utf-8"?>
<!-- Generator: Adobe Illustrator 22.0.1, SVG Export Plug-In . SVG Version: 6.00 Build 0)  -->
<svg version="1.1" id="Ñëîé_1" xmlns="http://www.w3.org/2000/svg" xmlns:xlink="http://www.w3.org/1999/xlink" x="0px" y="0px"
	 viewBox="0 0 1014.8 760.7" style="enable-background:new 0 0 1014.8 760.7;" xml:space="preserve">
<style type="text/css">
	.st0{fill:#ECEAF8;}
	.st1{fill:url(#SVGID_1_);}
	.st2{fill:#F1F0FA;}
	.st3{fill:#DAD6F1;}
	.st4{fill:#FFFFFF;}
	.st5{fill:#E2DFF4;}
	.st6{fill:#C2BAE8;}
	.st7{fill:url(#SVGID_2_);}
	.st8{fill:#8374D1;}
	.st9{fill:#9285D6;}
	.st10{fill:url(#SVGID_3_);}
	.st11{fill:url(#SVGID_4_);}
	.st12{fill:url(#SVGID_5_);}
	.st13{fill:url(#SVGID_6_);}
	.st14{fill:#E0DCF3;}
	.st15{fill:url(#SVGID_7_);}
	.st16{fill:#EBE8F7;}
	.st17{fill:url(#SVGID_8_);}
	.st18{fill:#DCD7F2;}
	.st19{fill:url(#SVGID_9_);}
	.st20{fill:url(#SVGID_10_);}
	.st21{fill:url(#SVGID_11_);}
	.st22{fill:url(#SVGID_12_);}
	.st23{fill:#8A7BD3;}
	.st24{fill:url(#SVGID_13_);}
	.st25{fill:url(#SVGID_14_);}
	.st26{fill:url(#SVGID_15_);}
	.st27{fill:url(#SVGID_16_);}
	.st28{fill:#9E92DB;}
	.st29{fill:url(#SVGID_17_);}
	.st30{fill:url(#SVGID_18_);}
	.st31{fill:url(#SVGID_19_);}
	.st32{opacity:0.5;fill:#FFFFFF;}
	.st33{fill:url(#SVGID_20_);}
	.st34{fill:url(#SVGID_21_);}
	.st35{fill:url(#SVGID_22_);}
	.st36{fill:url(#SVGID_23_);}
	.st37{fill:url(#SVGID_24_);}
	.st38{fill:url(#SVGID_25_);}
	.st39{fill:url(#SVGID_26_);}
	.st40{fill:url(#SVGID_27_);}
</style>
<path class="st0" d="M1017.8,518.6C1017.8,518.6,1017.8,518.6,1017.8,518.6c0-0.1,0-0.2-0.1-0.3c0,0,0-0.1,0-0.1c0,0,0-0.1-0.1-0.1
	c0,0,0-0.1-0.1-0.1c0,0-0.1-0.1-0.1-0.1c0,0-0.1-0.1-0.1-0.1c0,0-0.1-0.1-0.2-0.1c0,0-0.1-0.1-0.1-0.1c-0.1,0-0.1-0.1-0.2-0.1
	c0,0-0.1,0-0.1-0.1c-0.1,0-0.2-0.1-0.3-0.1c0,0-0.1,0-0.1-0.1c-0.2-0.1-0.3-0.1-0.5-0.2c-2.3-0.6-4.7-1.3-7.6-1.4
	c-1.2,0-2.5,0-3.9,0.3c-0.6,0.1-1.2,0.2-1.8,0.4c-0.3,0.1-0.6,0.2-0.9,0.3c-1.3,0.4-2.6,0.9-4,1.5c-1.1,0.5-2.2,1-3.4,1.7
	c-2,1.1-4.2,2.5-6.5,4.2c-15.1,10.9-20.1,23.1-27.3,28.2c0,0,0,0,0,0c-0.3,0.2-0.6,0.5-0.9,0.7c-0.1,0-0.1,0.1-0.2,0.1
	c-0.3,0.2-0.5,0.4-0.8,0.6c0,0-0.1,0.1-0.1,0.1c-0.5,0.4-0.9,0.9-1.3,1.3c0,0-0.1,0.1-0.1,0.1c-0.2,0.2-0.3,0.4-0.5,0.6
	c0,0,0,0.1-0.1,0.1c-0.3,0.4-0.6,0.9-0.8,1.4c0,0,0,0.1,0,0.1c-0.1,0.2-0.2,0.5-0.3,0.7c0,0,0,0.1,0,0.1c-0.1,0.3-0.2,0.5-0.2,0.8
	c0,0,0,0,0,0c-0.1,0.3-0.1,0.5-0.2,0.8c0,0.1,0,0.1,0,0.2c0,0.3-0.1,0.6-0.1,0.8c0,0.1,0,0.1,0,0.2c0,0.3-0.1,0.6-0.1,0.9
	c0,0.1,0,0.1,0,0.2c0,0.3-0.1,0.5-0.1,0.8c0,0.1,0,0.3,0,0.4c0,0.1,0,0.2,0,0.2c-0.1,1.1-0.2,2.3-0.3,3.7c-0.2,1.7-0.4,3.6-0.7,5.8
	c-1,6.9,4.3,13.3,2.4,18.4c-2,5.1-24.8,71.3-25.5,79.2c-0.6,6.9-8.5,25.6-10.7,30.5h-6.3c0.8-8.7,5.5-61.6,7.3-70.4
	c1.9-9.5,2.7-23.9,4-26.6c1.3-2.6,15.9-9.1,16.4-14c0.2-1.8,0.5-3.6,0.2-5.4c0.2-2.9,0.4-8.7-12.2-13.2c-5-1.8-8.4-2.6-11.3-2.9
	c0-1.1-0.1-2-0.1-2.7c-0.5-9.7-2.6-11.6-2.4-14.7s14.1-9.2,16.6-14.6c2.5-5.4-0.6-8.1-0.2-9.7c0.4-1.6,4-16.2-3.4-20.6
	c0,0-10.5-7.7-18.5-7.1c-2.1,0.2-4.1-0.3-6.1-0.9V458c0-4.4-0.6-8.6-1.7-12.6c0.2-2.4,0.4-4.6,0.6-6.6c0.5-4.8,2.9-10,5.7-14.6
	c8,2.1,16.2,3.8,21.5-0.6c3.4-2.8-2.4-19.2-6.2-20c-3.8-0.7-7.8,3.3-16.9,5.1c-8.1,1.6-16.9,11.8-18.7,13.9
	c-8.4-7.6-19.6-12.2-31.8-12.2l-227.5,0.4l60.2,305.7c-10.2,19.6,4.1,43.1,26.2,43.1h165c1.3,0,2.5-0.1,3.8-0.3
	c0.7,0.2,1.4,0.3,2.1,0.3h3.2h45h0.4c3.8,0,6.8-3.1,6.8-6.9l0-0.1c0-0.1,0-0.2,0-0.3l-8.3-51.1l0,0l-8.7,0c0,0,0,0,0,0h-0.9
	c1.9-4.2,8.4-18.3,11.4-29.8c3.6-13.6,21.1-74.6,28.2-82.6c7-8,27.4-17.6,35.9-26.3c8.5-8.7,9.9-27.6,11.7-33.4
	c0.2-0.6,0.4-1.2,0.8-1.7c1.4-2.5,4-4.8,5.4-6.6c0,0,0,0,0,0c0.1-0.1,0.2-0.2,0.2-0.3c0,0,0,0,0.1-0.1c0.1-0.1,0.1-0.2,0.2-0.3
	c0,0,0-0.1,0.1-0.1c0.1-0.1,0.1-0.2,0.1-0.3c0,0,0-0.1,0-0.1c0-0.1,0.1-0.2,0.1-0.3c0,0,0,0,0-0.1c0.1-0.2,0.1-0.4,0.2-0.6
	c0,0,0,0,0-0.1C1017.8,518.8,1017.8,518.7,1017.8,518.6z M916.4,634.9c0.8-4.6,1.2-19.7,1.4-34.7c2.1,3.3,3.1,7.1,2.6,11.9
	c-0.8,7.5-4,34.3-6.7,56.8C914.6,654.1,915.7,639.1,916.4,634.9z M905.6,517c7.3,10.6,7.5,20.1,6.7,27.6c-0.8,7.9,2.2,18.1,2.3,22.6
	c0,0.3,0,0.8,0,1.5c-3.2,0.1-6.2,0.8-10.8,1.5v-51.2C904.3,518.2,904.9,517.6,905.6,517z M890.1,421.5c-0.6,0.5-1.1,1-1.7,1.5
	c-0.1-0.1-0.3-0.2-0.4-0.4C888.6,422.1,889.3,421.7,890.1,421.5z M907.7,701.2h-1c-0.3-1.7-1.4-8.4-3-18.2v-36.5
	c0.4,5.4,0.9,10.8,1.6,16.1c2.2,15.8,2.7,26.2,2.8,32.5C907.9,697.9,907.8,700,907.7,701.2z M909.1,657.3c-3.4-13.9-4.6-54.1-4-65.9
	c1-0.2,2-0.4,3.1-0.6c2.1,1.5,4,3,5.7,4.6c-0.2,6.1-0.3,11.6-0.3,14.4c0,4.4-1.6,30.3-3.2,53.6C909.9,661.2,909.5,659.1,909.1,657.3
	z"/>
<linearGradient id="SVGID_1_" gradientUnits="userSpaceOnUse" x1="165.1899" y1="643.0905" x2="200.6999" y2="643.0905">
	<stop  offset="0" style="stop-color:#E0DCF3"/>
	<stop  offset="1" style="stop-color:#D1CBEE"/>
</linearGradient>
<path class="st1" d="M196.9,625.3H169c-2.1,0-3.8,1.7-3.8,3.8V657c0,2.1,1.7,3.8,3.8,3.8h27.8c2.1,0,3.8-1.7,3.8-3.8v-27.8
	C200.7,627.1,199,625.3,196.9,625.3z M190.4,646.5c0,2.3-1.8,4.1-4.1,4.1h-6.8c-2.3,0-4.1-1.8-4.1-4.1v-6.8c0-2.3,1.8-4.1,4.1-4.1
	h6.8c2.3,0,4.1,1.8,4.1,4.1V646.5z"/>
<g>
	<rect x="431.3" y="514.8" class="st2" width="114.4" height="67.1"/>
	<path class="st3" d="M445.5,514.8h-34.6c-9.2,0-16.7,7.5-16.7,16.7v211.5c0,9.2,7.5,16.7,16.7,16.7h34.6c9.2,0,16.7-7.5,16.7-16.7
		V531.5C462.2,522.2,454.7,514.8,445.5,514.8z"/>
	<path class="st4" d="M437.5,519.2h-30.5c-8.1,0-14.7,6.6-14.7,14.7v207.4c0,8.1,6.6,14.7,14.7,14.7h30.5c8.1,0,14.7-6.6,14.7-14.7
		V533.9C452.2,525.8,445.7,519.2,437.5,519.2z"/>
	<path class="st3" d="M806.2,581.8H549.7l53.6-130.3c9.5-23.1,32-38.2,57-38.2l156.9-3c36.1,0.4,42.4,21.2,39.2,41.1
		c-4.6,28.6-19.5,109.7-19.5,109.7C831.8,573.7,819.6,581.8,806.2,581.8z"/>
	<path class="st4" d="M767.2,581.8H510.7l48.5-133.2c9.5-23.1,32-38.2,57-38.2h201c17.4,0,29.3,17.7,22.6,33.8l-41.9,117.1
		C792.8,573.7,780.7,581.8,767.2,581.8z"/>
	<path class="st3" d="M692,748.5H498.9c-9.2,0-16.7-7.5-16.7-16.7V598.5c0-9.2,7.5-16.7,16.7-16.7H692c9.2,0,16.7,7.5,16.7,16.7
		v133.3C708.7,741,701.2,748.5,692,748.5z"/>
	<path class="st5" d="M638,748.5H444.9c-9.2,0-16.7-7.5-16.7-16.7V598.5c0-9.2,7.5-16.7,16.7-16.7H638c9.2,0,16.7,7.5,16.7,16.7
		v133.3C654.7,741,647.2,748.5,638,748.5z"/>
	<path class="st4" d="M629.1,745.2H444.2c-8.8,0-16-7.2-16-16v-128c0-8.8,7.2-16,16-16h184.9c8.8,0,16,7.2,16,16v128
		C645.1,738,638,745.2,629.1,745.2z"/>
</g>
<path class="st0" d="M676.9,410.4c15.8,0,29.8,10.3,34.6,25.4c11.3,36,20.1,70.3,12.2,101.6c-9.7,38.7-31.7,44.4-31.7,44.4H559.4
	l92.9-171.4H676.9z"/>
<g>
	<path class="st3" d="M839.2,759.7H718.6l-0.9-244.9h121.6c8.8,0,15.9,7.1,15.9,15.9l0.9,212.1C856.1,752.1,848.5,759.7,839.2,759.7
		z"/>
	<path class="st5" d="M731.8,514.8h-34.6c-9.2,0-16.7,7.5-16.7,16.7l0.9,211.5c0,9.2,7.5,16.7,16.7,16.7h34.6
		c9.2,0,16.7-7.5,16.7-16.7l-0.9-211.5C748.6,522.2,741.1,514.8,731.8,514.8z"/>
	<path class="st4" d="M723.9,519.2h-30.5c-8.1,0-14.7,6.6-14.7,14.7l0.9,207.4c0,8.1,6.6,14.7,14.7,14.7h30.5
		c8.1,0,14.7-6.6,14.7-14.7l-0.9-207.4C738.6,525.8,732,519.2,723.9,519.2z"/>
</g>
<path class="st6" d="M565.5,582.6c-70.1-4.7-70.6,49.8-76.9,95.1c-6.3,45.3-27.3,38.8-27.3,38.8l-21-93.3c0,0-20.6,37.9-31,32.5
	c-10.1-5.3,7.8-64,7.8-64l58.4-23L565.5,582.6z"/>
<g>
	<path class="st0" d="M805.2,475.8c-6,1.2-14.5,0.7-16.2-6.7c-1.7-7.4-1.7-16.1,14.5-20.8c8-2.3,14.9-16.1,14.1-26.7
		c-0.9-10.5-2.2-10.8-4.5-13.1c-1.5-1.5,1.8-3.7,8.7-26.6c10.2-34.1-5-46.6-17.3-48.6c-12.3-2-26.5-6.5-29.2-17.4
		c-2.7-10.9,1.6-17.1,0-24.3c-1.6-7.2-8,4.6-10.3,7.2c-2.3,2.6-10.8,2-11.1-1.9c-0.4-4-0.3-18.6-7.7-8.8c-2.8,3.7-4.3,8.1-4.9,12.9
		c0,0,0,0.1,0,0.3c0,0.4-0.1,0.7-0.1,1.1c0,0.1,0,0.2,0,0.3c0,0.4-0.1,0.8-0.1,1.1c0,0.1,0,0.2,0,0.3c0,0.4,0,0.8,0,1.2
		c0,0.1,0,0.1,0,0.2c0,1,0,1.9,0,2.9c0,0.1,0,0.2,0,0.3c0,0.4,0,0.8,0,1.2c0,0.1,0,0.2,0,0.3c0,0.4,0,0.8,0.1,1.2c0,0.1,0,0.1,0,0.2
		c0.1,1,0.2,2,0.3,2.9c0,0.1,0,0.2,0,0.3c0,0.4,0.1,0.8,0.1,1.1c0,0.1,0,0.2,0,0.4c0,0.4,0.1,0.8,0.2,1.1c0,0.1,0,0.2,0,0.3
		c0.1,1,0.3,1.9,0.4,2.9c0,0.1,0,0.2,0.1,0.4c0.1,0.3,0.1,0.7,0.2,1c0,0.1,0,0.3,0.1,0.4c0.1,0.3,0.1,0.7,0.2,1c0,0.1,0,0.2,0.1,0.4
		c0.1,0.4,0.2,0.9,0.2,1.3c2.1,11.6,9.1,21.4,13.3,32.1c0.3,0.7,0.6,1.4,0.8,2.1c0.1,0.4,0.3,0.8,0.4,1.2c0,0.1,0.1,0.2,0.1,0.3
		c0.1,0.3,0.2,0.6,0.3,1c0,0.1,0,0.2,0.1,0.3c0.1,0.4,0.2,0.7,0.2,1.1c0,0.1,0,0.2,0.1,0.3c0.1,0.4,0.1,0.8,0.2,1.2
		c2.2,14-0.4,38.7-4,38.5c-8.1-0.6-6.5,7.4-4,7.4c3,0,6,0,9.9,0c5.7,0,9-35.3,9-35.3s8.4,23.9,4.6,26.1c-3.8,2.1-3.1,9.4,0,9.2
		c3.1-0.2,14.5,0.2,21.6,0.2c12,0,25.9,21.7,6.3,30.1c-19.7,8.4-23,31.3-15.7,38.1c7.3,6.8,17.4,4.7,20.6,3.6
		C810.1,481.7,811.3,474.5,805.2,475.8z M758.5,364.7C758.5,364.8,758.5,364.8,758.5,364.7C758.5,364.8,758.5,364.8,758.5,364.7z"/>
	<linearGradient id="SVGID_2_" gradientUnits="userSpaceOnUse" x1="536.8631" y1="291.1385" x2="612.8268" y2="350.3675">
		<stop  offset="0" style="stop-color:#8374D1"/>
		<stop  offset="1" style="stop-color:#7766CC"/>
	</linearGradient>
	<path class="st7" d="M584.3,272.9c-14.3-8.3-14.1,25.8-6.9,39.3c14.3,26.9-3.8,17.2,5.9,28c11.3,12.5-12.4,34.8-12.4,34.8
		l71.9-34.7c0,0-13.5-33.2-19.8-39.3C616.7,295,584.3,272.9,584.3,272.9z"/>
	<path class="st8" d="M494.5,537.5c-44.8,0-71.7,10-87.8,12.6c-11.2,1.8-13.9,14.8-17,20.7c-5.7,10.4-44.4,155.5-59.2,164.6
		c-14.6,8.9-23.4,16.3-12.6,19.7c8.9,2.8,18.5,5.1,26.8-3.1c8.3-8.3,13.1-12.5,22.7-18.8c11.3-7.5,0-26.1,2.4-31.1
		c2.4-5,49.4-59.1,50.2-75.7c1.1-21.9,22.6-40.7,98.4-43.4C588.7,580.2,494.5,537.5,494.5,537.5z"/>
	<path class="st9" d="M317.8,754.9c8.9,2.8,18.5,5.1,26.8-3.1c8.3-8.3,13.1-12.5,22.7-18.8c9.2-6.1,3.5-19.5,2.3-27c0,0,0,0,0,0
		c-8.8,4.1-7.9,9.2-13.8,22.1c-5.9,12.9-27.1,15.7-25.3,7.2C315.8,744.2,307,751.6,317.8,754.9z"/>
	<linearGradient id="SVGID_3_" gradientUnits="userSpaceOnUse" x1="392.6484" y1="687.1884" x2="520.7848" y2="559.4998">
		<stop  offset="0" style="stop-color:#8374D1"/>
		<stop  offset="1" style="stop-color:#7766CC"/>
	</linearGradient>
	<path class="st10" d="M518.3,582.7c11.1-0.4,65.6,0.1,76.1,0.1c14.4,0-61.5-23.6-79.1-34l-79.3,4.9c-46.5,17.1-45.8,75.3-42.4,106
		c0.4,3.5,0.8,6.6,1.3,9.3c12.3-16.4,24.6-34.4,25-42.9C421,604.2,442.5,585.4,518.3,582.7z"/>
	<path class="st8" d="M496.1,514.9c-58.7,1.3-50.5-1.1-62.1,9c-8.9,7.8-10.6,16.7-6.3,34.5c4.3,17.8,19.4,147.1,20.1,157.5
		c0.7,10.4-8.2,17.4-12.7,19.5c-4.5,2.1-21.4,6.3-35.1,6.5c-13.7,0.3-3.9,18.6,12.6,17.6c16.5-1,46.1,0.3,51.7,0
		c10.1-0.5,14.6-12.2,10.7-21.5c-3.8-9.3-2.8-37.2-1.2-59c1.6-21.9,7-45.1,8.8-66.6c1.8-21.5-9-38.2-7.3-43.7
		c1.7-5.5,10.1,2.7,30.5,2.7c20.5,0,72.1,15,92.8,11.3c20.8-3.7,26.1-13.9,29.9-35.1l-22.8-33.8C582.5,514,545.3,513.8,496.1,514.9z
		"/>
	<path class="st8" d="M666.1,274.2c-14.6-27.4-47.9-30.7-62.2-26.3c-11.6,3.6-15.5,0.6-26.4,6.1c-16.2,8.1-10.8,26.1-4.6,29.7
		c6.2,3.6,65.9,48.2,64.7,48.7c-1,0.5-19.5,119.5-19.1,134.1c62.1,10.1,72.6-12.9,78.7-47.2c6.4-36-16-52.9-10.5-72.3
		C696.6,311.6,680.5,301.3,666.1,274.2z"/>
	<linearGradient id="SVGID_4_" gradientUnits="userSpaceOnUse" x1="511.7038" y1="553.1972" x2="621.1284" y2="530.3524">
		<stop  offset="0" style="stop-color:#8374D1"/>
		<stop  offset="1" style="stop-color:#7766CC"/>
	</linearGradient>
	<path class="st11" d="M496.1,514.9c-14.6,0.3-25,0.4-32.7,0.5c9.2,13.2,27.2,54.3,28.2,54.6c17.9,5.3,41.4,12.7,73.8,12.6
		c10.8,0,27.3,1.2,33.3,0.1c20.8-3.7,26.1-13.9,29.9-35.1l-22.8-33.8C582.5,514,545.3,513.8,496.1,514.9z"/>
	<linearGradient id="SVGID_5_" gradientUnits="userSpaceOnUse" x1="535.0939" y1="557.2302" x2="498.8111" y2="516.3399">
		<stop  offset="0" style="stop-color:#8374D1"/>
		<stop  offset="1" style="stop-color:#7766CC"/>
	</linearGradient>
	<path class="st12" d="M461.2,515.5c26.5,0.2,48.9,15.3,62.5,16.9c13.6,1.5,11.4-16.7,11.4-16.7L461.2,515.5z"/>
	<linearGradient id="SVGID_6_" gradientUnits="userSpaceOnUse" x1="715.8478" y1="407.8787" x2="585.6902" y2="250.0769">
		<stop  offset="0" style="stop-color:#8374D1"/>
		<stop  offset="1" style="stop-color:#7766CC"/>
	</linearGradient>
	<path class="st13" d="M639.9,328.6c1.4-26.8-5.8-42.6-5.8-42.6s15.5,0,38.9,44.7c9.2,17.7-10.1,24.3-4.7,46.8
		C673.7,400.1,639.9,328.6,639.9,328.6z"/>
	<path class="st14" d="M620.4,345.2c-28.3,7.3-38.7,15.4-56.9,33.8c-20.6,20.9-76,63-87.5,66.8c-11.5,3.8-66.8,7.7-66.8,7.7
		s7.7,0.8,9.2,7.7c1.5,6.9-2.3,6.9-2.3,6.9s72.2,0,82.9,0s60.5-38.9,60.5-38.9s-1.8,13.2,10.4,24.4c36.9,33.8,3.3,49.3-33.2,49.6
		c-31.7,0.2-33.3,2.1-31.9,4.7c1.2,2.3,0.1,2.4-8.7,7c0,0,30.6,1.1,54.4,15c23.8,13.8,35.5,53.6,64,52.9c12.5-0.3,36-6.3,41.8-18.9
		c1-2.2-4.2-8.5,3.6-10.8c25.8-7.6,6.1-54.3,25.8-154.6C694.3,354.8,641.1,339.9,620.4,345.2z"/>
	<linearGradient id="SVGID_7_" gradientUnits="userSpaceOnUse" x1="636.8552" y1="519.558" x2="621.1133" y2="469.6451">
		<stop  offset="0" style="stop-color:#E0DCF3"/>
		<stop  offset="1" style="stop-color:#D1CBEE"/>
	</linearGradient>
	<path class="st15" d="M566.2,493.4c44,20.5,40.9,25,52.2,29.6c28.9,11.8,52.3-93.8,52.3-93.8L620,482.5L566.2,493.4z"/>
	<path class="st16" d="M415,455.8c17-0.1,66.6-0.9,73.7-6.9c8.7-7.3,63.2-59,63.2-59l0,0c-24.9,22-66.1,52.7-75.9,55.9
		c-9.2,3.1-46.3,6.1-60.9,7.2l-2.8,1.3C413.2,454.7,414.1,455.2,415,455.8z"/>
	<linearGradient id="SVGID_8_" gradientUnits="userSpaceOnUse" x1="497.3028" y1="473.4118" x2="507.7703" y2="405.373">
		<stop  offset="0" style="stop-color:#E0DCF3"/>
		<stop  offset="1" style="stop-color:#D1CBEE"/>
	</linearGradient>
	<path class="st17" d="M562.3,407.9c0,0-46.9,52-63,55.3c-16.1,3.3-59.1,4.9-59.1,4.9s55.2,2.4,63.5,0.4
		c17.6-4.3,58.6-40.9,58.6-40.9V407.9z"/>
	<path class="st18" d="M506.9,478.7c-14.6-3-19.9-8.6-30-8.1c-10,0.5-17.5,21.7-15.3,29.1c2.2,7.4,9.5,5.4,15.8-2.2
		c6.3-7.7,8.9-2.2,12.7,0.9c8.6,7,11.8-1.2,20.6,0.4C531.6,502.5,506.9,478.7,506.9,478.7z"/>
	<linearGradient id="SVGID_9_" gradientUnits="userSpaceOnUse" x1="594.1628" y1="449.6471" x2="610.2355" y2="404.5395">
		<stop  offset="0" style="stop-color:#E0DCF3"/>
		<stop  offset="1" style="stop-color:#D1CBEE"/>
	</linearGradient>
	<path class="st19" d="M562.3,407.9c0,0-1.1,7-2.6,15.1c-1.5,8.1,3.7,23,3.7,23s64.7,14.4,76,3.7c11.3-10.7,1.8-44.7,1.8-44.7
		s-11,29.1-46.9,24.2C558.8,424.4,561.6,415.8,562.3,407.9z"/>
	<path class="st14" d="M659.9,370.2c-28.4-7-36,84.3-52.4,96c-16.4,11.7-90,13.4-101.7,12.3c0,0,14,10.8,4.9,20.1
		c0,0,97.4,14.9,121.1-1.5c23.8-16.5,46.1-58.6,42.3-92.2C671.3,380.1,671.3,373.1,659.9,370.2z"/>
	<path class="st18" d="M607.6,267c-7.9-4.2-13.1,3.5-21.3,9.4c-7.3,5.3-11.4,3.1-7,16.8c0.6,1.8,7.9,8.3,8.2,10.4
		c0.7,4.4-3.2,5.1,2.4,11.6c17.3,20.2,23.3,20.2,28.2,14.5c0,0,27.7-14.8,20.1-28.5c5.7,3.3-7.3-17.5-6.5-7.5
		C627.8,286.5,622.6,275,607.6,267z"/>
	<linearGradient id="SVGID_10_" gradientUnits="userSpaceOnUse" x1="607.262" y1="323.1012" x2="632.0864" y2="347.2945">
		<stop  offset="0" style="stop-color:#CBC5EC"/>
		<stop  offset="1" style="stop-color:#DCD7F2"/>
	</linearGradient>
	<path class="st20" d="M636.9,363.3c21.3-15.5,33.8-5.3,33.8-5.3s-19.3-12.8-31.5-53.9c5.7,3.3,5.1-3.3,4.9-5.7
		c-1.3-15.1-13.9-21.5-12.5-4.7c5.8,24.5-1.2,23.3-13.6,36c0,0,6.7,3.5-0.7,13.9c-6.6,9.3-20.6,23.5-20.8,31.7
		C596,395.6,617.7,377.2,636.9,363.3z"/>
	<path class="st16" d="M636.1,392.1c-13,29.1-19,67.3-28.7,74.2c-16.4,11.7-90,13.4-101.7,12.3c0,0,1.8,1.4,3.7,3.6
		c37.1,1.7,95.5-1.2,103.8-13.5C627.2,448.1,636.1,392.1,636.1,392.1L636.1,392.1z"/>
	<linearGradient id="SVGID_11_" gradientUnits="userSpaceOnUse" x1="610.4078" y1="539.8523" x2="620.9023" y2="529.8697">
		<stop  offset="0" style="stop-color:#E0DCF3"/>
		<stop  offset="1" style="stop-color:#D1CBEE"/>
	</linearGradient>
	<path class="st21" d="M659.9,553.1c-36.4-4.2-74.2-30.4-96.9-35.9c0,0,19.6,4.9,33.4,19.3c13.8,14.4,56.5,33.2,59.9,27.4
		c0.5-0.8-0.8-3.7,0.8-6.4C658.6,554.8,659.9,553.1,659.9,553.1z"/>
	<linearGradient id="SVGID_12_" gradientUnits="userSpaceOnUse" x1="505.6101" y1="519.5258" x2="550.388" y2="522.9969">
		<stop  offset="0" style="stop-color:#E0DCF3"/>
		<stop  offset="1" style="stop-color:#D1CBEE"/>
	</linearGradient>
	<path class="st22" d="M578.6,537.5c-41.9-34.3-73.8-29.5-73.8-29.5s1.7,2.5,1.3,3.3c-0.4,0.7-1.7,1.7-2.5,2.1c0,0-10,1.6,0.8,2.5
		C524.3,517.2,578.6,537.5,578.6,537.5z"/>
	<path class="st9" d="M474.3,735.6C474.3,735.6,474.3,735.6,474.3,735.6c-16-0.3-40,11.1-55.6,4.3c-5.9,1.1-12.6,2-18.6,2.1
		c-13.7,0.3-3.9,18.6,12.6,17.6c16.5-1,46.1,0.3,51.7,0c10.1-0.5,14.6-12.2,10.7-21.5C474.8,737.4,474.6,736.5,474.3,735.6z"/>
	<path class="st23" d="M535.1,509.1H408.2c-1,0-1.8,0.8-1.8,1.8v3c0,1,0.8,1.8,1.8,1.8h126.9c1,0,1.8-0.8,1.8-1.8v-3
		C536.9,509.9,536.1,509.1,535.1,509.1z"/>
	<linearGradient id="SVGID_13_" gradientUnits="userSpaceOnUse" x1="373.4013" y1="472.1575" x2="495.7784" y2="472.1575">
		<stop  offset="0" style="stop-color:#8374D1"/>
		<stop  offset="1" style="stop-color:#7766CC"/>
	</linearGradient>
	<path class="st24" d="M492.5,510.5H407c-3.5,0-6.6-2.1-7.8-5.4l-25.6-66.9c-0.8-2.1,0.8-4.4,3-4.4h85.5c3.5,0,6.6,2.1,7.8,5.4
		l25.6,66.9C496.4,508.2,494.8,510.5,492.5,510.5z"/>
	<g>
		<path class="st8" d="M742.1,410.8c-3.9,0-7,0-9.9,0c-2.6,0-4.2-8,4-7.4c4.1,0.3,6.9-32.3,2.7-43.8c-4.2-11.5-11.9-21.8-14.2-34.2
			c-2.3-12.4-4.3-27.5,3.1-37.2c7.4-9.7,7.3,4.9,7.7,8.8c0.4,4,8.8,4.5,11.1,1.9c2.3-2.6,8.7-14.3,10.3-7.2c1.6,7.2-2.7,13.3,0,24.3
			c2.7,10.9,16.9,15.5,29.2,17.4c12.3,2,27.5,18.7,23.2,39.2c-4.2,20.5-8.7,38.2-15.9,38.2s-34.8-0.2-37.9,0c-3.1,0.2-3.8-7.1,0-9.2
			c3.8-2.1-4.6-26.1-4.6-26.1S747.8,410.8,742.1,410.8z"/>
		<linearGradient id="SVGID_14_" gradientUnits="userSpaceOnUse" x1="753.0098" y1="373.4163" x2="779.8546" y2="373.4163">
			<stop  offset="0" style="stop-color:#8374D1"/>
			<stop  offset="1" style="stop-color:#7766CC"/>
		</linearGradient>
		<path class="st25" d="M755.6,401.6c14.4,0,23.6,1.5,24.3-5.7c0.7-7.2-26.4-22.7-15.4-39.1c2.2-3.2,11.1-6.2,8.2-9
			c-10-9.6-27.8,7.2-15.4,28.2c7.2,12.2,13.7,19.3,10.8,21.6C765.1,399.9,755.6,401.6,755.6,401.6z"/>
		<path class="st8" d="M793.5,410.8c12,0,19.6,21.7,0,30.1s-17.4,31.2-10.1,38c7.3,6.8,17.4,4.7,20.6,3.6c3.3-1.2,4.4-8.3-1.6-7
			c-6,1.2-14.5,0.7-16.2-6.7c-1.7-7.4,0.1-17.9,11.3-21.5c11.2-3.6,16.4-15.4,15.5-25.9c-0.9-10.5-8.4-13.8-10.5-15.5
			c-2-1.7,0-6.4,0-6.4L793.5,410.8z"/>
		<linearGradient id="SVGID_15_" gradientUnits="userSpaceOnUse" x1="726.7722" y1="306.808" x2="740.7223" y2="365.4237">
			<stop  offset="0" style="stop-color:#8374D1"/>
			<stop  offset="1" style="stop-color:#7766CC"/>
		</linearGradient>
		<path class="st26" d="M723,301c-1,7.9,0.3,16.6,1.8,24.3c2.3,12.4,10,22.7,14.2,34.2c0.5,1.5,1,3.3,1.3,5.4l0,0
			c-4.1-25.9,2.8-33.4-3.8-37.5C720.6,317.4,723,301,723,301z"/>
		<path class="st4" d="M735.7,317.9c1.7,4,5.5,2.4,6.8,1c1.2-1.2-1.1-2.7-3-2.9C737.6,315.9,735.1,316.5,735.7,317.9z"/>
	</g>
</g>
<g>
	<g>
		
			<linearGradient id="SVGID_16_" gradientUnits="userSpaceOnUse" x1="821.0299" y1="532.7967" x2="911.5249" y2="532.7967" gradientTransform="matrix(0.9339 -0.2429 0.2517 0.9678 -67.7068 251.0323)">
			<stop  offset="0" style="stop-color:#8374D1"/>
			<stop  offset="1" style="stop-color:#7766CC"/>
		</linearGradient>
		<path class="st27" d="M847.7,430.3c-8.3,10.9-16.9,26.8-16.9,34.2c0,7.5,6.2,15.2,9.8,18.8c3.6,3.6,0.9,38.9,1.7,54.7
			c0.8,15.8,25.8,163.6,25.8,163.6l4.4,0c0,0-26.1-157-26.5-163.1c-0.4-6-0.9-52-0.4-54.9c0.5-2.8,4.7,0,13.1-6.8
			c8.4-6.7,8.4-26.3,9.6-38.3c1.2-12,14.8-26.8,14.8-26.8S865.1,407.4,847.7,430.3z"/>
		<path class="st28" d="M895.4,423.5c-11,9.1-35.1-8.1-42.1-0.5c0,0,10-12.5,19.1-14.3c9.1-1.8,13.1-5.8,16.9-5.1
			S898.8,420.7,895.4,423.5z"/>
		<path class="st8" d="M790.8,498.9c-8.8,1.3-16.5,11.7-3.2,19.8c13.3,8.1,12.9,19.6,24.5,22.9c11.6,3.3,20.3,11.6,26.6,11
			s7.3,0.1,10.9,3.8c3.6,3.8,14.7,12.4,17.3,28.9c2.6,16.5,0.2,48.8,4.1,77.4c3.9,28.6,2.6,39.8,2.6,39.8h5.2c0,0-0.5-30.6-4.1-45.1
			c-3.6-14.6-4.8-58-3.9-67.4s-11.7-28.5-18.6-35.4c-6.9-6.9-4.5-7.4-4.2-11.9s-0.7-12.6-15.8-20.6C817,514,811.9,495.7,790.8,498.9
			z"/>
		
			<linearGradient id="SVGID_17_" gradientUnits="userSpaceOnUse" x1="861.7321" y1="608.0034" x2="891.8555" y2="608.0034" gradientTransform="matrix(0.9963 8.540000e-02 -8.540000e-02 0.9963 55.8031 -77.2211)">
			<stop  offset="0" style="stop-color:#8374D1"/>
			<stop  offset="1" style="stop-color:#7766CC"/>
		</linearGradient>
		<path class="st29" d="M869.9,515.1c8.6,11.4,8.9,21.5,8.1,29.5c-0.8,7.9,2.2,18.1,2.3,22.6c0.1,4.5-1.1,34.4-1.1,42.7
			s-5.9,92.6-5.9,92.6h4.3c0,0,2.9-58.5,4.5-67.6c1.6-9.1,1.8-59.2,1.2-68.8c-0.5-9.7-2.6-11.6-2.4-14.7c0.2-3.1,14.1-9.2,16.6-14.6
			c2.5-5.4-0.6-8.1-0.2-9.7c0.4-1.6,4-16.2-3.4-20.6s-21.6,2.6-21.6,2.6L869.9,515.1z"/>
		<path class="st28" d="M875.5,499.3c-9.2,0.7-16.3-9.2-22.5,0.8c-3.2,5.1-2.9,23.4,5.2,25.8s17.8-22.6,35.9-19.5
			C894,506.4,883.5,498.7,875.5,499.3z"/>
		<path class="st28" d="M869.6,702.4c0,0-2.3-28-7.6-45.5c-5.2-17.6-26.4-35.7-28.6-44c-2.2-8.2-0.8-18.1-21.4-25.8
			c-20.7-7.7-36.4,6.9-57,13.4c-20.6,6.5-26.2,19.3-21,29.2c5.2,9.9,17.7-8.8,34.7-10.7c17.1-1.9,42.3,5.2,49.9,0.9
			c7.6-4.3,10.6-5,11.5-2.4c0.9,2.5,16.5,21.4,21.9,29.6c5.5,8.2,6.3,11.7,6.8,15.3c0.5,3.6,7.5,40.2,7.5,40.2H869.6z"/>
		<linearGradient id="SVGID_18_" gradientUnits="userSpaceOnUse" x1="862.5009" y1="638.9285" x2="906.9411" y2="638.9285">
			<stop  offset="0" style="stop-color:#8374D1"/>
			<stop  offset="1" style="stop-color:#7766CC"/>
		</linearGradient>
		<path class="st30" d="M862.5,583.2c14.7,9.9,25,15.3,23.6,28.9c-1.4,13.6-10.8,90.4-10.8,90.4h3.5c0,0,5.5-62,7.4-71.6
			c1.9-9.5,2.7-23.9,4-26.6c1.3-2.6,15.9-9.1,16.4-14c0.5-4.9,1.6-9.6-8.3-13.9C888.5,572.1,862.5,583.2,862.5,583.2z"/>
		<path class="st8" d="M919,573.1c1.9-13.4-0.3-15.9,6.9-21c7.2-5,12.2-17.3,27.3-28.2c15.1-10.9,22.1-8.5,28.2-6.9
			c6.1,1.6-3.4,6.4-5.2,12.1c-1.8,5.7-3.2,24.7-11.7,33.4c-8.5,8.7-28.8,18.3-35.9,26.3c-7,8-24.6,69-28.2,82.6
			c-3.6,13.6-12,31-12,31h-3.8c0,0,10.5-23.7,11.2-31.7c0.7-8,23.5-74.1,25.5-79.2C923.3,586.4,918,580,919,573.1z"/>
		<path class="st28" d="M827.3,587.4c5.5-18.6,0.6-22.6-6.1-30.4c-6.7-7.8-0.2-32.9,6.1-29.3c6.3,3.6,3.2,7.9,10.2,19.6
			c7,11.7,6.4,28.1,6.4,28.1L827.3,587.4z"/>
		<linearGradient id="SVGID_19_" gradientUnits="userSpaceOnUse" x1="823.8335" y1="624.8715" x2="863.8935" y2="624.8715">
			<stop  offset="0" style="stop-color:#8374D1"/>
			<stop  offset="1" style="stop-color:#7766CC"/>
		</linearGradient>
		<path class="st31" d="M837.5,547.3c6.4,14.1,7,18.7-1.2,28.1c-8.2,9.5-16,20.5-10.7,26.9c5.2,6.3,22.4,11.8,25.8,22.7
			c3.4,10.9,8.9,77.5,8.9,77.5h3.6c0,0-6.3-57.6-6.1-62.6c0.2-5-1.6-19-2.1-24.4c-0.4-5.4,11.3-23.5,6.8-32.3
			C858,574.4,848.3,556.7,837.5,547.3z"/>
		<path class="st28" d="M884.7,587c-13,6.3-23.6,4.4-27.7,7.8c-4.2,3.4-6.6-0.9-5.2-5.5c1.3-4.6,2.5-17.5,14.8-18.9
			c12.3-1.4,13.6-3.9,28.1,1.2c12.6,4.5,12.4,10.3,12.2,13.2C905.2,581.7,892,583.5,884.7,587z"/>
		<path class="st8" d="M872.2,702.4c0,0-15.7-34.1-19.2-41.7c-3.5-7.6,0.9-16.7-0.7-21.8c-1.5-5.1-16.4-10.3-30.8-9.8
			c-14.4,0.5-18.8,6.7-20.6,9.8c-1.8,3.1,1.7,3.9,4.5,2.4c2.7-1.5,12.8-2.9,25.9,5.7c13.1,8.6,14.6,4.3,16.9,12.4
			c2.3,8.1,13.2,27.4,16.5,34.1c3.4,6.8,3.4,8.9,3.4,8.9H872.2z"/>
		<path class="st28" d="M977,527.5c2.8-5,9.9-9,4.5-10.4c-6.1-1.6-13.1-4-28.2,6.9c-15.1,10.9-20.1,23.1-27.3,28.2
			c-6,4.2-5.5,6.7-6.3,15.2c4.2-2.9,9.4-2.2,20.7-12.7C954.7,541.1,963.2,529.5,977,527.5z"/>
	</g>
	<g>
		<path class="st4" d="M883.8,701.2h11.7l8.3,51.2c0,4-3.2,7.3-7.2,7.3h-48.1c-4.3,0-7.7-3.5-7.7-7.8l6.2-50.7H883.8z"/>
		<path class="st5" d="M886.8,701.2h8.7l8.3,51.6c0,3.8-3.1,6.9-6.8,6.9h-45.4c26-1.1,18.2-17.8,20.7-26.3
			C877.6,714.9,889.2,720.8,886.8,701.2z"/>
	</g>
</g>
<g>
	<rect x="804.2" y="7" class="st4" width="156.9" height="229.8"/>
	<rect x="809.8" y="12" class="st2" width="145.6" height="217.9"/>
	
		<rect x="961.1" y="7" transform="matrix(-1 -1.224647e-16 1.224647e-16 -1 1926.4202 243.7621)" class="st3" width="4.2" height="229.8"/>
	<rect x="809.8" y="12" class="st3" width="3.5" height="217.9"/>
</g>
<g>
	<rect x="641.8" y="95.7" class="st28" width="84.5" height="84.5"/>
	<rect x="652.3" y="106.1" class="st4" width="63.6" height="63.6"/>
	
		<rect x="726.3" y="95.7" transform="matrix(-1 -1.224647e-16 1.224647e-16 -1 1457.7531 275.7984)" class="st23" width="5.1" height="84.5"/>
	<rect x="652.3" y="106.1" class="st23" width="5.1" height="63.6"/>
	<rect x="671.5" y="125.4" class="st14" width="25.1" height="25.1"/>
</g>
<rect x="731.4" y="95.7" class="st0" width="7.1" height="84.5"/>
<rect x="965.3" y="7" class="st0" width="7.4" height="229.8"/>
<g>
	<g>
		<path class="st28" d="M143,703.8c3.9,5.4,5.1,11.2,5.1,11.2h4.9c0,0-4.7-16.5-4.8-19.6C148.2,692.3,143,703.8,143,703.8z"/>
		<path class="st28" d="M188.6,658.7c7.9,17.4,7.2,23.6,3.8,30.5c-3.4,6.9-13.2,21-14.6,25.8h7c0,0,5.7-18.2,7.9-20.3
			c2.2-2.1,5.7-11,3-19.6C193,666.5,188.6,658.7,188.6,658.7z"/>
		<path class="st8" d="M184.9,704.6c-1.4-4.8-11.1-8.6-12.7-15.7c-1.6-7.1,4.3-5,5.6-9c1.3-4,7.3,0.9,9.6-0.9c2.2-1.8,7.8,4.8,6.1,8
			C191.9,690.1,184.9,704.6,184.9,704.6z"/>
		<path class="st28" d="M129.4,678.2c-14.8,0.7-15.7,5.4-21.3,3.4c-5.6-1.9-8.7-2.5-7,1.3c1.7,3.8,47,23.7,47,23.7l-9.7-19.6
			L129.4,678.2z"/>
		<path class="st28" d="M143.1,675.1c-1.7-7.8,2-13.4,10-15.2c7.9-1.8,13.6-4.6,11.6-7.1c-1.9-2.6-4.9,2.1-9.8,0.9
			c-4.9-1.3-10.3-1.9-11.2,2.8s-7.3,4.2-7,8.3C136.9,668.9,143.1,675.1,143.1,675.1z"/>
		<path class="st8" d="M114.8,673.5c10.2,8.9,14.6,10.5,23.2,19.4c8.6,8.8,9.6,14.7,11.4,14.9c1.8,0.2-1.6-3.3,0.5-8.1
			c2.2-4.8,8.4-11.4,3.9-17.6c-4.6-6.3-7.4-3.4-10.2-8.9c-2.8-5.5-8.8,4.1-14.7,0.1C123,669.2,111.7,670.7,114.8,673.5z"/>
		<path class="st8" d="M113.9,695.4c8.2,3.8,32.7,11.9,34.3,11.3c1.6-0.6-12-8.8-17.9-14.6c-6-5.9-12.4-2.8-17.2-6.6
			c-4.8-3.8-11.9-2.4-11.9-2.4S109.2,693.2,113.9,695.4z"/>
		<path class="st28" d="M195.1,691.4c6-18.2,12.1-15.2,15.6-21c3.5-5.8,4.2-2.9,11.3-7.6s1.3-8.4,11.7-10.1
			c10.4-1.7,22.7,8.5,15.5,18.9c-7.2,10.4-26,5.5-26,5.5L195.1,691.4z"/>
		<path class="st8" d="M187.6,700.6c-1.5,4.2,10.5-12.2,23.1-13.6c12.7-1.3,34.9-8.8,38.4-15.4c0,0-4.8,5.5-12,1.1
			c-7.3-4.4-14.1-3-19.8,1.8c-5.7,4.7-12.7,4-16,6.5C197.9,683.4,188.8,697.6,187.6,700.6z"/>
		<path class="st8" d="M192,656.4c-11.5-8.3-22.1-8.3-24-14c-1.9-5.8-0.3-7.3-5.3-12.1c-5-4.8-5.3-9.1-0.9-10.2
			c4.3-1.1,8,0.7,11.6-1.7c3.6-2.4,6-6.3,11.8-5.5c5.9,0.8,5.1,5.7,7.6,6.4c2.5,0.7,5.8,0.8,6.5,5.4c0.7,4.6-1.7,9.6,1.4,15.8
			C203.9,646.6,192,656.4,192,656.4z"/>
		<path class="st8" d="M185,709.7c0.1,1.1,2.4-2.2,5.6-3.4c3.1-1.2,9.4-0.2,11.9-2c2.5-1.8,9.1-9.1,13.9-11.1
			c4.9-2.1,2.6-3.4-0.8-2.9c-3.4,0.4-12.5,4.4-16.8,8.3c-4.3,3.9-13.8,7.6-13.9,9.2C184.7,709.3,185,709.7,185,709.7z"/>
		<path class="st28" d="M169.6,653.3c5.6-1.3,4-3.4,5.2-6c1.3-2.6,6.5-3.4,9,0.9c2.4,4.4,3.1,5.9,7.3,6.6c4.2,0.8,4.2,5.3,4.6,9.1
			C196.2,667.7,169.6,653.3,169.6,653.3z"/>
		<path class="st8" d="M193.9,678.6c-9.2-7.4-12.8-4.7-17-12.1c-4.3-7.4-9.1-2.8-9.7-9.8c-0.5-6.9,7.3-3.2,8.2-6.3
			c0.9-3.1,9.7-0.7,10.9,4.7c1.2,5.5,8.8,0.9,10.9,5.7c2.1,4.8,2.1,12.3,0.3,14C195.7,676.6,194.9,679.4,193.9,678.6z"/>
		<path class="st8" d="M97.3,640.7c10.9,15.3,34.1,29.2,37.3,36.5c3.2,7.3,7.7-10.2,1.6-15.8c-6.1-5.6-5.6-3.8-6.6-8
			c-0.9-4.2-5.7-4.2-8.3-9C118.8,639.5,94,636,97.3,640.7z"/>
	</g>
	<g>
		<path class="st3" d="M176.7,715l27.6,0c0,0-3,32-6.2,42c-0.8,2.5-4.1,6.7-8.2,6.7H140c-4.4,0-7.1-5.4-8-8.1
			c-3.3-9.9-5.5-40.6-5.5-40.6H176.7z"/>
		<path class="st2" d="M179.8,715h24.5c0,0-3,31.9-6.2,42c-0.8,2.4-3.9,6.7-7.8,6.7h-47.1C203.1,761.2,165.2,735.3,179.8,715z"/>
	</g>
</g>
<path class="st32" d="M813.3,149.4c0,0,41.4,23.7,64.2,42.9c23.6,19.8,36.6,37.6,36.6,37.6H813.3V149.4z"/>
<linearGradient id="SVGID_20_" gradientUnits="userSpaceOnUse" x1="484.7127" y1="289.18" x2="520.2227" y2="289.18">
	<stop  offset="0" style="stop-color:#E0DCF3"/>
	<stop  offset="1" style="stop-color:#D1CBEE"/>
</linearGradient>
<path class="st33" d="M516.4,271.4h-27.9c-2.1,0-3.8,1.7-3.8,3.8v27.8c0,2.1,1.7,3.8,3.8,3.8h27.9c2.1,0,3.8-1.7,3.8-3.8v-27.8
	C520.2,273.1,518.5,271.4,516.4,271.4z M510,292.6c0,2.3-1.8,4.1-4.1,4.1H499c-2.3,0-4.1-1.8-4.1-4.1v-6.8c0-2.3,1.8-4.1,4.1-4.1
	h6.8c2.3,0,4.1,1.8,4.1,4.1V292.6z"/>
<linearGradient id="SVGID_21_" gradientUnits="userSpaceOnUse" x1="325.0688" y1="642.8392" x2="360.5789" y2="642.8392">
	<stop  offset="0" style="stop-color:#E0DCF3"/>
	<stop  offset="1" style="stop-color:#D1CBEE"/>
</linearGradient>
<path class="st34" d="M356.7,625.1h-27.8c-2.1,0-3.8,1.7-3.8,3.8v27.8c0,2.1,1.7,3.8,3.8,3.8h27.8c2.1,0,3.8-1.7,3.8-3.8v-27.8
	C360.6,626.8,358.9,625.1,356.7,625.1z M350.3,646.2c0,2.3-1.8,4.1-4.1,4.1h-6.8c-2.3,0-4.1-1.8-4.1-4.1v-6.8c0-2.3,1.8-4.1,4.1-4.1
	h6.8c2.3,0,4.1,1.8,4.1,4.1V646.2z"/>
<linearGradient id="SVGID_22_" gradientUnits="userSpaceOnUse" x1="324.8447" y1="458.5414" x2="360.3547" y2="458.5414">
	<stop  offset="0" style="stop-color:#E0DCF3"/>
	<stop  offset="1" style="stop-color:#D1CBEE"/>
</linearGradient>
<path class="st35" d="M356.5,440.8h-27.8c-2.1,0-3.8,1.7-3.8,3.8v27.8c0,2.1,1.7,3.8,3.8,3.8h27.8c2.1,0,3.8-1.7,3.8-3.8v-27.8
	C360.4,442.5,358.6,440.8,356.5,440.8z M350.1,461.9c0,2.3-1.8,4.1-4.1,4.1h-6.8c-2.3,0-4.1-1.8-4.1-4.1v-6.8c0-2.3,1.8-4.1,4.1-4.1
	h6.8c2.3,0,4.1,1.8,4.1,4.1V461.9z"/>
<linearGradient id="SVGID_23_" gradientUnits="userSpaceOnUse" x1="324.8147" y1="289.1945" x2="360.3247" y2="289.1945">
	<stop  offset="0" style="stop-color:#E0DCF3"/>
	<stop  offset="1" style="stop-color:#D1CBEE"/>
</linearGradient>
<path class="st36" d="M356.5,271.4h-27.8c-2.1,0-3.8,1.7-3.8,3.8v27.8c0,2.1,1.7,3.8,3.8,3.8h27.8c2.1,0,3.8-1.7,3.8-3.8v-27.8
	C360.3,273.2,358.6,271.4,356.5,271.4z M350.1,292.6c0,2.3-1.8,4.1-4.1,4.1h-6.8c-2.3,0-4.1-1.8-4.1-4.1v-6.8c0-2.3,1.8-4.1,4.1-4.1
	h6.8c2.3,0,4.1,1.8,4.1,4.1V292.6z"/>
<linearGradient id="SVGID_24_" gradientUnits="userSpaceOnUse" x1="164.9658" y1="458.7927" x2="200.4758" y2="458.7927">
	<stop  offset="0" style="stop-color:#E0DCF3"/>
	<stop  offset="1" style="stop-color:#D1CBEE"/>
</linearGradient>
<path class="st37" d="M196.6,441h-27.8c-2.1,0-3.8,1.7-3.8,3.8v27.8c0,2.1,1.7,3.8,3.8,3.8h27.8c2.1,0,3.8-1.7,3.8-3.8v-27.8
	C200.5,442.8,198.8,441,196.6,441z M190.2,462.2c0,2.3-1.8,4.1-4.1,4.1h-6.8c-2.3,0-4.1-1.8-4.1-4.1v-6.8c0-2.3,1.8-4.1,4.1-4.1h6.8
	c2.3,0,4.1,1.8,4.1,4.1V462.2z"/>
<linearGradient id="SVGID_25_" gradientUnits="userSpaceOnUse" x1="324.7281" y1="107.2021" x2="360.2381" y2="107.2021">
	<stop  offset="0" style="stop-color:#E0DCF3"/>
	<stop  offset="1" style="stop-color:#D1CBEE"/>
</linearGradient>
<path class="st38" d="M356.4,89.5h-27.8c-2.1,0-3.8,1.7-3.8,3.8v27.8c0,2.1,1.7,3.8,3.8,3.8h27.8c2.1,0,3.8-1.7,3.8-3.8V93.3
	C360.2,91.2,358.5,89.5,356.4,89.5z M350,110.6c0,2.3-1.8,4.1-4.1,4.1H339c-2.3,0-4.1-1.8-4.1-4.1v-6.8c0-2.3,1.8-4.1,4.1-4.1h6.8
	c2.3,0,4.1,1.8,4.1,4.1V110.6z"/>
<linearGradient id="SVGID_26_" gradientUnits="userSpaceOnUse" x1="5" y1="458.858" x2="40.51" y2="458.858">
	<stop  offset="0" style="stop-color:#E0DCF3"/>
	<stop  offset="1" style="stop-color:#D1CBEE"/>
</linearGradient>
<path class="st39" d="M36.7,441.1H8.8c-2.1,0-3.8,1.7-3.8,3.8v27.8c0,2.1,1.7,3.8,3.8,3.8h27.8c2.1,0,3.8-1.7,3.8-3.8v-27.8
	C40.5,442.8,38.8,441.1,36.7,441.1z M30.3,462.2c0,2.3-1.8,4.1-4.1,4.1h-6.8c-2.3,0-4.1-1.8-4.1-4.1v-6.8c0-2.3,1.8-4.1,4.1-4.1h6.8
	c2.3,0,4.1,1.8,4.1,4.1V462.2z"/>
<linearGradient id="SVGID_27_" gradientUnits="userSpaceOnUse" x1="164.9358" y1="289.4458" x2="200.4458" y2="289.4458">
	<stop  offset="0" style="stop-color:#E0DCF3"/>
	<stop  offset="1" style="stop-color:#D1CBEE"/>
</linearGradient>
<path class="st40" d="M196.6,271.7h-27.8c-2.1,0-3.8,1.7-3.8,3.8v27.8c0,2.1,1.7,3.8,3.8,3.8h27.8c2.1,0,3.8-1.7,3.8-3.8v-27.8
	C200.4,273.4,198.7,271.7,196.6,271.7z M190.2,292.8c0,2.3-1.8,4.1-4.1,4.1h-6.8c-2.3,0-4.1-1.8-4.1-4.1V286c0-2.3,1.8-4.1,4.1-4.1
	h6.8c2.3,0,4.1,1.8,4.1,4.1V292.8z"/>
</svg>
