<?xml version="1.0" encoding="utf-8"?>
<!-- Generator: Adobe Illustrator 22.0.1, SVG Export Plug-In . SVG Version: 6.00 Build 0)  -->
<svg version="1.1" id="Layer_1" xmlns="http://www.w3.org/2000/svg" xmlns:xlink="http://www.w3.org/1999/xlink" x="0px" y="0px"
	 viewBox="0 0 232 164.4" style="enable-background:new 0 0 232 164.4;" xml:space="preserve">
<style type="text/css">
	.st0{fill:url(#SVGID_1_);}
	.st1{fill:url(#SVGID_2_);}
	.st2{fill:url(#SVGID_3_);}
	.st3{fill:url(#SVGID_4_);}
	.st4{fill:url(#SVGID_5_);}
	.st5{fill:url(#SVGID_6_);}
	.st6{fill:url(#SVGID_7_);}
	.st7{fill:url(#SVGID_8_);}
	.st8{fill:url(#SVGID_9_);}
	.st9{fill:#8E80D5;}
	.st10{fill:#FFFFFF;}
	.st11{fill:url(#SVGID_10_);}
	.st12{fill:url(#SVGID_11_);}
	.st13{fill:url(#SVGID_12_);}
	.st14{fill:url(#SVGID_13_);}
	.st15{fill:url(#SVGID_14_);}
	.st16{fill:url(#SVGID_15_);}
	.st17{fill:url(#SVGID_16_);}
	.st18{fill:#A195DC;}
	.st19{fill:#B8AFE4;}
	.st20{fill:#8374D1;}
	.st21{fill:url(#SVGID_17_);}
	.st22{fill:url(#SVGID_18_);}
	.st23{fill:url(#SVGID_19_);}
	.st24{fill:#E2DFF4;}
</style>
<linearGradient id="SVGID_1_" gradientUnits="userSpaceOnUse" x1="5.085" y1="153.5864" x2="222.524" y2="153.5864" gradientTransform="matrix(-1 0 0 1 232.3185 0)">
	<stop  offset="0" style="stop-color:#CEC8ED"/>
	<stop  offset="1" style="stop-color:#FFFFFF"/>
</linearGradient>
<ellipse class="st0" cx="118.5" cy="153.6" rx="108.7" ry="10.3"/>
<g>
	<g>
		
			<linearGradient id="SVGID_2_" gradientUnits="userSpaceOnUse" x1="49.6295" y1="61.2925" x2="50.3587" y2="61.2925" gradientTransform="matrix(-1 0 0 1 232.3185 0)">
			<stop  offset="0" style="stop-color:#CEC8ED"/>
			<stop  offset="1" style="stop-color:#FFFFFF"/>
		</linearGradient>
		<path class="st1" d="M182.3,50.7c0.2,0,0.4,0.2,0.4,0.4v20.7H182V51.1C182,50.9,182.1,50.7,182.3,50.7z"/>
		
			<linearGradient id="SVGID_3_" gradientUnits="userSpaceOnUse" x1="51.9389" y1="61.2925" x2="52.6681" y2="61.2925" gradientTransform="matrix(-1 0 0 1 232.3185 0)">
			<stop  offset="0" style="stop-color:#CEC8ED"/>
			<stop  offset="1" style="stop-color:#FFFFFF"/>
		</linearGradient>
		<path class="st2" d="M180,50.7c0.2,0,0.4,0.2,0.4,0.4v20.7h-0.7V51.1C179.7,50.9,179.8,50.7,180,50.7z"/>
		
			<linearGradient id="SVGID_4_" gradientUnits="userSpaceOnUse" x1="37.2234" y1="47.037" x2="231.9734" y2="47.037" gradientTransform="matrix(-1 0 0 1 232.3185 0)">
			<stop  offset="0" style="stop-color:#CEC8ED"/>
			<stop  offset="1" style="stop-color:#FFFFFF"/>
		</linearGradient>
		<path class="st3" d="M0.3,62.8h10.2v9.1h0.7V43.8h6.8v28.1h0.7v-9.1h10.1l-0.5,9.1h0.7l1.3-24.5c0.1-2.3-0.8-4.5-2.5-5.7
			c-0.9-0.7-1.9-1.2-3-1.5L24.7,40h13l-0.2,0.1c-1.1,0.4-2.1,0.9-3,1.5c-1.7,1.2-2.7,3.4-2.5,5.7l1.3,24.5h0.7l-0.2-4.2h10.5v4.2
			h0.7V38h2.6l0.9,4h-2.1c-0.2,0-0.4,0.2-0.4,0.4s0.2,0.4,0.4,0.4h2.3c0,0,0,0,0,0l0.4,2h-2.8c-0.2,0-0.4,0.2-0.4,0.4
			c0,0.2,0.2,0.4,0.4,0.4h3l0.5,2.2h-3.5c-0.2,0-0.4,0.2-0.4,0.4c0,0.2,0.2,0.4,0.4,0.4h3.6L53,61.4h-4.9c-0.2,0-0.4,0.2-0.4,0.4
			s0.2,0.4,0.4,0.4h5.1l0.7,2.9h-5.1c-0.2,0-0.4,0.2-0.4,0.4c0,0.2,0.2,0.4,0.4,0.4h5.3l0.7,3.2h-5.1c-0.2,0-0.4,0.2-0.4,0.4
			c0,0.2,0.2,0.4,0.4,0.4H55l0.4,2h0.8l-1-4.3h3.1c0.2,0,0.3-0.1,0.4-0.4l1.2-9.6h1.4L61,60.8h-0.4c-0.2,0-0.4,0.2-0.4,0.4
			c0,0.2,0.2,0.4,0.4,0.4h0.3l-1.2,10.3h0.7l1.2-10.3h1.8l-1.2,10.3h0.7l1.2-10.3h2.2l-1.2,10.3H66l0.9-7.6h1.9l-0.9,7.6h0.7
			l0.9-7.6h1.7l-0.9,7.6h0.7l1.6-14.3h1.4l-1.3,10c0,0.1,0,0.2,0.1,0.3C73,68,73.1,68,73.2,68h3.4c0.2,0,0.4-0.2,0.4-0.4V38.9h5.9
			v25.3h3.8V45.5h2.6v20.4h4.9v-4.8h18.4v4.8h9.1V54.3c0-1.2,0.4-2.2,1.1-3.1c0.7-0.8,1.7-1.3,2.7-1.3c2.1,0,3.8,1.9,3.8,4.3v11.6
			h4.2V32.3h3.2V23h11.6v9.3h3.8v3.5h11.1v30.1h12.2v-17l6.4-7.2l6.4,7.2v17.1h6.1V70h0.7v-4.9H189V48.5l-7.1-8l-7.1,8v16.6H164V35
			h-11.1v-3.5h-3.8v-9.3h-13.1v9.3h-3.2v33.6h-2.7V54.3c0-2.8-2-5.1-4.6-5.1c-1.2,0-2.4,0.5-3.2,1.5c-0.9,1-1.3,2.3-1.3,3.6v10.8
			h-7.7v-4.8H93.5v4.8H90V44.7h-4v18.6h-2.4V38h-3.2V27.7c0-0.2-0.2-0.4-0.4-0.4c-0.2,0-0.4,0.2-0.4,0.4V38h-3.4v29.2h-2.7l1.3-10
			c0-0.1,0-0.2-0.1-0.3c-0.1-0.1-0.2-0.1-0.3-0.1h-15c-0.2,0-0.3,0.2-0.4,0.4L58,66.7h-3l-6.7-29.2c0-0.2-0.2-0.3-0.4-0.3h-3.3
			c-0.2,0-0.4,0.2-0.4,0.4v29.3H33.8l-1.1-19.5c-0.1-2,0.7-3.9,2.2-5c0.8-0.6,1.8-1.1,2.8-1.4l2.6-0.9c0,0,0,0,0,0c0,0,0,0,0.1,0
			c0,0,0,0,0.1,0c0,0,0,0,0-0.1c0,0,0,0,0-0.1c0,0,0,0,0-0.1c0,0,0,0,0-0.1c0,0,0,0,0,0c0,0,0,0,0-0.1c0,0,0,0,0-0.1c0,0,0,0,0,0
			c0,0,0,0,0-0.1c0,0,0,0,0-0.1c0,0,0,0,0-0.1c0,0,0,0,0-0.1c0,0,0,0-0.1,0c0,0,0,0-0.1,0c0,0,0,0,0,0l-2.6-0.9
			c-3.6-1.2-6-4-6.2-7.2c0-0.2-0.2-0.4-0.4-0.4c-0.2,0-0.4,0.2-0.4,0.4c-0.1,3.2-2.6,6-6.2,7.2l-2.6,0.9c0,0,0,0,0,0c0,0,0,0-0.1,0
			c0,0,0,0-0.1,0c0,0,0,0,0,0.1c0,0,0,0,0,0.1c0,0,0,0,0,0.1c0,0,0,0,0,0.1c0,0,0,0,0,0c0,0,0,0,0,0.1c0,0,0,0,0,0.1c0,0,0,0,0,0
			c0,0,0,0.1,0,0.1c0,0,0,0,0,0.1c0,0,0,0,0,0.1c0,0,0,0,0,0.1c0,0,0,0,0.1,0c0,0,0,0,0.1,0c0,0,0,0,0,0l2.6,0.9
			c1,0.3,2,0.8,2.8,1.4c1.5,1.1,2.3,3,2.2,5L28.9,62H18.8V43.4c0-0.2-0.2-0.4-0.4-0.4h-7.5c-0.2,0-0.4,0.2-0.4,0.4V62H0.3V62.8z
			 M71.6,60.8h-1.7l0.4-3.2H72L71.6,60.8z M69.6,63.4l0.2-1.9h1.7l-0.2,1.9H69.6z M69.2,60.8h-1.9l0.4-3.2h1.9L69.2,60.8z
			 M66.9,63.4l0.2-1.9h1.9l-0.2,1.9H66.9z M64.3,60.8l0.4-3.2h2.2l-0.4,3.2H64.3z M61.7,60.8l0.4-3.2h1.8l-0.4,3.2H61.7z M24.7,39.2
			l0.2-0.1c3.1-1,5.5-3.3,6.3-6c0.9,2.7,3.2,4.9,6.3,6l0.2,0.1H24.7z"/>
		
			<linearGradient id="SVGID_5_" gradientUnits="userSpaceOnUse" x1="47.1382" y1="61.2925" x2="47.8674" y2="61.2925" gradientTransform="matrix(-1 0 0 1 232.3185 0)">
			<stop  offset="0" style="stop-color:#CEC8ED"/>
			<stop  offset="1" style="stop-color:#FFFFFF"/>
		</linearGradient>
		<path class="st4" d="M184.8,50.7c0.2,0,0.4,0.2,0.4,0.4v20.7h-0.7V51.1C184.5,50.9,184.6,50.7,184.8,50.7z"/>
	</g>
	<g>
		
			<linearGradient id="SVGID_6_" gradientUnits="userSpaceOnUse" x1="138.1425" y1="90.2873" x2="138.5101" y2="90.2873" gradientTransform="matrix(-1 0 0 1 232.3185 0)">
			<stop  offset="0" style="stop-color:#CEC8ED"/>
			<stop  offset="1" style="stop-color:#FFFFFF"/>
		</linearGradient>
		<rect x="93.8" y="89.3" class="st5" width="0.4" height="2"/>
	</g>
	<g>
		
			<linearGradient id="SVGID_7_" gradientUnits="userSpaceOnUse" x1="138.1425" y1="83.7763" x2="138.5101" y2="83.7763" gradientTransform="matrix(-1 0 0 1 232.3185 0)">
			<stop  offset="0" style="stop-color:#CEC8ED"/>
			<stop  offset="1" style="stop-color:#FFFFFF"/>
		</linearGradient>
		<rect x="93.8" y="82.8" class="st6" width="0.4" height="2"/>
	</g>
	<g>
		
			<linearGradient id="SVGID_8_" gradientUnits="userSpaceOnUse" x1="138.1425" y1="87.0487" x2="138.5101" y2="87.0487" gradientTransform="matrix(-1 0 0 1 232.3185 0)">
			<stop  offset="0" style="stop-color:#CEC8ED"/>
			<stop  offset="1" style="stop-color:#FFFFFF"/>
		</linearGradient>
		<rect x="93.8" y="86" class="st7" width="0.4" height="2"/>
	</g>
</g>
<linearGradient id="SVGID_9_" gradientUnits="userSpaceOnUse" x1="78.9175" y1="110.268" x2="231.4402" y2="110.268" gradientTransform="matrix(1 0 0 1 -62.0392 0)">
	<stop  offset="2.407500e-02" style="stop-color:#7766CC"/>
	<stop  offset="0.1837" style="stop-color:#8E80D5"/>
	<stop  offset="1" style="stop-color:#CEC8ED"/>
</linearGradient>
<path class="st8" d="M24.9,119.3c0,0-1.3-4.6-1.2-6.2c0.5-8,9.8-30.3,9.8-30.3s-1.4-1-1.5-1.5c-0.1-0.3,0.9-1.5,0.9-1.5
	s35.5-11.7,62.2-4.6c26.7,7.2,37.3,25.4,37.3,25.4s22.6,3.9,26.6,7.8c3.9,3.9,2,11.4,2,11.4s5,4,7.3,11.8c1.9,6.7,1.2,12-0.7,13.9
	c-2,2-8.5,2-8.5,2H46.6c0,0-25.4-1.1-27.6-3.3c-2.1-2.1-3.5-11.7,0-18.3C21.4,121.5,24.9,119.3,24.9,119.3z"/>
<path class="st9" d="M21.6,141.4c0-9.8,8-17.8,17.8-17.8c9.8,0,17.8,8,17.8,17.8c0,9.8-8,17.8-17.8,17.8
	C29.6,159.2,21.6,151.3,21.6,141.4z"/>
<path class="st10" d="M27,141.4c0-6.8,5.5-12.4,12.4-12.4c6.8,0,12.4,5.5,12.4,12.4c0,6.8-5.5,12.4-12.4,12.4
	C32.6,153.8,27,148.3,27,141.4z"/>
<path class="st9" d="M127.2,141.4c0-9.8,8-17.8,17.8-17.8c9.8,0,17.8,8,17.8,17.8c0,9.8-8,17.8-17.8,17.8
	C135.2,159.2,127.2,151.3,127.2,141.4z"/>
<path class="st10" d="M132.7,141.4c0-6.8,5.5-12.4,12.4-12.4s12.4,5.5,12.4,12.4c0,6.8-5.5,12.4-12.4,12.4S132.7,148.3,132.7,141.4z
	"/>
<linearGradient id="SVGID_10_" gradientUnits="userSpaceOnUse" x1="113.8118" y1="91.0643" x2="193.3779" y2="91.0643" gradientTransform="matrix(1 0 0 1 -62.0392 0)">
	<stop  offset="0" style="stop-color:#CEC8ED"/>
	<stop  offset="1" style="stop-color:#FFFFFF"/>
</linearGradient>
<path class="st11" d="M51.8,97.9l79.6,6.8c0,0-13.4-15.7-32.3-23.3c-13.9-5.6-27.4-4.3-33.9-2.4C50.9,83.1,51.8,97.9,51.8,97.9z"/>
<linearGradient id="SVGID_11_" gradientUnits="userSpaceOnUse" x1="212.4764" y1="113.0395" x2="222.0962" y2="113.0395" gradientTransform="matrix(1 0 0 1 -62.0392 0)">
	<stop  offset="0" style="stop-color:#CEC8ED"/>
	<stop  offset="1" style="stop-color:#FFFFFF"/>
</linearGradient>
<path class="st12" d="M150.8,109.5c-0.3-0.4-0.5-0.9-0.3-1.4c0.3-0.6,1.1-0.6,1.7-0.5c2.2,0.2,4.5,0.8,6,2.5c1.7,2,2.2,8,1.5,8.5
	c-0.5,0.4-2.8-1.9-3.3-2.3C154.3,114.3,152.4,112,150.8,109.5z"/>
<linearGradient id="SVGID_12_" gradientUnits="userSpaceOnUse" x1="89.0422" y1="109.2553" x2="98.5732" y2="109.2553" gradientTransform="matrix(1 0 0 1 -62.0392 0)">
	<stop  offset="2.407500e-02" style="stop-color:#7766CC"/>
	<stop  offset="0.1837" style="stop-color:#8E80D5"/>
	<stop  offset="1" style="stop-color:#CEC8ED"/>
</linearGradient>
<path class="st13" d="M28.6,118.1c-1.1-0.8-1.8-4.2-1.5-5.9c0,0,2-10.9,3.4-11.9c3.3-2.2,6.1,9.3,6.1,13.8
	C36.5,115.8,30.8,119.8,28.6,118.1z"/>
<path class="st10" d="M50.7,119.6c3.4,1.8,6.5,4.4,8.7,7.7c2.2,3.3,3.6,7.1,4.4,11l-0.8-0.7l14,0.6c4.7,0.2,9.3,0.6,14,0.9
	c9.3,0.6,18.6,1.4,28,2.4c-9.4,0-18.7-0.2-28-0.7c-4.7-0.2-9.3-0.4-14-0.7l-14-0.9l-0.7,0l-0.1-0.7c-0.5-3.7-1.6-7.4-3.6-10.7
	C56.7,124.5,54,121.8,50.7,119.6z"/>
<path class="st10" d="M124.3,139c0,0,0-0.2,0-0.7c0-0.5-0.1-1.1,0-2c0-0.9,0.2-1.9,0.5-3.1c0.3-1.2,0.7-2.5,1.4-3.9
	c1.3-2.7,3.5-5.6,6.7-7.8c3.2-2.1,7.2-3.4,11.3-3.5c4.1,0,8.2,1.4,11.3,3.5c3.2,2.1,5.4,5.1,6.7,7.8c0.7,1.4,1.1,2.7,1.4,3.9
	c0.3,1.2,0.4,2.2,0.5,3.1c0.1,0.9,0,1.5,0,2c0,0.5,0,0.7,0,0.7s-0.1-1-0.4-2.7c-0.3-1.7-1.1-4-2.5-6.5c-1.4-2.5-3.7-5-6.7-6.9
	c-3-1.9-6.6-3-10.4-3c-3.7,0-7.5,1.1-10.4,3c-3,1.9-5.3,4.4-6.7,6.9c-1.4,2.5-2.2,4.8-2.5,6.5C124.4,138,124.3,139,124.3,139z"/>
<path class="st10" d="M39.4,100.8c0,0,6.6,0.3,16.6,0.9c5,0.3,10.7,0.7,16.9,1.2c6.2,0.5,12.8,1,19.4,1.6c6.6,0.6,13.2,1.2,19.4,1.8
	c6.2,0.6,11.9,1.3,16.9,1.8c9.9,1.1,16.5,2,16.5,2s-6.6-0.3-16.6-0.9c-5-0.3-10.7-0.7-16.9-1.2c-6.2-0.5-12.8-1-19.4-1.6
	c-6.6-0.6-13.2-1.2-19.4-1.8c-6.2-0.6-11.9-1.3-16.9-1.8C46,101.7,39.4,100.8,39.4,100.8z"/>
<linearGradient id="SVGID_13_" gradientUnits="userSpaceOnUse" x1="161.9987" y1="47.037" x2="171.493" y2="47.037" gradientTransform="matrix(-1 0 0 1 232.3185 0)">
	<stop  offset="0" style="stop-color:#CEC8ED"/>
	<stop  offset="1" style="stop-color:#FFFFFF"/>
</linearGradient>
<path class="st14" d="M60.8,44.7c0-2.6,2.1-4.7,4.7-4.7c2.6,0,4.7,2.1,4.7,4.7c0,0.9-0.2,1.7-0.7,2.4l0,0l-2,3.4l-2.1,3.7l-2.1-3.7
	l-2-3.5C61.1,46.3,60.8,45.5,60.8,44.7z"/>
<path class="st10" d="M62.9,45.2c0,1.5,1.2,2.7,2.7,2.7s2.7-1.2,2.7-2.7c0-1.5-1.2-2.7-2.7-2.7S62.9,43.7,62.9,45.2z"/>
<linearGradient id="SVGID_14_" gradientUnits="userSpaceOnUse" x1="83.8465" y1="10.2883" x2="96.2234" y2="10.2883" gradientTransform="matrix(-1 0 0 1 232.3185 0)">
	<stop  offset="0" style="stop-color:#CEC8ED"/>
	<stop  offset="1" style="stop-color:#FFFFFF"/>
</linearGradient>
<path class="st15" d="M136.1,7.2c0-3.4,2.8-6.2,6.2-6.2c3.4,0,6.2,2.8,6.2,6.2c0,1.1-0.3,2.2-0.8,3.1l0,0l-2.6,4.5l-2.8,4.8
	l-2.8-4.8l-2.6-4.6C136.4,9.3,136.1,8.3,136.1,7.2z"/>
<path class="st10" d="M138.7,7.9c0,2,1.6,3.5,3.5,3.5c2,0,3.5-1.6,3.5-3.5s-1.6-3.5-3.5-3.5C140.3,4.3,138.7,5.9,138.7,7.9z"/>
<g>
	
		<linearGradient id="SVGID_15_" gradientUnits="userSpaceOnUse" x1="58.7516" y1="78.5773" x2="71.5917" y2="78.5773" gradientTransform="matrix(-1 0 0 1 232.3185 0)">
		<stop  offset="0" style="stop-color:#CEC8ED"/>
		<stop  offset="1" style="stop-color:#FFFFFF"/>
	</linearGradient>
	<path class="st16" d="M163.6,81.5c0.7,0,1.4,0.3,1.8,0.8l3.6-3c-0.2-0.4-0.4-0.8-0.4-1.2c0-0.3,0.1-0.6,0.2-0.9l-3.8-2.4
		c-0.5,0.5-1.1,0.8-1.8,0.8c-1.4,0-2.5-1.1-2.5-2.5c0-1.4,1.1-2.5,2.5-2.5c1.4,0,2.5,1.1,2.5,2.5c0,0.3-0.1,0.6-0.2,0.9l3.8,2.4
		c0.5-0.5,1.1-0.8,1.8-0.8c1.4,0,2.5,1.1,2.5,2.5c0,1.4-1.1,2.5-2.5,2.5c-0.6,0-1.1-0.2-1.6-0.6l-3.7,3c0.1,0.3,0.2,0.6,0.2,0.9
		c0,1.4-1.1,2.5-2.5,2.5c-1.4,0-2.5-1.1-2.5-2.5C161.1,82.6,162.2,81.5,163.6,81.5z"/>
</g>
<g>
	
		<linearGradient id="SVGID_16_" gradientUnits="userSpaceOnUse" x1="34.0195" y1="82.3289" x2="47.854" y2="82.3289" gradientTransform="matrix(-1 0 0 1 232.3185 0)">
		<stop  offset="2.407530e-02" style="stop-color:#7766CC"/>
		<stop  offset="0.1837" style="stop-color:#8E80D5"/>
		<stop  offset="1" style="stop-color:#CEC8ED"/>
	</linearGradient>
	<path class="st17" d="M192.8,80.8c-1.7-0.6-3.2-1.6-4.9-2.3c-0.8-0.3-1.7-0.5-2.5-0.2c-0.9,0.4-1.2,1.5-0.9,2.4
		c0.3,0.9,1.1,1.5,1.8,2.2c1.2,1,2.4,2,3.8,2.7c1.4,0.7,3.2,1.1,4.8,0.6c1.3-0.3,3.6-3.1,3.3-4.2c-0.2-0.7-1.2-0.8-1.9-0.8
		C195.1,81.2,194,81.2,192.8,80.8z"/>
	<path class="st18" d="M209.4,101.1l3.4,17.6c1.4,3.9,3.8,7.4,7,10l8,6.5c-0.3,0.6-0.6,1.3-0.6,2.2c0,1.1,0.3,2.2,0,3.2
		c-0.1,0.3-0.3,0.8-0.6,1.2l-13.7-10.6c-2.7-2.1-4.9-4.7-6.4-7.8l-7.4-14.8L209.4,101.1z"/>
	<path class="st19" d="M198.9,69.2c0.1-1.6-1.5-4.1-3.2-3.8c-0.9,0.1-1.7,0.7-2.6,0.1c-0.7-0.5-0.9-1.4-1-2.2
		c-0.1-1.1,0.2-2.2-0.2-3.1c-0.1-0.3-0.3-0.6-0.4-1s0-0.8,0.3-0.9c0.3-0.2,0.7,0,1-0.1c0.7-0.2,0.7-2.1,0.8-2.8
		c0.9-4.5,6.2-2.2,7.2,0.3c0.8,1.8,1.6,4.6,1.1,7.1c-0.1,0.7,1,3.5,1.9,4.2c0.5,0.4,1.1,0.9,1.2,1.5C203.1,68.8,201,69,198.9,69.2z"
		/>
	<path class="st19" d="M182.8,140.1l-3.5-1l2.2-16.5c0.4-2.7,1.2-5.2,2.4-7.6l8.3-16.3l16.4,3.4l-14.5,13.3c-3.6,3-6.3,7.1-7.6,11.6
		L182.8,140.1z"/>
	<path class="st20" d="M179,140.5c-0.8-0.5-1.3-1.4-1.8-2.1c-0.6-0.8-1.3-1.5-2.3-1.5c-1.2,0-2.2,1.2-2.2,2.5c0.1,1.2,0.9,2.3,1.9,3
		c1,0.7,2.2,1.1,3.4,1.5c0.8,0.3,2,0.8,2.8,0.9c0.8,0.1,1.8-0.4,2.2-1.1C184.2,141.1,180.1,141.1,179,140.5z"/>
	<path class="st20" d="M228.5,140.8c-0.1,0.9-0.8,1.7-1.2,2.5c-0.5,0.8-0.9,1.8-0.5,2.7c0.4,1.2,2,1.6,3.1,1.1
		c1.1-0.5,1.8-1.7,2-2.9c0.2-1.2,0.1-2.5,0.1-3.7c0-0.8,0-1.6-0.3-2.4c-0.2-0.8-1.1-2.1-1.9-2.1
		C227.1,135.7,228.7,139.5,228.5,140.8z"/>
	
		<linearGradient id="SVGID_17_" gradientUnits="userSpaceOnUse" x1="29.0276" y1="57.0219" x2="42.3718" y2="57.0219" gradientTransform="matrix(-1.0729 -4.200000e-03 4.200000e-03 1.0336 237.3521 -3.4196)">
		<stop  offset="2.407530e-02" style="stop-color:#7766CC"/>
		<stop  offset="0.1837" style="stop-color:#8E80D5"/>
		<stop  offset="1" style="stop-color:#CEC8ED"/>
	</linearGradient>
	<path class="st21" d="M201.6,60.8c0.1-1,0.2-2.2-0.6-3c-0.6-0.6-1.7-0.8-2.1-1.6c-0.3-0.5-0.2-1.1-0.5-1.7c-0.5-1-2-1-3.1-1.2
		c-1.4-0.2-2.7-1.1-3.1-2.4c-0.4-1.3,0.5-2.9,1.9-3c0.9-0.1,1.7,0.4,2.5,0.7c1.3,0.4,2.6,0.4,3.9,0.6c1.3,0.2,2.7,0.8,3.3,1.9
		c0.5,1,0.3,2.2,0.7,3.3c0.5,1,1.6,1.7,1.9,2.8c0.3,1.2-0.5,2.4-1.4,3.3c-0.6,0.5-1.8,2-2.5,2.2C201.4,63,201.6,61.5,201.6,60.8z"/>
	<path class="st20" d="M195.1,81.8c0.5-2.2-0.1-4-0.4-6.1c-0.5-3.6-0.5-7.4,2.6-8c3.1-0.6,4.3-1.1,7.4-0.6
		c4.5,0.7,7.1,11.6,6.7,13.2c-0.4,1.6-1.1,9.8,0.7,13.7c1.1,2.5,3.5,7.1,0,8.5c-4.3,1.8-9.9,1.4-16.1-1.1c-1.7-0.7-3.5-1.9-4.5-3.3
		C188.2,93.4,194.4,84.9,195.1,81.8z"/>
	
		<linearGradient id="SVGID_18_" gradientUnits="userSpaceOnUse" x1="10.2998" y1="82.5171" x2="35.774" y2="82.5171" gradientTransform="matrix(-1 0 0 1 232.3185 0)">
		<stop  offset="2.407530e-02" style="stop-color:#7766CC"/>
		<stop  offset="0.1837" style="stop-color:#8E80D5"/>
		<stop  offset="1" style="stop-color:#CEC8ED"/>
	</linearGradient>
	<path class="st22" d="M197.1,71c1.5-2.1,4.3-0.5,5.5,0.7c1.6,1.6,5.3,3,9.1,5.3c8.1,4.8,10.8,17.2,7.8,17.9
		c-1.3,0.3-2.9-0.1-3.3-1.6c-0.6-2.3-0.6-4.4-1.9-6.4c-1.4-2.1-3.5-4.5-5.8-5.5c-3.7-1.7-10.4-4.9-11.9-7.7
		C196.3,72.9,196.6,71.8,197.1,71z"/>
	<path class="st19" d="M223.6,103.5c0.1,0.3,0.2,0.6,0.1,0.9c-0.2,0.4-0.8,0.5-1.2,0.5c-1.6-0.2-2.9-1.4-3.3-3
		c-0.1-0.5-0.2-0.9-0.3-1.4c-0.1-0.4-0.4-0.9-0.8-1.1c-0.4-0.2-1-0.1-1.2,0.3c-0.1,0.2-0.7,0.3-0.9-0.1c-0.4-1-0.1-3.8,1-3.9
		c1.1-0.1,3,0.1,3,0.1S223.1,102.1,223.6,103.5z"/>
	<path class="st19" d="M184.9,76.5c-0.5-1.2-2.6-4.2-3.3-3.1c-0.4,0.6,1.2,1.2,0.9,1.8c-0.6,1-2.3-0.4-3.2-1.1
		c-0.6-0.5-1.2-1.2-1.9-1.1c-0.6,0.1-1,0.7-1,1.3c0,0.6,0.3,1.2,0.8,1.6c0.4,0.4,1.7,1.5,2.2,1.8c0.9,0.6,2.4,1.6,3.9,1.6
		C184.7,79.3,185.3,77.4,184.9,76.5z"/>
</g>
<g>
	
		<linearGradient id="SVGID_19_" gradientUnits="userSpaceOnUse" x1="50.0703" y1="79.4813" x2="56.3828" y2="70.2939" gradientTransform="matrix(-1 0 0 1 232.3185 0)">
		<stop  offset="2.407530e-02" style="stop-color:#7766CC"/>
		<stop  offset="1" style="stop-color:#8E80D5"/>
	</linearGradient>
	<path class="st23" d="M180.9,79.8l2-1.3c0.5-0.3,0.6-1,0.3-1.5l-4.1-6.3c-0.3-0.5-1-0.6-1.5-0.3l-2,1.3c-0.5,0.3-0.6,1-0.3,1.5
		l4.1,6.3C179.7,80,180.4,80.1,180.9,79.8z"/>
	<path class="st24" d="M180.7,79.3l1.8-1.1c0.4-0.3,0.6-0.9,0.3-1.3l-3.6-5.6c-0.3-0.4-0.9-0.6-1.3-0.3l-1.8,1.1
		c-0.4,0.3-0.6,0.9-0.3,1.3l3.6,5.6C179.7,79.4,180.2,79.5,180.7,79.3z"/>
</g>
</svg>
