<svg xmlns="http://www.w3.org/2000/svg" viewBox="0 0 80 80"><defs><style>.cls-1{fill:#cceafd;}.cls-2{fill:#0095f7;}</style></defs><title>ser3Ресурс 1</title><g id="Слой_2" data-name="Слой 2"><g id="Layer_1" data-name="Layer 1"><path id="a" class="cls-1" d="M22.78,1.08a137.9,137.9,0,0,1,34.45,0,25,25,0,0,1,21.69,21.7,137.9,137.9,0,0,1,0,34.45,25,25,0,0,1-21.7,21.69A137.63,137.63,0,0,1,40,80a138.23,138.23,0,0,1-17.22-1.08A25,25,0,0,1,1.08,57.23a137.9,137.9,0,0,1,0-34.45,25,25,0,0,1,21.7-21.7Z"/><g id="Site-Mockup"><g id="_4-Value-Props" data-name="4-Value-Props"><g id="Group-15"><g id="Group-13"><g id="Visitor-Trust"><g id="Trust"><polygon id="Path" class="cls-2" points="33.88 59.4 15.5 41.58 23.08 33.99 33.88 44.22 56.92 20.61 64.5 28.19 33.88 59.4"/></g></g></g></g></g></g></g></g></svg>