<svg xmlns="http://www.w3.org/2000/svg" viewBox="0 0 80 80"><defs><style>.cls-1{opacity:0.1;}.cls-2,.cls-3{fill:#0095f7;}.cls-3{fill-opacity:0.26;}</style></defs><title>ser5Ресурс 1</title><g id="Слой_2" data-name="Слой 2"><g id="Layer_1" data-name="Layer 1"><g class="cls-1"><path id="a" class="cls-2" d="M22.78,1.08a137.9,137.9,0,0,1,34.45,0,25,25,0,0,1,21.69,21.7,137.9,137.9,0,0,1,0,34.45,25,25,0,0,1-21.7,21.69A137.63,137.63,0,0,1,40,80a138.23,138.23,0,0,1-17.22-1.08A25,25,0,0,1,1.08,57.23a137.9,137.9,0,0,1,0-34.45,25,25,0,0,1,21.7-21.7Z"/></g><path id="Rectangle-2" class="cls-3" d="M18.5,27.44h43a13,13,0,0,1,13,13h0a13,13,0,0,1-13,13.05h-43a13,13,0,0,1-13-13.05h0A13,13,0,0,1,18.5,27.44Z"/><g id="Group-4"><path id="Rectangle-2-2" data-name="Rectangle-2" class="cls-3" d="M34.2,35.65H60.77A2.19,2.19,0,0,1,63,37.83h0A2.18,2.18,0,0,1,60.77,40H34.2A2.17,2.17,0,0,1,32,37.83h0A2.18,2.18,0,0,1,34.2,35.65Z"/><path id="Rectangle-2-3" data-name="Rectangle-2" class="cls-3" d="M34.2,41.45h15a2.17,2.17,0,0,1,2.17,2.17h0a2.17,2.17,0,0,1-2.17,2.18h-15A2.17,2.17,0,0,1,32,43.62h0A2.17,2.17,0,0,1,34.2,41.45Z"/></g><circle id="Oval-4" class="cls-2" cx="18.5" cy="40.48" r="8.7"/></g></g></svg>