<svg xmlns="http://www.w3.org/2000/svg" viewBox="0 0 80 80"><defs><style>.cls-1{fill:#e0edff;}.cls-2{fill:#6363b7;}</style></defs><title>ser1Ресурс 1</title><g id="Слой_2" data-name="Слой 2"><g id="Layer_1" data-name="Layer 1"><path class="cls-1" d="M78.92,22.78A25,25,0,0,0,57.23,1.08a137.9,137.9,0,0,0-34.45,0h0a25,25,0,0,0-21.7,21.7A138.23,138.23,0,0,0,0,40c0,2,.06,4.07.15,6.1,0,0,.74,9.63.93,11.13A25,25,0,0,0,6.44,69.8L10,73.37a25,25,0,0,0,12.83,5.55c1.36.17,2.73.32,4.1.45l6.61.46c2.17.1,4.34.17,6.51.17a137.63,137.63,0,0,0,17.22-1.08,25,25,0,0,0,21.7-21.69A137.9,137.9,0,0,0,78.92,22.78Z"/><path class="cls-2" d="M50.3,27h-17a2.5,2.5,0,0,0,0,5H44.26L6.44,69.8A25.75,25.75,0,0,0,10,73.37L47.8,35.52V46.46a2.5,2.5,0,0,0,5,0v-17A2.5,2.5,0,0,0,50.3,27Z"/><path class="cls-2" d="M50.3,57h-17a2.5,2.5,0,0,0,0,5H44.26L26.88,79.37q3.3.31,6.61.46L47.8,65.52V76.46a2.5,2.5,0,0,0,5,0v-17A2.5,2.5,0,0,0,50.3,57Z"/><path class="cls-2" d="M17.8,46.46a2.5,2.5,0,0,0,5,0v-17A2.5,2.5,0,0,0,20.3,27h-17a2.5,2.5,0,0,0,0,5H14.26L.15,46.1c.1,2.21.24,4.42.44,6.62L17.8,35.52Z"/></g></g></svg>