<svg xmlns="http://www.w3.org/2000/svg" viewBox="0 0 80 80"><defs><style>.cls-1{opacity:0.2;}.cls-2{fill:#f8e71c;}.cls-3{fill:#ffca28;}</style></defs><title>ser8Ресурс 1</title><g id="Слой_2" data-name="Слой 2"><g id="Layer_1" data-name="Layer 1"><g class="cls-1"><path id="a" class="cls-2" d="M22.78,1.08a137.9,137.9,0,0,1,34.45,0,25,25,0,0,1,21.69,21.7,137.9,137.9,0,0,1,0,34.45,25,25,0,0,1-21.7,21.69A137.63,137.63,0,0,1,40,80a138.23,138.23,0,0,1-17.22-1.08A25,25,0,0,1,1.08,57.23a137.9,137.9,0,0,1,0-34.45,25,25,0,0,1,21.7-21.7Z"/></g><path id="Shape" class="cls-3" d="M42.81,13c1.72-2.78,5.57-.63,4.63,2.59L41.75,34H52.19c2.16,0,3.39,2.78,2.08,4.72L34.84,67.29C33,70,29.26,67.66,30.31,64.5l6.2-19.19h-8.7c-2.1,0-3.35-2.66-2.15-4.6L42.83,13Z"/></g></g></svg>