<svg xmlns="http://www.w3.org/2000/svg" viewBox="0 0 80 80"><defs><style>.cls-1{fill:#f3efff;}.cls-2{fill:#c8b7ff;}</style></defs><title>ser7Ресурс 1</title><g id="Слой_2" data-name="Слой 2"><g id="Layer_1" data-name="Layer 1"><path id="a" class="cls-1" d="M22.78,1.08a137.9,137.9,0,0,1,34.45,0,25,25,0,0,1,21.69,21.7,137.9,137.9,0,0,1,0,34.45,25,25,0,0,1-21.7,21.69A137.63,137.63,0,0,1,40,80a138.23,138.23,0,0,1-17.22-1.08A25,25,0,0,1,1.08,57.23a137.9,137.9,0,0,1,0-34.45,25,25,0,0,1,21.7-21.7Z"/><path id="Path" class="cls-2" d="M62.75,43.27a.68.68,0,0,1,0,1.34c-6.88,1.31-21.81,4-23.62,4a4.69,4.69,0,0,1-4.7-4.69c0-1.85,2.78-19.65,4.06-26.86a.63.63,0,0,1,1.24.05l3.55,22.5Z"/></g></g></svg>