<svg xmlns="http://www.w3.org/2000/svg" viewBox="0 0 80 80"><defs><style>.cls-1{fill:#e8f5e9;}.cls-2{fill:#a5d6a7;}.cls-3{fill:#66bb6a;}</style></defs><title>ser9Ресурс 1</title><g id="Слой_2" data-name="Слой 2"><g id="Layer_1" data-name="Layer 1"><path id="a" class="cls-1" d="M22.78,1.08a137.9,137.9,0,0,1,34.45,0,25,25,0,0,1,21.69,21.7,137.9,137.9,0,0,1,0,34.45,25,25,0,0,1-21.7,21.69A137.63,137.63,0,0,1,40,80a138.23,138.23,0,0,1-17.22-1.08A25,25,0,0,1,1.08,57.23a137.9,137.9,0,0,1,0-34.45,25,25,0,0,1,21.7-21.7Z"/><circle id="Oval" class="cls-2" cx="40" cy="27.34" r="8.56"/><rect id="Rectangle" class="cls-3" x="27.16" y="39.11" width="25.68" height="22.11" rx="4.99" ry="4.99"/></g></g></svg>