<svg xmlns="http://www.w3.org/2000/svg" viewBox="0 0 80 80"><defs><style>.cls-1{fill:#fbe9e7;}.cls-2{fill:#fff;}.cls-3{fill:#ff7043;}</style></defs><title>ser4Ресурс 1</title><g id="Слой_2" data-name="Слой 2"><g id="Layer_1" data-name="Layer 1"><path id="a" class="cls-1" d="M22.78,1.08a137.9,137.9,0,0,1,34.45,0,25,25,0,0,1,21.69,21.7,137.9,137.9,0,0,1,0,34.45,25,25,0,0,1-21.7,21.69A137.63,137.63,0,0,1,40,80a138.23,138.23,0,0,1-17.22-1.08A25,25,0,0,1,1.08,57.23a137.9,137.9,0,0,1,0-34.45,25,25,0,0,1,21.7-21.7Z"/><path class="cls-2" d="M40,10h0Z"/><path class="cls-3" d="M66.06,54.85A30,30,0,0,1,13.46,54c1-1.42,2.81-2.44,5.82-3.13,7.72-1.76,15.32-3.33,11.66-10-10.29-18.7-3.83-29.72,6.81-30.78q1-.09,2.07-.09h.38c11,.44,18.43,11.17,7.85,30.87-3.56,6.61,3.78,8.18,11.66,10C63.31,51.67,65.14,53,66.06,54.85Z"/></g></g></svg>