<svg xmlns="http://www.w3.org/2000/svg" viewBox="0 0 80 80"><defs><style>.cls-1{fill:#e8faf0;}.cls-2{fill:#27cf68;}</style></defs><title>ser2Ресурс 1</title><g id="Слой_2" data-name="Слой 2"><g id="Layer_1" data-name="Layer 1"><path id="a" class="cls-1" d="M22.78,1.08a137.9,137.9,0,0,1,34.45,0,25,25,0,0,1,21.69,21.7,137.9,137.9,0,0,1,0,34.45,25,25,0,0,1-21.7,21.69A137.63,137.63,0,0,1,40,80a138.23,138.23,0,0,1-17.22-1.08A25,25,0,0,1,1.08,57.23a137.9,137.9,0,0,1,0-34.45,25,25,0,0,1,21.7-21.7Z"/><g id="Site-Mockup"><g id="_4-Value-Props" data-name="4-Value-Props"><g id="Group-15"><g id="Group-13"><g id="Save-Acquitision"><g id="LowerCAC"><path id="Path" class="cls-2" d="M41.64,56.08V59.5H38.36V56.26A23,23,0,0,1,28.5,53.9L30,48.55c3.15,1.21,7.33,2.49,10.6,1.76,3.78-.85,4.55-4.69.38-6.54-3.06-1.41-12.42-2.61-12.42-10.54,0-4.43,3.42-8.39,9.81-9.26V20.5h3.28v3.31a30.42,30.42,0,0,1,8,1.37l-1.19,5.35a21.09,21.09,0,0,0-8-1.51c-4.89.28-5.32,4.47-1.91,6.22,5.63,2.62,13,4.56,13,11.53C51.51,52.35,47.09,55.33,41.64,56.08Z"/></g></g></g></g></g></g></g></g></svg>