<svg xmlns="http://www.w3.org/2000/svg" viewBox="0 0 80 80"><defs><style>.cls-1{fill:#fce4ec;}.cls-2{fill:#f8bbd0;}.cls-3{fill:#ec407a;}</style></defs><title>ser11Ресурс 1</title><g id="Слой_2" data-name="Слой 2"><g id="Layer_1" data-name="Layer 1"><path id="a" class="cls-1" d="M22.78,1.08a137.9,137.9,0,0,1,34.45,0,25,25,0,0,1,21.69,21.7,137.9,137.9,0,0,1,0,34.45,25,25,0,0,1-21.7,21.69A137.63,137.63,0,0,1,40,80a138.23,138.23,0,0,1-17.22-1.08A25,25,0,0,1,1.08,57.23a137.9,137.9,0,0,1,0-34.45,25,25,0,0,1,21.7-21.7Z"/><path id="Shape" class="cls-2" d="M54.25,19.07a4,4,0,0,0-4-4h-20a4,4,0,0,0-4,4V58.93a4,4,0,0,0,4,4h20a4,4,0,0,0,4-4Z"/><path id="Path" class="cls-3" d="M37.24,19.07h6a1,1,0,0,1,0,2h-6a1,1,0,0,1,0-2Z"/><path id="Path-2" data-name="Path" class="cls-3" d="M40.24,58.93a2,2,0,1,1,2-2A2,2,0,0,1,40.24,58.93Z"/><polygon id="Path-3" data-name="Path" class="cls-3" points="50.25 52.95 30.23 52.95 30.23 25 50.25 25 50.25 52.95"/></g></g></svg>