<svg xmlns="http://www.w3.org/2000/svg" viewBox="0 0 80 80"><defs><style>.cls-1{fill:#eceff1;}.cls-2,.cls-3{fill:none;stroke-linecap:square;stroke-width:6px;}.cls-2{stroke:#78909c;}.cls-3{stroke:#cfd8dc;}.cls-4{fill:#78909c;}.cls-5{fill:#cfd8dc;}</style></defs><title>ser10Ресурс 1</title><g id="Слой_2" data-name="Слой 2"><g id="Layer_1" data-name="Layer 1"><path id="a" class="cls-1" d="M22.78,1.08a137.9,137.9,0,0,1,34.45,0,25,25,0,0,1,21.69,21.7,137.9,137.9,0,0,1,0,34.45,25,25,0,0,1-21.7,21.69A137.63,137.63,0,0,1,40,80a138.23,138.23,0,0,1-17.22-1.08A25,25,0,0,1,1.08,57.23a137.9,137.9,0,0,1,0-34.45,25,25,0,0,1,21.7-21.7Z"/><path id="Line" class="cls-2" d="M46.35,47.06,54,54.67"/><path id="Line-2" data-name="Line" class="cls-2" d="M40.24,23.55V34.18"/><path id="Line-3" data-name="Line" class="cls-3" d="M34.13,47.06l-7.61,7.61"/><circle id="Oval-2" class="cls-4" cx="59.32" cy="60.03" r="5.07"/><circle id="Oval-2-2" data-name="Oval-2" class="cls-5" cx="21.16" cy="60.03" r="5.07"/><circle id="Oval-2-3" data-name="Oval-2" class="cls-4" cx="40" cy="15.58" r="5.07"/><circle id="Oval-2-4" data-name="Oval-2" class="cls-4" cx="40" cy="41.67" r="5.07"/></g></g></svg>