<svg xmlns="http://www.w3.org/2000/svg" viewBox="0 0 80 80"><defs><style>.cls-1{fill:#b2dfdb;}.cls-2{fill:#26a69a;}</style></defs><title>ser12Ресурс 1</title><g id="Слой_2" data-name="Слой 2"><g id="Layer_1" data-name="Layer 1"><path id="a" class="cls-1" d="M22.78,1.08a137.9,137.9,0,0,1,34.45,0,25,25,0,0,1,21.69,21.7,137.9,137.9,0,0,1,0,34.45,25,25,0,0,1-21.7,21.69A137.63,137.63,0,0,1,40,80a138.23,138.23,0,0,1-17.22-1.08A25,25,0,0,1,1.08,57.23a137.9,137.9,0,0,1,0-34.45,25,25,0,0,1,21.7-21.7Z"/><path id="Path" class="cls-2" d="M26.51,43.22l10.88-5.39-11.15-9.5,3.45-1.71,18,6.09,8.62-4.27c2.27-1.14,6-.83,6.88.89a2,2,0,0,1,.2.92c0,1.76-1.77,4.14-3.66,5.09l-8.62,4.27-6.09,18-3.45,1.71L40.8,44.73,29.93,50.12l-2.25,5.4-2.41,1.19-.84-8.17-6-5.62,2.41-1.19,5.66,1.49Z"/></g></g></svg>