<svg xmlns="http://www.w3.org/2000/svg" viewBox="0 0 80 80"><defs><style>.cls-1{fill:#f3e5f5;}.cls-2{fill:#e1bee7;}.cls-3{fill:#ce93d8;}.cls-4{fill:#ab47bc;}</style></defs><title>ser6Ресурс 1</title><g id="Слой_2" data-name="Слой 2"><g id="Layer_1" data-name="Layer 1"><path id="a" class="cls-1" d="M22.78,1.08a137.9,137.9,0,0,1,34.45,0,25,25,0,0,1,21.69,21.7,137.9,137.9,0,0,1,0,34.45,25,25,0,0,1-21.7,21.69A137.63,137.63,0,0,1,40,80a138.23,138.23,0,0,1-17.22-1.08A25,25,0,0,1,1.08,57.23a137.9,137.9,0,0,1,0-34.45,25,25,0,0,1,21.7-21.7Z"/><polygon id="Rectangle-6" class="cls-2" points="15.14 59.54 27.7 64.68 27.7 23.88 15.14 18.75 15.14 59.54"/><polygon id="Rectangle-6-2" data-name="Rectangle-6" class="cls-2" points="40.26 59.54 52.82 64.68 52.82 23.88 40.26 18.75 40.26 59.54"/><polygon id="Rectangle-6-3" data-name="Rectangle-6" class="cls-3" points="40.26 59.54 27.7 64.68 27.7 23.88 40.26 18.75 40.26 59.54"/><polygon id="Rectangle-6-4" data-name="Rectangle-6" class="cls-3" points="65.38 59.54 52.82 64.68 52.82 23.88 65.38 18.75 65.38 59.54"/><path id="route" class="cls-4" d="M56.47,38l2.12-3.26,3.26,2.12.9-1.38-3.26-2.12,2.12-3.27-1.39-.9L58.1,32.44l-3.26-2.12-.9,1.38,3.26,2.12-2.12,3.26ZM40.14,53.47l-.62-1.57-2.6.72.35,1.63Zm-11.33-5.6,1.82-.39L30.11,45l-1.82.38Zm1.81,4.05,1.6-.94-1.28-2-1.74.71Zm-6.13-9.7.3-1.68-2.85-.08,0,1.71Zm3.18,2.06L29,43.13l-2.17-1.75-1.14,1.35ZM35,54.23l.61-1.58-2.46-.93-.81,1.54ZM45.56,38l-1.44-1-1.5,2.28,1.58.77ZM43.75,50l-1.51-.87-1.56,2,1.46,1.06Zm7.16-14,2.72-.58-.35-1.63-2.72.58Zm-1.74.29-.44-1.62L46,35.61l.71,1.55ZM42.75,48l1.81.05-.08-2.63-1.85.22Zm1-6.69-1.86.13L42.19,44,44,43.7Z"/></g></g></svg>