<svg xmlns="http://www.w3.org/2000/svg" viewBox="0 0 126.01 126.5"><defs><style>.cls-2{fill:#fff}.cls-3{fill:none}.cls-4{fill:#2b265e}.cls-6{fill:#e7e6e6}.cls-7{fill:#8c94c9}.cls-8{fill:#97d3f1}</style></defs><g id="Слой_2" data-name="Слой 2"><g id="Layer_1" data-name="Layer 1"><g id="Group_20190" data-name="Group 20190"><circle id="Ellipse_1261" data-name="Ellipse 1261" cx="63.29" cy="62.72" r="62.72" fill="#f0f1f8"/><path id="Path_26142" data-name="Path 26142" class="cls-2" d="M74.44 86.58C70.81 88.11 67.18 87.8 63 87.8H18.83c-2.41 0-5.57.56-7.8-.41a22.2 22.2 0 01-6.26-4.76c-3.63-4-2.25-11.08-2.25-16.06V21.7C2.52 15.88-1 1.5 8 1.5h56.48c2.32 0 7-1.06 8.58.85C75.88 5.66 75 10.49 75 14.65v43.84c0 5.48-.81 11.68.44 17a5.47 5.47 0 013.66-.06c.22.06 3.07 1.47 3.14 1a13.25 13.25 0 01-5.48 8.9 13.61 13.61 0 01-2.32 1.25z"/><path id="Path_26143" data-name="Path 26143" class="cls-3" d="M27.66 77.41c-.5 0-.47.65-.47.69a19 19 0 01-2 4.35 10.85 10.85 0 01-1.66 2.44c1.41.16 32.16 0 46.1.06a10.42 10.42 0 005.82-1.41 8.83 8.83 0 004.13-5.85h-2.17c-14.05-.04-44.55-.47-49.75-.28z"/><path id="Path_26144" data-name="Path 26144" class="cls-3" d="M88.53 113.29a17 17 0 0011.71 9h.22a17.3 17.3 0 01-11.93-9z"/><path id="Path_26145" data-name="Path 26145" class="cls-4" d="M115.08 87.08a20.8 20.8 0 00-17.47-2.16c-1.16.35-2 1-1.69 2.41.25 1.16 1.28 1.63 2.75 1.29.63-.16 1.26-.31 2.35-.6-.06 0-.09.07-.15.1a16.11 16.11 0 013.1-.28 17.41 17.41 0 11.26 34.81H104a17.92 17.92 0 01-3.51-.34h-.22a17 17 0 01-11.71-9 17.42 17.42 0 01-.91-14.06c0-.06 0-.15.06-.21.57-1.6.25-2.63-.87-3.07s-2.1.12-2.7 1.66A20.83 20.83 0 0083 108.88a21.28 21.28 0 1032.1-21.8z"/><path id="Path_26146" data-name="Path 26146" class="cls-4" d="M81.3 73.9h-5.14V28.18c0-2.19-.47-3.07-1.75-3.1s-1.91.88-1.91 3.1V73.9H25.72c-2.32 0-2.63.34-2.91 2.66-.79 6.23-6 9.61-12 8.27-4-.91-6.54-4.33-7-9-.12-1.28-.63-2.16-2-2.1S.1 74.87.14 76.09a13.1 13.1 0 0010.68 12.55 40.42 40.42 0 006.51.07H69c.88 0 1.79 0 2.66-.07 6.42-.43 11.9-6.13 11.93-12.36.02-1.73-.54-2.35-2.29-2.38zm-5.83 9.61a10.22 10.22 0 01-5.82 1.41c-13.93 0-44.68.09-46.09-.06a11 11 0 001.66-2.45 19.62 19.62 0 002-4.35s0-.66.47-.69c5.2-.18 35.7.25 49.76.25h2.19a8.75 8.75 0 01-4.14 5.89z"/><path id="Path_26147" data-name="Path 26147" class="cls-4" d="M.26 58.84c0 2.34.47 3.19 1.79 3.22s2-.84 2-3.22V7c0-2.47.41-3 2.5-3h63.1c2.16 0 2.85.72 2.88 2.94s0 4.39 0 6.58c0 1.28.5 2.16 1.91 2.13s1.75-.94 1.75-2.13V6.83c0-4.23-2.32-6.49-6.64-6.49h-31.5c-10.58 0-21.2 0-31.78.07a6.93 6.93 0 00-3.75 1.1C.73 2.66.26 4.63.26 6.73Q.3 32.8.26 58.84z"/><path id="Path_26148" data-name="Path 26148" class="cls-4" d="M59.6 55.36a3.16 3.16 0 001.66-.19c.56-.4 1.28-1.19 1.22-1.72s-.84-1.25-1.48-1.72c-.25-.22-.81-.06-1.22-.06H17.76c-.4 0-1-.13-1.22.09-.56.44-1.31 1.06-1.34 1.63a2.53 2.53 0 001.16 1.75 3.4 3.4 0 001.81.22z"/><path id="Path_26149" data-name="Path 26149" class="cls-4" d="M17.61 61.5c-1.66 0-2.6.75-2.48 1.94.16 1.47 1.16 1.78 2.48 1.78h23.48c1.32.07 2.32-.37 2.41-1.81.1-1.13-.84-1.88-2.38-1.88-7.89-.03-15.68-.03-23.51-.03z"/><path id="Path_26150" data-name="Path 26150" class="cls-4" d="M1.86 69.92a1.78 1.78 0 001.9-1.65 1 1 0 000-.17 1.81 1.81 0 00-1.72-1.9h-.15A1.74 1.74 0 000 67.78 2.25 2.25 0 000 68a1.71 1.71 0 001.5 1.88 2 2 0 00.36.04z"/><path id="Path_26151" data-name="Path 26151" class="cls-4" d="M74.22 18.57a1.72 1.72 0 00-1.9 1.51 1.61 1.61 0 000 .31 1.87 1.87 0 003.73.12 1.73 1.73 0 00-1.48-1.93 1.9 1.9 0 00-.35-.01z"/><path id="Path_26152" data-name="Path 26152" class="cls-4" d="M92.88 91c-.09-1.15-.69-1.91-1.84-1.91a1.87 1.87 0 00-.04 3.72 1.92 1.92 0 001.32-.44 2.75 2.75 0 00.56-1.37z"/><path id="Path_26153" data-name="Path 26153" class="cls-2" d="M96.7 108.06c1.41 1.28 2.88 2.57 4.39 3.76a1.86 1.86 0 002.61 0c.06-.07.12-.13.17-.2q4.38-5.4 8.65-10.9a1.8 1.8 0 00-.11-2.54 1.66 1.66 0 00-.3-.22 1.94 1.94 0 00-2.69.28 9 9 0 00-.79 1c-2.13 2.7-4.29 5.39-6.51 8.2-1-.84-1.88-1.6-2.79-2.31a2 2 0 00-2.75 2.87l.12.1z"/><path id="Path_26154" data-name="Path 26154" class="cls-2" d="M88.53 113.29a17.3 17.3 0 0011.93 9h.31a19.35 19.35 0 01.07-34.2 17.37 17.37 0 00-8.55 4.2 17.67 17.67 0 00-4.64 6.86 18.51 18.51 0 00.88 14.14z"/><path id="Path_26155" data-name="Path 26155" d="M100.81 122.27h-.32a18 18 0 003.51.35 17.41 17.41 0 000-34.82 16.94 16.94 0 00-3.1.28 19.32 19.32 0 00-.09 34.19zm-1.44-17.19c.87.72 1.75 1.48 2.78 2.32 2.26-2.82 4.39-5.51 6.52-8.2.25-.31.5-.66.78-1a1.93 1.93 0 012.69-.28 1.78 1.78 0 01.63 2.45 1.66 1.66 0 01-.22.3q-4.27 5.51-8.64 10.9a1.86 1.86 0 01-2.6.39 1.54 1.54 0 01-.19-.17c-1.5-1.19-3-2.47-4.38-3.75a2 2 0 012.55-3l.08.06z" fill="#6f36ff"/><path id="Path_26156" data-name="Path 26156" d="M88.53 113.29a18.17 18.17 0 01-.91-14.09 17.49 17.49 0 00.91 14.09z"/><path id="Path_26157" data-name="Path 26157" d="M92.29 92.31z"/><path id="Path_26158" data-name="Path 26158" class="cls-4" d="M61.63 24.24v-.82a1.66 1.66 0 00-1.19-1.78 1.61 1.61 0 00-1.94.81 9.86 9.86 0 01-3.44 2.94 47.53 47.53 0 01-8.3 3.61c-8.55 2.88-17.32 4.76-27.06 6.74-1 .22-2 .4-3.1.62l-1.84.38v.34c0 .19 0 .35-.06.5s-.05.5-.06.75v6.08c0 1.6.31 1.88 1.94 1.88h43.33c1.41 0 1.72-.35 1.75-1.79v-.4zm-2.38 1.1v18.4a25.48 25.48 0 01-4.94 0V28.59a23.23 23.23 0 004.94-3.26zm-7.61 4.44v14h-4.75c-.19-2-.19-10.34 0-12.25zm-7.39 2.57v11.46h-4.88V33.72l.81-.22c1.35-.37 2.73-.78 4.08-1.15zm-7.45 2.06v9.4H32v-8.27zm-7.48 1.72v7.7h-4.76c-.09-.81-.09-6 0-6.7zm-7.39 1.6v6.05H17v-4.39-.72z"/><path id="Path_26159" data-name="Path 26159" class="cls-4" d="M32 23.45c1-.87 2-1.75 3-2.63V19.7a2.46 2.46 0 012-2.32 2.28 2.28 0 012.57 1 2 2 0 002 1.22 8 8 0 011.19.22c1.54-1.5 1.91-1.6 3.88-.94 1.1-.84 2.23-1.72 3.48-2.69-.12-1.38 0-2.79 1.6-3.32a2.48 2.48 0 013 .94 15.07 15.07 0 011.5-.41 1.75 1.75 0 001.6-1.34 2.36 2.36 0 012.47-1.5 2.64 2.64 0 012.22 1.72 2.71 2.71 0 01-.84 2.82 2.66 2.66 0 01-2.91.16 6.67 6.67 0 01-.91-.76c-.47.13-.94.32-1.44.41a1.74 1.74 0 00-1.5 1.25 2.37 2.37 0 01-3 1.48h-.09c-.25-.08-.5-.16-.75-.22l-3.45 2.7c0 2.19-.53 3.13-1.87 3.41s-2.38-.31-3.26-2.13c-.78-.16-1.6-.31-2.47-.47a2.83 2.83 0 01-3.82 1.21A1.18 1.18 0 0136 22c-1 .85-1.91 1.66-2.88 2.48v1.23a2.34 2.34 0 01-2.29 2.38A2.43 2.43 0 0128.14 26c-.07-.31 0-.65-.07-.93a2.06 2.06 0 00-.37-.29c-.85-.5-1.69-1-2.63-1.53a3.39 3.39 0 01-3.13.34c-.88.79-1.66 1.54-2.48 2.23a2.21 2.21 0 00-.94 2.18 2.3 2.3 0 01-2 2.56 2.37 2.37 0 01-.65 0 2.52 2.52 0 01.3-5h.3a9.41 9.41 0 01.91.25c1-.93 2-1.94 3-2.88a1.24 1.24 0 00.32-1.28 2.39 2.39 0 01.91-2.25 2.48 2.48 0 013.51.34 2.43 2.43 0 01.37.59 9 9 0 01.41 1.7c.93.53 1.91 1.12 2.84 1.66a3.61 3.61 0 013.26-.24z"/><circle id="Ellipse_1262" data-name="Ellipse 1262" class="cls-6" cx="11.25" cy="116.48" r="1.78"/><circle id="Ellipse_1263" data-name="Ellipse 1263" class="cls-7" cx="45.57" cy="102.05" r="1.78"/><circle id="Ellipse_1264" data-name="Ellipse 1264" class="cls-8" cx="62.76" cy="110.63" r="1.78"/><circle id="Ellipse_1265" data-name="Ellipse 1265" class="cls-7" cx="105.47" cy="51.82" r="1.78"/><circle id="Ellipse_1266" data-name="Ellipse 1266" class="cls-8" cx="94.04" cy="35.41" r="1.78"/><circle id="Ellipse_1267" data-name="Ellipse 1267" class="cls-6" cx="118.06" cy="14.5" r="1.78"/></g></g></g></svg>