<svg xmlns="http://www.w3.org/2000/svg" width="20" height="17"><path fill-rule="evenodd" fill="#845CFF" d="M19.231 0H6.923a.771.771 0 00-.769.772v6.955c0 1.546-1.539 1.546-1.539 1.546H.769a.771.771 0 00-.769.772v6.182c0 .425.345.772.769.772h18.462a.772.772 0 00.769-.772V.772A.771.771 0 0019.231 0zm-2.308 9.273c0 1.109-1.028 3.09-3.077 3.09h-2.758l1.379 1.386a.773.773 0 01-.544 1.318.764.764 0 01-.544-.226l-2.692-2.704a.774.774 0 010-1.093l2.692-2.704a.767.767 0 011.088 0 .773.773 0 010 1.092l-1.379 1.386h2.758c1.075 0 1.539-1.173 1.539-1.545V7.727a.77.77 0 111.538 0v1.546z"/></svg>