<svg version="1.1" id="Ñëîé_1" xmlns="http://www.w3.org/2000/svg" x="0" y="0" viewBox="0 0 1014.8 760.7" xml:space="preserve"><style>.st0{fill:#eceaf8}.st2{fill:#f1f0fa}.st3{fill:#dad6f1}.st4{fill:#fff}.st5{fill:#e2dff4}.st8{fill:#8374d1}.st9{fill:#9285d6}.st14{fill:#e0dcf3}.st16{fill:#ebe8f7}.st18{fill:#dcd7f2}.st23{fill:#8a7bd3}.st28{fill:#9e92db}</style><path class="st0" d="M1017.8 518.6c0-.1 0-.2-.1-.3v-.1s0-.1-.1-.1c0 0 0-.1-.1-.1l-.1-.1-.1-.1s-.1-.1-.2-.1l-.1-.1c-.1 0-.1-.1-.2-.1 0 0-.1 0-.1-.1-.1 0-.2-.1-.3-.1 0 0-.1 0-.1-.1-.2-.1-.3-.1-.5-.2-2.3-.6-4.7-1.3-7.6-1.4-1.2 0-2.5 0-3.9.3-.6.1-1.2.2-1.8.4l-.9.3c-1.3.4-2.6.9-4 1.5-1.1.5-2.2 1-3.4 1.7-2 1.1-4.2 2.5-6.5 4.2-15.1 10.9-20.1 23.1-27.3 28.2-.3.2-.6.5-.9.7-.1 0-.1.1-.2.1-.3.2-.5.4-.8.6l-.1.1c-.5.4-.9.9-1.3 1.3l-.1.1c-.2.2-.3.4-.5.6 0 0 0 .1-.1.1-.3.4-.6.9-.8 1.4v.1c-.1.2-.2.5-.3.7v.1c-.1.3-.2.5-.2.8-.1.3-.1.5-.2.8v.2c0 .3-.1.6-.1.8v.2c0 .3-.1.6-.1.9v.2c0 .3-.1.5-.1.8V563.4c-.1 1.1-.2 2.3-.3 3.7-.2 1.7-.4 3.6-.7 5.8-1 6.9 4.3 13.3 2.4 18.4-2 5.1-24.8 71.3-25.5 79.2-.6 6.9-8.5 25.6-10.7 30.5h-6.3c.8-8.7 5.5-61.6 7.3-70.4 1.9-9.5 2.7-23.9 4-26.6 1.3-2.6 15.9-9.1 16.4-14 .2-1.8.5-3.6.2-5.4.2-2.9.4-8.7-12.2-13.2-5-1.8-8.4-2.6-11.3-2.9 0-1.1-.1-2-.1-2.7-.5-9.7-2.6-11.6-2.4-14.7s14.1-9.2 16.6-14.6c2.5-5.4-.6-8.1-.2-9.7.4-1.6 4-16.2-3.4-20.6 0 0-10.5-7.7-18.5-7.1-2.1.2-4.1-.3-6.1-.9V458c0-4.4-.6-8.6-1.7-12.6.2-2.4.4-4.6.6-6.6.5-4.8 2.9-10 5.7-14.6 8 2.1 16.2 3.8 21.5-.6 3.4-2.8-2.4-19.2-6.2-20-3.8-.7-7.8 3.3-16.9 5.1-8.1 1.6-16.9 11.8-18.7 13.9-8.4-7.6-19.6-12.2-31.8-12.2l-227.5.4L689 716.5c-10.2 19.6 4.1 43.1 26.2 43.1h165c1.3 0 2.5-.1 3.8-.3.7.2 1.4.3 2.1.3h48.6c3.8 0 6.8-3.1 6.8-6.9v-.1-.3l-8.3-51.1h-9.6c1.9-4.2 8.4-18.3 11.4-29.8 3.6-13.6 21.1-74.6 28.2-82.6 7-8 27.4-17.6 35.9-26.3s9.9-27.6 11.7-33.4c.2-.6.4-1.2.8-1.7 1.4-2.5 4-4.8 5.4-6.6.1-.1.2-.2.2-.3l.1-.1c.1-.1.1-.2.2-.3 0 0 0-.1.1-.1.1-.1.1-.2.1-.3v-.1c0-.1.1-.2.1-.3v-.1c.1-.2.1-.4.2-.6v-.1c-.2.3-.2.2-.2.1zM916.4 634.9c.8-4.6 1.2-19.7 1.4-34.7 2.1 3.3 3.1 7.1 2.6 11.9-.8 7.5-4 34.3-6.7 56.8.9-14.8 2-29.8 2.7-34zM905.6 517c7.3 10.6 7.5 20.1 6.7 27.6-.8 7.9 2.2 18.1 2.3 22.6v1.5c-3.2.1-6.2.8-10.8 1.5V519c.5-.8 1.1-1.4 1.8-2zm-15.5-95.5c-.6.5-1.1 1-1.7 1.5-.1-.1-.3-.2-.4-.4.6-.5 1.3-.9 2.1-1.1zm17.6 279.7h-1c-.3-1.7-1.4-8.4-3-18.2v-36.5c.4 5.4.9 10.8 1.6 16.1 2.2 15.8 2.7 26.2 2.8 32.5-.2 2.8-.3 4.9-.4 6.1zm1.4-43.9c-3.4-13.9-4.6-54.1-4-65.9 1-.2 2-.4 3.1-.6 2.1 1.5 4 3 5.7 4.6-.2 6.1-.3 11.6-.3 14.4 0 4.4-1.6 30.3-3.2 53.6-.5-2.2-.9-4.3-1.3-6.1z"/><linearGradient id="SVGID_1_" gradientUnits="userSpaceOnUse" x1="165.19" y1="643.091" x2="200.7" y2="643.091"><stop offset="0" stop-color="#e0dcf3"/><stop offset="1" stop-color="#d1cbee"/></linearGradient><path d="M196.9 625.3H169c-2.1 0-3.8 1.7-3.8 3.8V657c0 2.1 1.7 3.8 3.8 3.8h27.8c2.1 0 3.8-1.7 3.8-3.8v-27.8c.1-2.1-1.6-3.9-3.7-3.9zm-6.5 21.2c0 2.3-1.8 4.1-4.1 4.1h-6.8c-2.3 0-4.1-1.8-4.1-4.1v-6.8c0-2.3 1.8-4.1 4.1-4.1h6.8c2.3 0 4.1 1.8 4.1 4.1v6.8z" fill="url(#SVGID_1_)"/><path class="st2" d="M431.3 514.8h114.4v67.1H431.3z"/><path class="st3" d="M445.5 514.8h-34.6c-9.2 0-16.7 7.5-16.7 16.7V743c0 9.2 7.5 16.7 16.7 16.7h34.6c9.2 0 16.7-7.5 16.7-16.7V531.5c0-9.3-7.5-16.7-16.7-16.7z"/><path class="st4" d="M437.5 519.2H407c-8.1 0-14.7 6.6-14.7 14.7v207.4c0 8.1 6.6 14.7 14.7 14.7h30.5c8.1 0 14.7-6.6 14.7-14.7V533.9c0-8.1-6.5-14.7-14.7-14.7z"/><path class="st3" d="M806.2 581.8H549.7l53.6-130.3c9.5-23.1 32-38.2 57-38.2l156.9-3c36.1.4 42.4 21.2 39.2 41.1-4.6 28.6-19.5 109.7-19.5 109.7-5.1 12.6-17.3 20.7-30.7 20.7z"/><path class="st4" d="M767.2 581.8H510.7l48.5-133.2c9.5-23.1 32-38.2 57-38.2h201c17.4 0 29.3 17.7 22.6 33.8l-41.9 117.1c-5.1 12.4-17.2 20.5-30.7 20.5z"/><path class="st3" d="M692 748.5H498.9c-9.2 0-16.7-7.5-16.7-16.7V598.5c0-9.2 7.5-16.7 16.7-16.7H692c9.2 0 16.7 7.5 16.7 16.7v133.3c0 9.2-7.5 16.7-16.7 16.7z"/><path class="st5" d="M638 748.5H444.9c-9.2 0-16.7-7.5-16.7-16.7V598.5c0-9.2 7.5-16.7 16.7-16.7H638c9.2 0 16.7 7.5 16.7 16.7v133.3c0 9.2-7.5 16.7-16.7 16.7z"/><path class="st4" d="M629.1 745.2H444.2c-8.8 0-16-7.2-16-16v-128c0-8.8 7.2-16 16-16h184.9c8.8 0 16 7.2 16 16v128c0 8.8-7.1 16-16 16z"/><path class="st0" d="M676.9 410.4c15.8 0 29.8 10.3 34.6 25.4 11.3 36 20.1 70.3 12.2 101.6-9.7 38.7-31.7 44.4-31.7 44.4H559.4l92.9-171.4h24.6z"/><path class="st3" d="M839.2 759.7H718.6l-.9-244.9h121.6c8.8 0 15.9 7.1 15.9 15.9l.9 212.1c0 9.3-7.6 16.9-16.9 16.9z"/><path class="st5" d="M731.8 514.8h-34.6c-9.2 0-16.7 7.5-16.7 16.7l.9 211.5c0 9.2 7.5 16.7 16.7 16.7h34.6c9.2 0 16.7-7.5 16.7-16.7l-.9-211.5c.1-9.3-7.4-16.7-16.7-16.7z"/><path class="st4" d="M723.9 519.2h-30.5c-8.1 0-14.7 6.6-14.7 14.7l.9 207.4c0 8.1 6.6 14.7 14.7 14.7h30.5c8.1 0 14.7-6.6 14.7-14.7l-.9-207.4c0-8.1-6.6-14.7-14.7-14.7z"/><path d="M565.5 582.6c-70.1-4.7-70.6 49.8-76.9 95.1-6.3 45.3-27.3 38.8-27.3 38.8l-21-93.3s-20.6 37.9-31 32.5c-10.1-5.3 7.8-64 7.8-64l58.4-23 90 13.9z" fill="#c2bae8"/><path class="st0" d="M805.2 475.8c-6 1.2-14.5.7-16.2-6.7-1.7-7.4-1.7-16.1 14.5-20.8 8-2.3 14.9-16.1 14.1-26.7-.9-10.5-2.2-10.8-4.5-13.1-1.5-1.5 1.8-3.7 8.7-26.6 10.2-34.1-5-46.6-17.3-48.6s-26.5-6.5-29.2-17.4c-2.7-10.9 1.6-17.1 0-24.3-1.6-7.2-8 4.6-10.3 7.2-2.3 2.6-10.8 2-11.1-1.9-.4-4-.3-18.6-7.7-8.8-2.8 3.7-4.3 8.1-4.9 12.9v.3c0 .4-.1.7-.1 1.1v.3c0 .4-.1.8-.1 1.1V310.2c0 .4 0 .8.1 1.2v.2c.1 1 .2 2 .3 2.9v.3c0 .4.1.8.1 1.1v.4c0 .4.1.8.2 1.1v.3c.1 1 .3 1.9.4 2.9 0 .1 0 .2.1.4.1.3.1.7.2 1 0 .1 0 .3.1.4.1.3.1.7.2 1 0 .1 0 .2.1.4.1.4.2.9.2 1.3 2.1 11.6 9.1 21.4 13.3 32.1.3.7.6 1.4.8 2.1.1.4.3.8.4 1.2 0 .1.1.2.1.3.1.3.2.6.3 1 0 .1 0 .2.1.3.1.4.2.7.2 1.1 0 .1 0 .2.1.3.1.4.1.8.2 1.2 2.2 14-.4 38.7-4 38.5-8.1-.6-6.5 7.4-4 7.4h9.9c5.7 0 9-35.3 9-35.3s8.4 23.9 4.6 26.1c-3.8 2.1-3.1 9.4 0 9.2 3.1-.2 14.5.2 21.6.2 12 0 25.9 21.7 6.3 30.1-19.7 8.4-23 31.3-15.7 38.1 7.3 6.8 17.4 4.7 20.6 3.6 3.2-.9 4.4-8.1-1.7-6.8zm-46.7-111.1c0 .1 0 .1 0 0 0 .1 0 .1 0 0z"/><linearGradient id="SVGID_2_" gradientUnits="userSpaceOnUse" x1="536.863" y1="291.139" x2="612.827" y2="350.368"><stop offset="0" stop-color="#8374d1"/><stop offset="1" stop-color="#76c"/></linearGradient><path d="M584.3 272.9c-14.3-8.3-14.1 25.8-6.9 39.3 14.3 26.9-3.8 17.2 5.9 28 11.3 12.5-12.4 34.8-12.4 34.8l71.9-34.7S629.3 307.1 623 301c-6.3-6-38.7-28.1-38.7-28.1z" fill="url(#SVGID_2_)"/><path class="st8" d="M494.5 537.5c-44.8 0-71.7 10-87.8 12.6-11.2 1.8-13.9 14.8-17 20.7-5.7 10.4-44.4 155.5-59.2 164.6-14.6 8.9-23.4 16.3-12.6 19.7 8.9 2.8 18.5 5.1 26.8-3.1 8.3-8.3 13.1-12.5 22.7-18.8 11.3-7.5 0-26.1 2.4-31.1s49.4-59.1 50.2-75.7c1.1-21.9 22.6-40.7 98.4-43.4 70.3-2.8-23.9-45.5-23.9-45.5z"/><path class="st9" d="M317.8 754.9c8.9 2.8 18.5 5.1 26.8-3.1 8.3-8.3 13.1-12.5 22.7-18.8 9.2-6.1 3.5-19.5 2.3-27-8.8 4.1-7.9 9.2-13.8 22.1-5.9 12.9-27.1 15.7-25.3 7.2-14.7 8.9-23.5 16.3-12.7 19.6z"/><linearGradient id="SVGID_3_" gradientUnits="userSpaceOnUse" x1="392.648" y1="687.188" x2="520.785" y2="559.5"><stop offset="0" stop-color="#8374d1"/><stop offset="1" stop-color="#76c"/></linearGradient><path d="M518.3 582.7c11.1-.4 65.6.1 76.1.1 14.4 0-61.5-23.6-79.1-34l-79.3 4.9c-46.5 17.1-45.8 75.3-42.4 106 .4 3.5.8 6.6 1.3 9.3 12.3-16.4 24.6-34.4 25-42.9 1.1-21.9 22.6-40.7 98.4-43.4z" fill="url(#SVGID_3_)"/><path class="st8" d="M496.1 514.9c-58.7 1.3-50.5-1.1-62.1 9-8.9 7.8-10.6 16.7-6.3 34.5s19.4 147.1 20.1 157.5c.7 10.4-8.2 17.4-12.7 19.5-4.5 2.1-21.4 6.3-35.1 6.5-13.7.3-3.9 18.6 12.6 17.6s46.1.3 51.7 0c10.1-.5 14.6-12.2 10.7-21.5-3.8-9.3-2.8-37.2-1.2-59 1.6-21.9 7-45.1 8.8-66.6 1.8-21.5-9-38.2-7.3-43.7 1.7-5.5 10.1 2.7 30.5 2.7 20.5 0 72.1 15 92.8 11.3 20.8-3.7 26.1-13.9 29.9-35.1l-22.8-33.8c-23.2.2-60.4 0-109.6 1.1zM666.1 274.2c-14.6-27.4-47.9-30.7-62.2-26.3-11.6 3.6-15.5.6-26.4 6.1-16.2 8.1-10.8 26.1-4.6 29.7 6.2 3.6 65.9 48.2 64.7 48.7-1 .5-19.5 119.5-19.1 134.1 62.1 10.1 72.6-12.9 78.7-47.2 6.4-36-16-52.9-10.5-72.3 9.9-35.4-6.2-45.7-20.6-72.8z"/><linearGradient id="SVGID_4_" gradientUnits="userSpaceOnUse" x1="511.704" y1="553.197" x2="621.128" y2="530.352"><stop offset="0" stop-color="#8374d1"/><stop offset="1" stop-color="#76c"/></linearGradient><path d="M496.1 514.9c-14.6.3-25 .4-32.7.5 9.2 13.2 27.2 54.3 28.2 54.6 17.9 5.3 41.4 12.7 73.8 12.6 10.8 0 27.3 1.2 33.3.1 20.8-3.7 26.1-13.9 29.9-35.1l-22.8-33.8c-23.3.2-60.5 0-109.7 1.1z" fill="url(#SVGID_4_)"/><linearGradient id="SVGID_5_" gradientUnits="userSpaceOnUse" x1="535.094" y1="557.23" x2="498.811" y2="516.34"><stop offset="0" stop-color="#8374d1"/><stop offset="1" stop-color="#76c"/></linearGradient><path d="M461.2 515.5c26.5.2 48.9 15.3 62.5 16.9 13.6 1.5 11.4-16.7 11.4-16.7l-73.9-.2z" fill="url(#SVGID_5_)"/><linearGradient id="SVGID_6_" gradientUnits="userSpaceOnUse" x1="715.848" y1="407.879" x2="585.69" y2="250.077"><stop offset="0" stop-color="#8374d1"/><stop offset="1" stop-color="#76c"/></linearGradient><path d="M639.9 328.6c1.4-26.8-5.8-42.6-5.8-42.6s15.5 0 38.9 44.7c9.2 17.7-10.1 24.3-4.7 46.8 5.4 22.6-28.4-48.9-28.4-48.9z" fill="url(#SVGID_6_)"/><path class="st14" d="M620.4 345.2c-28.3 7.3-38.7 15.4-56.9 33.8-20.6 20.9-76 63-87.5 66.8-11.5 3.8-66.8 7.7-66.8 7.7s7.7.8 9.2 7.7c1.5 6.9-2.3 6.9-2.3 6.9H499c10.7 0 60.5-38.9 60.5-38.9s-1.8 13.2 10.4 24.4c36.9 33.8 3.3 49.3-33.2 49.6-31.7.2-33.3 2.1-31.9 4.7 1.2 2.3.1 2.4-8.7 7 0 0 30.6 1.1 54.4 15 23.8 13.8 35.5 53.6 64 52.9 12.5-.3 36-6.3 41.8-18.9 1-2.2-4.2-8.5 3.6-10.8 25.8-7.6 6.1-54.3 25.8-154.6 8.6-43.7-44.6-58.6-65.3-53.3z"/><linearGradient id="SVGID_7_" gradientUnits="userSpaceOnUse" x1="636.855" y1="519.558" x2="621.113" y2="469.645"><stop offset="0" stop-color="#e0dcf3"/><stop offset="1" stop-color="#d1cbee"/></linearGradient><path d="M566.2 493.4c44 20.5 40.9 25 52.2 29.6 28.9 11.8 52.3-93.8 52.3-93.8L620 482.5l-53.8 10.9z" fill="url(#SVGID_7_)"/><path class="st16" d="M415 455.8c17-.1 66.6-.9 73.7-6.9 8.7-7.3 63.2-59 63.2-59-24.9 22-66.1 52.7-75.9 55.9-9.2 3.1-46.3 6.1-60.9 7.2l-2.8 1.3c.9.4 1.8.9 2.7 1.5z"/><linearGradient id="SVGID_8_" gradientUnits="userSpaceOnUse" x1="497.303" y1="473.412" x2="507.77" y2="405.373"><stop offset="0" stop-color="#e0dcf3"/><stop offset="1" stop-color="#d1cbee"/></linearGradient><path d="M562.3 407.9s-46.9 52-63 55.3c-16.1 3.3-59.1 4.9-59.1 4.9s55.2 2.4 63.5.4c17.6-4.3 58.6-40.9 58.6-40.9v-19.7z" fill="url(#SVGID_8_)"/><path class="st18" d="M506.9 478.7c-14.6-3-19.9-8.6-30-8.1-10 .5-17.5 21.7-15.3 29.1 2.2 7.4 9.5 5.4 15.8-2.2 6.3-7.7 8.9-2.2 12.7.9 8.6 7 11.8-1.2 20.6.4 20.9 3.7-3.8-20.1-3.8-20.1z"/><linearGradient id="SVGID_9_" gradientUnits="userSpaceOnUse" x1="594.163" y1="449.647" x2="610.236" y2="404.539"><stop offset="0" stop-color="#e0dcf3"/><stop offset="1" stop-color="#d1cbee"/></linearGradient><path d="M562.3 407.9s-1.1 7-2.6 15.1 3.7 23 3.7 23 64.7 14.4 76 3.7c11.3-10.7 1.8-44.7 1.8-44.7s-11 29.1-46.9 24.2c-35.5-4.8-32.7-13.4-32-21.3z" fill="url(#SVGID_9_)"/><path class="st14" d="M659.9 370.2c-28.4-7-36 84.3-52.4 96-16.4 11.7-90 13.4-101.7 12.3 0 0 14 10.8 4.9 20.1 0 0 97.4 14.9 121.1-1.5 23.8-16.5 46.1-58.6 42.3-92.2-2.8-24.8-2.8-31.8-14.2-34.7z"/><path class="st18" d="M607.6 267c-7.9-4.2-13.1 3.5-21.3 9.4-7.3 5.3-11.4 3.1-7 16.8.6 1.8 7.9 8.3 8.2 10.4.7 4.4-3.2 5.1 2.4 11.6 17.3 20.2 23.3 20.2 28.2 14.5 0 0 27.7-14.8 20.1-28.5 5.7 3.3-7.3-17.5-6.5-7.5-3.9-7.2-9.1-18.7-24.1-26.7z"/><linearGradient id="SVGID_10_" gradientUnits="userSpaceOnUse" x1="607.262" y1="323.101" x2="632.086" y2="347.295"><stop offset="0" stop-color="#cbc5ec"/><stop offset="1" stop-color="#dcd7f2"/></linearGradient><path d="M636.9 363.3c21.3-15.5 33.8-5.3 33.8-5.3s-19.3-12.8-31.5-53.9c5.7 3.3 5.1-3.3 4.9-5.7-1.3-15.1-13.9-21.5-12.5-4.7 5.8 24.5-1.2 23.3-13.6 36 0 0 6.7 3.5-.7 13.9-6.6 9.3-20.6 23.5-20.8 31.7-.5 20.3 21.2 1.9 40.4-12z" fill="url(#SVGID_10_)"/><path class="st16" d="M636.1 392.1c-13 29.1-19 67.3-28.7 74.2-16.4 11.7-90 13.4-101.7 12.3 0 0 1.8 1.4 3.7 3.6 37.1 1.7 95.5-1.2 103.8-13.5 14-20.6 22.9-76.6 22.9-76.6z"/><linearGradient id="SVGID_11_" gradientUnits="userSpaceOnUse" x1="610.408" y1="539.852" x2="620.902" y2="529.87"><stop offset="0" stop-color="#e0dcf3"/><stop offset="1" stop-color="#d1cbee"/></linearGradient><path d="M659.9 553.1c-36.4-4.2-74.2-30.4-96.9-35.9 0 0 19.6 4.9 33.4 19.3 13.8 14.4 56.5 33.2 59.9 27.4.5-.8-.8-3.7.8-6.4 1.5-2.7 2.8-4.4 2.8-4.4z" fill="url(#SVGID_11_)"/><linearGradient id="SVGID_12_" gradientUnits="userSpaceOnUse" x1="505.61" y1="519.526" x2="550.388" y2="522.997"><stop offset="0" stop-color="#e0dcf3"/><stop offset="1" stop-color="#d1cbee"/></linearGradient><path d="M578.6 537.5c-41.9-34.3-73.8-29.5-73.8-29.5s1.7 2.5 1.3 3.3c-.4.7-1.7 1.7-2.5 2.1 0 0-10 1.6.8 2.5 19.9 1.3 74.2 21.6 74.2 21.6z" fill="url(#SVGID_12_)"/><path class="st9" d="M474.3 735.6c-16-.3-40 11.1-55.6 4.3-5.9 1.1-12.6 2-18.6 2.1-13.7.3-3.9 18.6 12.6 17.6s46.1.3 51.7 0c10.1-.5 14.6-12.2 10.7-21.5-.3-.7-.5-1.6-.8-2.5z"/><path class="st23" d="M535.1 509.1H408.2c-1 0-1.8.8-1.8 1.8v3c0 1 .8 1.8 1.8 1.8h126.9c1 0 1.8-.8 1.8-1.8v-3c0-1-.8-1.8-1.8-1.8z"/><linearGradient id="SVGID_13_" gradientUnits="userSpaceOnUse" x1="373.401" y1="472.158" x2="495.778" y2="472.158"><stop offset="0" stop-color="#8374d1"/><stop offset="1" stop-color="#76c"/></linearGradient><path d="M492.5 510.5H407c-3.5 0-6.6-2.1-7.8-5.4l-25.6-66.9c-.8-2.1.8-4.4 3-4.4h85.5c3.5 0 6.6 2.1 7.8 5.4l25.6 66.9c.9 2.1-.7 4.4-3 4.4z" fill="url(#SVGID_13_)"/><path class="st8" d="M742.1 410.8h-9.9c-2.6 0-4.2-8 4-7.4 4.1.3 6.9-32.3 2.7-43.8s-11.9-21.8-14.2-34.2c-2.3-12.4-4.3-27.5 3.1-37.2 7.4-9.7 7.3 4.9 7.7 8.8.4 4 8.8 4.5 11.1 1.9 2.3-2.6 8.7-14.3 10.3-7.2 1.6 7.2-2.7 13.3 0 24.3 2.7 10.9 16.9 15.5 29.2 17.4 12.3 2 27.5 18.7 23.2 39.2-4.2 20.5-8.7 38.2-15.9 38.2s-34.8-.2-37.9 0c-3.1.2-3.8-7.1 0-9.2 3.8-2.1-4.6-26.1-4.6-26.1s-3.1 35.3-8.8 35.3z"/><linearGradient id="SVGID_14_" gradientUnits="userSpaceOnUse" x1="753.01" y1="373.416" x2="779.855" y2="373.416"><stop offset="0" stop-color="#8374d1"/><stop offset="1" stop-color="#76c"/></linearGradient><path d="M755.6 401.6c14.4 0 23.6 1.5 24.3-5.7.7-7.2-26.4-22.7-15.4-39.1 2.2-3.2 11.1-6.2 8.2-9-10-9.6-27.8 7.2-15.4 28.2 7.2 12.2 13.7 19.3 10.8 21.6-3 2.3-12.5 4-12.5 4z" fill="url(#SVGID_14_)"/><path class="st8" d="M793.5 410.8c12 0 19.6 21.7 0 30.1s-17.4 31.2-10.1 38c7.3 6.8 17.4 4.7 20.6 3.6 3.3-1.2 4.4-8.3-1.6-7-6 1.2-14.5.7-16.2-6.7-1.7-7.4.1-17.9 11.3-21.5 11.2-3.6 16.4-15.4 15.5-25.9-.9-10.5-8.4-13.8-10.5-15.5-2-1.7 0-6.4 0-6.4l-9 11.3z"/><linearGradient id="SVGID_15_" gradientUnits="userSpaceOnUse" x1="726.772" y1="306.808" x2="740.722" y2="365.424"><stop offset="0" stop-color="#8374d1"/><stop offset="1" stop-color="#76c"/></linearGradient><path d="M723 301c-1 7.9.3 16.6 1.8 24.3 2.3 12.4 10 22.7 14.2 34.2.5 1.5 1 3.3 1.3 5.4-4.1-25.9 2.8-33.4-3.8-37.5-15.9-10-13.5-26.4-13.5-26.4z" fill="url(#SVGID_15_)"/><path class="st4" d="M735.7 317.9c1.7 4 5.5 2.4 6.8 1 1.2-1.2-1.1-2.7-3-2.9-1.9-.1-4.4.5-3.8 1.9z"/><g><linearGradient id="SVGID_16_" gradientUnits="userSpaceOnUse" x1="821.03" y1="532.797" x2="911.525" y2="532.797" gradientTransform="matrix(.9339 -.2429 .2517 .9678 -67.707 251.032)"><stop offset="0" stop-color="#8374d1"/><stop offset="1" stop-color="#76c"/></linearGradient><path d="M847.7 430.3c-8.3 10.9-16.9 26.8-16.9 34.2 0 7.5 6.2 15.2 9.8 18.8 3.6 3.6.9 38.9 1.7 54.7.8 15.8 25.8 163.6 25.8 163.6h4.4s-26.1-157-26.5-163.1c-.4-6-.9-52-.4-54.9.5-2.8 4.7 0 13.1-6.8 8.4-6.7 8.4-26.3 9.6-38.3 1.2-12 14.8-26.8 14.8-26.8s-18-4.3-35.4 18.6z" fill="url(#SVGID_16_)"/><path class="st28" d="M895.4 423.5c-11 9.1-35.1-8.1-42.1-.5 0 0 10-12.5 19.1-14.3 9.1-1.8 13.1-5.8 16.9-5.1s9.5 17.1 6.1 19.9z"/><path class="st8" d="M790.8 498.9c-8.8 1.3-16.5 11.7-3.2 19.8 13.3 8.1 12.9 19.6 24.5 22.9 11.6 3.3 20.3 11.6 26.6 11s7.3.1 10.9 3.8c3.6 3.8 14.7 12.4 17.3 28.9 2.6 16.5.2 48.8 4.1 77.4 3.9 28.6 2.6 39.8 2.6 39.8h5.2s-.5-30.6-4.1-45.1c-3.6-14.6-4.8-58-3.9-67.4s-11.7-28.5-18.6-35.4c-6.9-6.9-4.5-7.4-4.2-11.9s-.7-12.6-15.8-20.6c-15.2-8.1-20.3-26.4-41.4-23.2z"/><linearGradient id="SVGID_17_" gradientUnits="userSpaceOnUse" x1="861.732" y1="608.003" x2="891.856" y2="608.003" gradientTransform="rotate(4.899 930.48 613.626)"><stop offset="0" stop-color="#8374d1"/><stop offset="1" stop-color="#76c"/></linearGradient><path d="M869.9 515.1c8.6 11.4 8.9 21.5 8.1 29.5-.8 7.9 2.2 18.1 2.3 22.6.1 4.5-1.1 34.4-1.1 42.7s-5.9 92.6-5.9 92.6h4.3s2.9-58.5 4.5-67.6c1.6-9.1 1.8-59.2 1.2-68.8-.5-9.7-2.6-11.6-2.4-14.7.2-3.1 14.1-9.2 16.6-14.6 2.5-5.4-.6-8.1-.2-9.7.4-1.6 4-16.2-3.4-20.6s-21.6 2.6-21.6 2.6l-2.4 6z" fill="url(#SVGID_17_)"/><path class="st28" d="M875.5 499.3c-9.2.7-16.3-9.2-22.5.8-3.2 5.1-2.9 23.4 5.2 25.8s17.8-22.6 35.9-19.5c-.1 0-10.6-7.7-18.6-7.1zM869.6 702.4s-2.3-28-7.6-45.5c-5.2-17.6-26.4-35.7-28.6-44-2.2-8.2-.8-18.1-21.4-25.8-20.7-7.7-36.4 6.9-57 13.4s-26.2 19.3-21 29.2c5.2 9.9 17.7-8.8 34.7-10.7 17.1-1.9 42.3 5.2 49.9.9 7.6-4.3 10.6-5 11.5-2.4.9 2.5 16.5 21.4 21.9 29.6 5.5 8.2 6.3 11.7 6.8 15.3.5 3.6 7.5 40.2 7.5 40.2h3.3z"/><linearGradient id="SVGID_18_" gradientUnits="userSpaceOnUse" x1="862.501" y1="638.928" x2="906.941" y2="638.928"><stop offset="0" stop-color="#8374d1"/><stop offset="1" stop-color="#76c"/></linearGradient><path d="M862.5 583.2c14.7 9.9 25 15.3 23.6 28.9-1.4 13.6-10.8 90.4-10.8 90.4h3.5s5.5-62 7.4-71.6c1.9-9.5 2.7-23.9 4-26.6 1.3-2.6 15.9-9.1 16.4-14 .5-4.9 1.6-9.6-8.3-13.9-9.8-4.3-35.8 6.8-35.8 6.8z" fill="url(#SVGID_18_)"/><path class="st8" d="M919 573.1c1.9-13.4-.3-15.9 6.9-21 7.2-5 12.2-17.3 27.3-28.2 15.1-10.9 22.1-8.5 28.2-6.9 6.1 1.6-3.4 6.4-5.2 12.1-1.8 5.7-3.2 24.7-11.7 33.4s-28.8 18.3-35.9 26.3c-7 8-24.6 69-28.2 82.6-3.6 13.6-12 31-12 31h-3.8s10.5-23.7 11.2-31.7c.7-8 23.5-74.1 25.5-79.2 2-5.1-3.3-11.5-2.3-18.4z"/><path class="st28" d="M827.3 587.4c5.5-18.6.6-22.6-6.1-30.4-6.7-7.8-.2-32.9 6.1-29.3 6.3 3.6 3.2 7.9 10.2 19.6 7 11.7 6.4 28.1 6.4 28.1l-16.6 12z"/><linearGradient id="SVGID_19_" gradientUnits="userSpaceOnUse" x1="823.833" y1="624.871" x2="863.894" y2="624.871"><stop offset="0" stop-color="#8374d1"/><stop offset="1" stop-color="#76c"/></linearGradient><path d="M837.5 547.3c6.4 14.1 7 18.7-1.2 28.1-8.2 9.5-16 20.5-10.7 26.9 5.2 6.3 22.4 11.8 25.8 22.7 3.4 10.9 8.9 77.5 8.9 77.5h3.6s-6.3-57.6-6.1-62.6c.2-5-1.6-19-2.1-24.4-.4-5.4 11.3-23.5 6.8-32.3-4.5-8.8-14.2-26.5-25-35.9z" fill="url(#SVGID_19_)"/><path class="st28" d="M884.7 587c-13 6.3-23.6 4.4-27.7 7.8-4.2 3.4-6.6-.9-5.2-5.5 1.3-4.6 2.5-17.5 14.8-18.9 12.3-1.4 13.6-3.9 28.1 1.2 12.6 4.5 12.4 10.3 12.2 13.2-1.7-3.1-14.9-1.3-22.2 2.2z"/><path class="st8" d="M872.2 702.4L853 660.7c-3.5-7.6.9-16.7-.7-21.8-1.5-5.1-16.4-10.3-30.8-9.8-14.4.5-18.8 6.7-20.6 9.8-1.8 3.1 1.7 3.9 4.5 2.4 2.7-1.5 12.8-2.9 25.9 5.7 13.1 8.6 14.6 4.3 16.9 12.4 2.3 8.1 13.2 27.4 16.5 34.1 3.4 6.8 3.4 8.9 3.4 8.9h4.1z"/><path class="st28" d="M977 527.5c2.8-5 9.9-9 4.5-10.4-6.1-1.6-13.1-4-28.2 6.9s-20.1 23.1-27.3 28.2c-6 4.2-5.5 6.7-6.3 15.2 4.2-2.9 9.4-2.2 20.7-12.7 14.3-13.6 22.8-25.2 36.6-27.2z"/><g><path class="st4" d="M883.8 701.2h11.7l8.3 51.2c0 4-3.2 7.3-7.2 7.3h-48.1c-4.3 0-7.7-3.5-7.7-7.8l6.2-50.7h36.8z"/><path class="st5" d="M886.8 701.2h8.7l8.3 51.6c0 3.8-3.1 6.9-6.8 6.9h-45.4c26-1.1 18.2-17.8 20.7-26.3 5.3-18.5 16.9-12.6 14.5-32.2z"/></g></g><g><path class="st4" d="M804.2 7h156.9v229.8H804.2z"/><path class="st2" d="M809.8 12h145.6v217.9H809.8z"/><path transform="rotate(-180 963.21 121.881)" class="st3" d="M961.1 7h4.2v229.8h-4.2z"/><path class="st3" d="M809.8 12h3.5v217.9h-3.5z"/></g><g><path class="st28" d="M641.8 95.7h84.5v84.5h-84.5z"/><path class="st4" d="M652.3 106.1h63.6v63.6h-63.6z"/><path transform="rotate(-180 728.877 137.9)" class="st23" d="M726.3 95.7h5.1v84.5h-5.1z"/><path class="st23" d="M652.3 106.1h5.1v63.6h-5.1z"/><path class="st14" d="M671.5 125.4h25.1v25.1h-25.1z"/></g><path class="st0" d="M731.4 95.7h7.1v84.5h-7.1zM965.3 7h7.4v229.8h-7.4z"/><g><path class="st28" d="M143 703.8c3.9 5.4 5.1 11.2 5.1 11.2h4.9s-4.7-16.5-4.8-19.6c0-3.1-5.2 8.4-5.2 8.4zM188.6 658.7c7.9 17.4 7.2 23.6 3.8 30.5-3.4 6.9-13.2 21-14.6 25.8h7s5.7-18.2 7.9-20.3c2.2-2.1 5.7-11 3-19.6-2.7-8.6-7.1-16.4-7.1-16.4z"/><path class="st8" d="M184.9 704.6c-1.4-4.8-11.1-8.6-12.7-15.7-1.6-7.1 4.3-5 5.6-9 1.3-4 7.3.9 9.6-.9 2.2-1.8 7.8 4.8 6.1 8-1.6 3.1-8.6 17.6-8.6 17.6z"/><path class="st28" d="M129.4 678.2c-14.8.7-15.7 5.4-21.3 3.4-5.6-1.9-8.7-2.5-7 1.3 1.7 3.8 47 23.7 47 23.7l-9.7-19.6-9-8.8zM143.1 675.1c-1.7-7.8 2-13.4 10-15.2 7.9-1.8 13.6-4.6 11.6-7.1-1.9-2.6-4.9 2.1-9.8.9-4.9-1.3-10.3-1.9-11.2 2.8s-7.3 4.2-7 8.3c.2 4.1 6.4 10.3 6.4 10.3z"/><path class="st8" d="M114.8 673.5c10.2 8.9 14.6 10.5 23.2 19.4 8.6 8.8 9.6 14.7 11.4 14.9 1.8.2-1.6-3.3.5-8.1 2.2-4.8 8.4-11.4 3.9-17.6-4.6-6.3-7.4-3.4-10.2-8.9-2.8-5.5-8.8 4.1-14.7.1-5.9-4.1-17.2-2.6-14.1.2z"/><path class="st8" d="M113.9 695.4c8.2 3.8 32.7 11.9 34.3 11.3 1.6-.6-12-8.8-17.9-14.6-6-5.9-12.4-2.8-17.2-6.6-4.8-3.8-11.9-2.4-11.9-2.4s8 10.1 12.7 12.3z"/><path class="st28" d="M195.1 691.4c6-18.2 12.1-15.2 15.6-21 3.5-5.8 4.2-2.9 11.3-7.6s1.3-8.4 11.7-10.1c10.4-1.7 22.7 8.5 15.5 18.9-7.2 10.4-26 5.5-26 5.5l-28.1 14.3z"/><path class="st8" d="M187.6 700.6c-1.5 4.2 10.5-12.2 23.1-13.6 12.7-1.3 34.9-8.8 38.4-15.4 0 0-4.8 5.5-12 1.1-7.3-4.4-14.1-3-19.8 1.8-5.7 4.7-12.7 4-16 6.5-3.4 2.4-12.5 16.6-13.7 19.6zM192 656.4c-11.5-8.3-22.1-8.3-24-14-1.9-5.8-.3-7.3-5.3-12.1s-5.3-9.1-.9-10.2c4.3-1.1 8 .7 11.6-1.7 3.6-2.4 6-6.3 11.8-5.5 5.9.8 5.1 5.7 7.6 6.4 2.5.7 5.8.8 6.5 5.4.7 4.6-1.7 9.6 1.4 15.8 3.2 6.1-8.7 15.9-8.7 15.9z"/><path class="st8" d="M185 709.7c.1 1.1 2.4-2.2 5.6-3.4 3.1-1.2 9.4-.2 11.9-2s9.1-9.1 13.9-11.1c4.9-2.1 2.6-3.4-.8-2.9-3.4.4-12.5 4.4-16.8 8.3-4.3 3.9-13.8 7.6-13.9 9.2-.2 1.5.1 1.9.1 1.9z"/><path class="st28" d="M169.6 653.3c5.6-1.3 4-3.4 5.2-6 1.3-2.6 6.5-3.4 9 .9 2.4 4.4 3.1 5.9 7.3 6.6 4.2.8 4.2 5.3 4.6 9.1.5 3.8-26.1-10.6-26.1-10.6z"/><path class="st8" d="M193.9 678.6c-9.2-7.4-12.8-4.7-17-12.1-4.3-7.4-9.1-2.8-9.7-9.8-.5-6.9 7.3-3.2 8.2-6.3.9-3.1 9.7-.7 10.9 4.7 1.2 5.5 8.8.9 10.9 5.7 2.1 4.8 2.1 12.3.3 14-1.8 1.8-2.6 4.6-3.6 3.8zM97.3 640.7c10.9 15.3 34.1 29.2 37.3 36.5 3.2 7.3 7.7-10.2 1.6-15.8-6.1-5.6-5.6-3.8-6.6-8-.9-4.2-5.7-4.2-8.3-9-2.5-4.9-27.3-8.4-24-3.7z"/><g><path class="st3" d="M176.7 715h27.6s-3 32-6.2 42c-.8 2.5-4.1 6.7-8.2 6.7H140c-4.4 0-7.1-5.4-8-8.1-3.3-9.9-5.5-40.6-5.5-40.6h50.2z"/><path class="st2" d="M179.8 715h24.5s-3 31.9-6.2 42c-.8 2.4-3.9 6.7-7.8 6.7h-47.1c59.9-2.5 22-28.4 36.6-48.7z"/></g></g><path d="M813.3 149.4s41.4 23.7 64.2 42.9c23.6 19.8 36.6 37.6 36.6 37.6H813.3v-80.5z" opacity=".5" fill="#fff"/><linearGradient id="SVGID_20_" gradientUnits="userSpaceOnUse" x1="484.713" y1="289.18" x2="520.223" y2="289.18"><stop offset="0" stop-color="#e0dcf3"/><stop offset="1" stop-color="#d1cbee"/></linearGradient><path d="M516.4 271.4h-27.9c-2.1 0-3.8 1.7-3.8 3.8V303c0 2.1 1.7 3.8 3.8 3.8h27.9c2.1 0 3.8-1.7 3.8-3.8v-27.8c0-2.1-1.7-3.8-3.8-3.8zm-6.4 21.2c0 2.3-1.8 4.1-4.1 4.1H499c-2.3 0-4.1-1.8-4.1-4.1v-6.8c0-2.3 1.8-4.1 4.1-4.1h6.8c2.3 0 4.1 1.8 4.1 4.1v6.8z" fill="url(#SVGID_20_)"/><linearGradient id="SVGID_21_" gradientUnits="userSpaceOnUse" x1="325.069" y1="642.839" x2="360.579" y2="642.839"><stop offset="0" stop-color="#e0dcf3"/><stop offset="1" stop-color="#d1cbee"/></linearGradient><path d="M356.7 625.1h-27.8c-2.1 0-3.8 1.7-3.8 3.8v27.8c0 2.1 1.7 3.8 3.8 3.8h27.8c2.1 0 3.8-1.7 3.8-3.8v-27.8c.1-2.1-1.6-3.8-3.8-3.8zm-6.4 21.1c0 2.3-1.8 4.1-4.1 4.1h-6.8c-2.3 0-4.1-1.8-4.1-4.1v-6.8c0-2.3 1.8-4.1 4.1-4.1h6.8c2.3 0 4.1 1.8 4.1 4.1v6.8z" fill="url(#SVGID_21_)"/><linearGradient id="SVGID_22_" gradientUnits="userSpaceOnUse" x1="324.845" y1="458.541" x2="360.355" y2="458.541"><stop offset="0" stop-color="#e0dcf3"/><stop offset="1" stop-color="#d1cbee"/></linearGradient><path d="M356.5 440.8h-27.8c-2.1 0-3.8 1.7-3.8 3.8v27.8c0 2.1 1.7 3.8 3.8 3.8h27.8c2.1 0 3.8-1.7 3.8-3.8v-27.8c.1-2.1-1.7-3.8-3.8-3.8zm-6.4 21.1c0 2.3-1.8 4.1-4.1 4.1h-6.8c-2.3 0-4.1-1.8-4.1-4.1v-6.8c0-2.3 1.8-4.1 4.1-4.1h6.8c2.3 0 4.1 1.8 4.1 4.1v6.8z" fill="url(#SVGID_22_)"/><linearGradient id="SVGID_23_" gradientUnits="userSpaceOnUse" x1="324.815" y1="289.195" x2="360.325" y2="289.195"><stop offset="0" stop-color="#e0dcf3"/><stop offset="1" stop-color="#d1cbee"/></linearGradient><path d="M356.5 271.4h-27.8c-2.1 0-3.8 1.7-3.8 3.8V303c0 2.1 1.7 3.8 3.8 3.8h27.8c2.1 0 3.8-1.7 3.8-3.8v-27.8c0-2-1.7-3.8-3.8-3.8zm-6.4 21.2c0 2.3-1.8 4.1-4.1 4.1h-6.8c-2.3 0-4.1-1.8-4.1-4.1v-6.8c0-2.3 1.8-4.1 4.1-4.1h6.8c2.3 0 4.1 1.8 4.1 4.1v6.8z" fill="url(#SVGID_23_)"/><linearGradient id="SVGID_24_" gradientUnits="userSpaceOnUse" x1="164.966" y1="458.793" x2="200.476" y2="458.793"><stop offset="0" stop-color="#e0dcf3"/><stop offset="1" stop-color="#d1cbee"/></linearGradient><path d="M196.6 441h-27.8c-2.1 0-3.8 1.7-3.8 3.8v27.8c0 2.1 1.7 3.8 3.8 3.8h27.8c2.1 0 3.8-1.7 3.8-3.8v-27.8c.1-2-1.6-3.8-3.8-3.8zm-6.4 21.2c0 2.3-1.8 4.1-4.1 4.1h-6.8c-2.3 0-4.1-1.8-4.1-4.1v-6.8c0-2.3 1.8-4.1 4.1-4.1h6.8c2.3 0 4.1 1.8 4.1 4.1v6.8z" fill="url(#SVGID_24_)"/><linearGradient id="SVGID_25_" gradientUnits="userSpaceOnUse" x1="324.728" y1="107.202" x2="360.238" y2="107.202"><stop offset="0" stop-color="#e0dcf3"/><stop offset="1" stop-color="#d1cbee"/></linearGradient><path d="M356.4 89.5h-27.8c-2.1 0-3.8 1.7-3.8 3.8v27.8c0 2.1 1.7 3.8 3.8 3.8h27.8c2.1 0 3.8-1.7 3.8-3.8V93.3c0-2.1-1.7-3.8-3.8-3.8zm-6.4 21.1c0 2.3-1.8 4.1-4.1 4.1H339c-2.3 0-4.1-1.8-4.1-4.1v-6.8c0-2.3 1.8-4.1 4.1-4.1h6.8c2.3 0 4.1 1.8 4.1 4.1v6.8z" fill="url(#SVGID_25_)"/><linearGradient id="SVGID_26_" gradientUnits="userSpaceOnUse" x1="5" y1="458.858" x2="40.51" y2="458.858"><stop offset="0" stop-color="#e0dcf3"/><stop offset="1" stop-color="#d1cbee"/></linearGradient><path d="M36.7 441.1H8.8c-2.1 0-3.8 1.7-3.8 3.8v27.8c0 2.1 1.7 3.8 3.8 3.8h27.8c2.1 0 3.8-1.7 3.8-3.8v-27.8c.1-2.1-1.6-3.8-3.7-3.8zm-6.4 21.1c0 2.3-1.8 4.1-4.1 4.1h-6.8c-2.3 0-4.1-1.8-4.1-4.1v-6.8c0-2.3 1.8-4.1 4.1-4.1h6.8c2.3 0 4.1 1.8 4.1 4.1v6.8z" fill="url(#SVGID_26_)"/><linearGradient id="SVGID_27_" gradientUnits="userSpaceOnUse" x1="164.936" y1="289.446" x2="200.446" y2="289.446"><stop offset="0" stop-color="#e0dcf3"/><stop offset="1" stop-color="#d1cbee"/></linearGradient><path d="M196.6 271.7h-27.8c-2.1 0-3.8 1.7-3.8 3.8v27.8c0 2.1 1.7 3.8 3.8 3.8h27.8c2.1 0 3.8-1.7 3.8-3.8v-27.8c0-2.1-1.7-3.8-3.8-3.8zm-6.4 21.1c0 2.3-1.8 4.1-4.1 4.1h-6.8c-2.3 0-4.1-1.8-4.1-4.1V286c0-2.3 1.8-4.1 4.1-4.1h6.8c2.3 0 4.1 1.8 4.1 4.1v6.8z" fill="url(#SVGID_27_)"/></svg>