<svg version="1.1" id="Layer_1" xmlns="http://www.w3.org/2000/svg" x="0" y="0" viewBox="0 0 232 164.4" xml:space="preserve"><style>.st9{fill:#8e80d5}.st10{fill:#fff}.st19{fill:#b8afe4}.st20{fill:#8374d1}</style><linearGradient id="SVGID_1_" gradientUnits="userSpaceOnUse" x1="5.085" y1="153.586" x2="222.524" y2="153.586" gradientTransform="matrix(-1 0 0 1 232.319 0)"><stop offset="0" stop-color="#cec8ed"/><stop offset="1" stop-color="#fff"/></linearGradient><ellipse cx="118.5" cy="153.6" rx="108.7" ry="10.3" fill="url(#SVGID_1_)"/><linearGradient id="SVGID_2_" gradientUnits="userSpaceOnUse" x1="49.63" y1="61.292" x2="50.359" y2="61.292" gradientTransform="matrix(-1 0 0 1 232.319 0)"><stop offset="0" stop-color="#cec8ed"/><stop offset="1" stop-color="#fff"/></linearGradient><path d="M182.3 50.7c.2 0 .4.2.4.4v20.7h-.7V51.1c0-.2.1-.4.3-.4z" fill="url(#SVGID_2_)"/><linearGradient id="SVGID_3_" gradientUnits="userSpaceOnUse" x1="51.939" y1="61.292" x2="52.668" y2="61.292" gradientTransform="matrix(-1 0 0 1 232.319 0)"><stop offset="0" stop-color="#cec8ed"/><stop offset="1" stop-color="#fff"/></linearGradient><path d="M180 50.7c.2 0 .4.2.4.4v20.7h-.7V51.1c0-.2.1-.4.3-.4z" fill="url(#SVGID_3_)"/><linearGradient id="SVGID_4_" gradientUnits="userSpaceOnUse" x1="37.223" y1="47.037" x2="231.973" y2="47.037" gradientTransform="matrix(-1 0 0 1 232.319 0)"><stop offset="0" stop-color="#cec8ed"/><stop offset="1" stop-color="#fff"/></linearGradient><path d="M.3 62.8h10.2v9.1h.7V43.8H18v28.1h.7v-9.1h10.1l-.5 9.1h.7l1.3-24.5c.1-2.3-.8-4.5-2.5-5.7-.9-.7-1.9-1.2-3-1.5l-.1-.2h13l-.2.1c-1.1.4-2.1.9-3 1.5-1.7 1.2-2.7 3.4-2.5 5.7l1.3 24.5h.7l-.2-4.2h10.5v4.2h.7V38h2.6l.9 4h-2.1c-.2 0-.4.2-.4.4s.2.4.4.4h2.3l.4 2h-2.8c-.2 0-.4.2-.4.4s.2.4.4.4h3l.5 2.2h-3.5c-.2 0-.4.2-.4.4s.2.4.4.4h3.6L53 61.4h-4.9c-.2 0-.4.2-.4.4s.2.4.4.4h5.1l.7 2.9h-5.1c-.2 0-.4.2-.4.4s.2.4.4.4h5.3l.7 3.2h-5.1c-.2 0-.4.2-.4.4s.2.4.4.4H55l.4 2h.8l-1-4.3h3.1c.2 0 .3-.1.4-.4l1.2-9.6h1.4l-.3 3.2h-.4c-.2 0-.4.2-.4.4s.2.4.4.4h.3l-1.2 10.3h.7l1.2-10.3h1.8l-1.2 10.3h.7l1.2-10.3h2.2l-1.2 10.3h.9l.9-7.6h1.9l-.9 7.6h.7l.9-7.6h1.7l-.9 7.6h.7l1.6-14.3H74l-1.3 10c0 .1 0 .2.1.3.2.1.3.1.4.1h3.4c.2 0 .4-.2.4-.4V38.9h5.9v25.3h3.8V45.5h2.6v20.4h4.9v-4.8h18.4v4.8h9.1V54.3c0-1.2.4-2.2 1.1-3.1.7-.8 1.7-1.3 2.7-1.3 2.1 0 3.8 1.9 3.8 4.3v11.6h4.2V32.3h3.2V23h11.6v9.3h3.8v3.5h11.1v30.1h12.2v-17l6.4-7.2 6.4 7.2V66h6.1v4h.7v-4.9h-6V48.5l-7.1-8-7.1 8v16.6H164V35h-11.1v-3.5h-3.8v-9.3H136v9.3h-3.2v33.6h-2.7V54.3c0-2.8-2-5.1-4.6-5.1-1.2 0-2.4.5-3.2 1.5-.9 1-1.3 2.3-1.3 3.6v10.8h-7.7v-4.8H93.5v4.8H90V44.7h-4v18.6h-2.4V38h-3.2V27.7c0-.2-.2-.4-.4-.4s-.4.2-.4.4V38h-3.4v29.2h-2.7l1.3-10c0-.1 0-.2-.1-.3-.1-.1-.2-.1-.3-.1h-15c-.2 0-.3.2-.4.4l-1 9.5h-3l-6.7-29.2c0-.2-.2-.3-.4-.3h-3.3c-.2 0-.4.2-.4.4v29.3H33.8l-1.1-19.5c-.1-2 .7-3.9 2.2-5 .8-.6 1.8-1.1 2.8-1.4l2.6-.9h.2V40v-.1-.1-.1-.1-.1-.1-.1-.1-.1h-.1-.1l-2.6-.9c-3.6-1.2-6-4-6.2-7.2 0-.2-.2-.4-.4-.4s-.4.2-.4.4c-.1 3.2-2.6 6-6.2 7.2l-2.6.9h-.1-.1V40.1h.2l2.6.9c1 .3 2 .8 2.8 1.4 1.5 1.1 2.3 3 2.2 5L28.9 62H18.8V43.4c0-.2-.2-.4-.4-.4h-7.5c-.2 0-.4.2-.4.4V62H.3v.8zm71.3-2h-1.7l.4-3.2H72l-.4 3.2zm-2 2.6l.2-1.9h1.7l-.2 1.9h-1.7zm-.4-2.6h-1.9l.4-3.2h1.9l-.4 3.2zm-2.3 2.6l.2-1.9H69l-.2 1.9h-1.9zm-2.6-2.6l.4-3.2h2.2l-.4 3.2h-2.2zm-2.6 0l.4-3.2h1.8l-.4 3.2h-1.8zm-37-21.6l.2-.1c3.1-1 5.5-3.3 6.3-6 .9 2.7 3.2 4.9 6.3 6l.2.1h-13z" fill="url(#SVGID_4_)"/><linearGradient id="SVGID_5_" gradientUnits="userSpaceOnUse" x1="47.138" y1="61.292" x2="47.867" y2="61.292" gradientTransform="matrix(-1 0 0 1 232.319 0)"><stop offset="0" stop-color="#cec8ed"/><stop offset="1" stop-color="#fff"/></linearGradient><path d="M184.8 50.7c.2 0 .4.2.4.4v20.7h-.7V51.1c0-.2.1-.4.3-.4z" fill="url(#SVGID_5_)"/><linearGradient id="SVGID_6_" gradientUnits="userSpaceOnUse" x1="138.143" y1="90.287" x2="138.51" y2="90.287" gradientTransform="matrix(-1 0 0 1 232.319 0)"><stop offset="0" stop-color="#cec8ed"/><stop offset="1" stop-color="#fff"/></linearGradient><path fill="url(#SVGID_6_)" d="M93.8 89.3h.4v2h-.4z"/><linearGradient id="SVGID_7_" gradientUnits="userSpaceOnUse" x1="138.143" y1="83.776" x2="138.51" y2="83.776" gradientTransform="matrix(-1 0 0 1 232.319 0)"><stop offset="0" stop-color="#cec8ed"/><stop offset="1" stop-color="#fff"/></linearGradient><path fill="url(#SVGID_7_)" d="M93.8 82.8h.4v2h-.4z"/><linearGradient id="SVGID_8_" gradientUnits="userSpaceOnUse" x1="138.143" y1="87.049" x2="138.51" y2="87.049" gradientTransform="matrix(-1 0 0 1 232.319 0)"><stop offset="0" stop-color="#cec8ed"/><stop offset="1" stop-color="#fff"/></linearGradient><path fill="url(#SVGID_8_)" d="M93.8 86h.4v2h-.4z"/><linearGradient id="SVGID_9_" gradientUnits="userSpaceOnUse" x1="78.918" y1="110.268" x2="231.44" y2="110.268" gradientTransform="translate(-62.04)"><stop offset=".024" stop-color="#76c"/><stop offset=".184" stop-color="#8e80d5"/><stop offset="1" stop-color="#cec8ed"/></linearGradient><path d="M24.9 119.3s-1.3-4.6-1.2-6.2c.5-8 9.8-30.3 9.8-30.3s-1.4-1-1.5-1.5c-.1-.3.9-1.5.9-1.5s35.5-11.7 62.2-4.6c26.7 7.2 37.3 25.4 37.3 25.4s22.6 3.9 26.6 7.8c3.9 3.9 2 11.4 2 11.4s5 4 7.3 11.8c1.9 6.7 1.2 12-.7 13.9-2 2-8.5 2-8.5 2H46.6s-25.4-1.1-27.6-3.3c-2.1-2.1-3.5-11.7 0-18.3 2.4-4.4 5.9-6.6 5.9-6.6z" fill="url(#SVGID_9_)"/><path class="st9" d="M21.6 141.4c0-9.8 8-17.8 17.8-17.8s17.8 8 17.8 17.8-8 17.8-17.8 17.8-17.8-7.9-17.8-17.8z"/><path class="st10" d="M27 141.4c0-6.8 5.5-12.4 12.4-12.4 6.8 0 12.4 5.5 12.4 12.4 0 6.8-5.5 12.4-12.4 12.4-6.8 0-12.4-5.5-12.4-12.4z"/><path class="st9" d="M127.2 141.4c0-9.8 8-17.8 17.8-17.8s17.8 8 17.8 17.8-8 17.8-17.8 17.8-17.8-7.9-17.8-17.8z"/><path class="st10" d="M132.7 141.4c0-6.8 5.5-12.4 12.4-12.4s12.4 5.5 12.4 12.4c0 6.8-5.5 12.4-12.4 12.4s-12.4-5.5-12.4-12.4z"/><linearGradient id="SVGID_10_" gradientUnits="userSpaceOnUse" x1="113.812" y1="91.064" x2="193.378" y2="91.064" gradientTransform="translate(-62.04)"><stop offset="0" stop-color="#cec8ed"/><stop offset="1" stop-color="#fff"/></linearGradient><path d="M51.8 97.9l79.6 6.8S118 89 99.1 81.4c-13.9-5.6-27.4-4.3-33.9-2.4-14.3 4.1-13.4 18.9-13.4 18.9z" fill="url(#SVGID_10_)"/><linearGradient id="SVGID_11_" gradientUnits="userSpaceOnUse" x1="212.476" y1="113.04" x2="222.096" y2="113.04" gradientTransform="translate(-62.04)"><stop offset="0" stop-color="#cec8ed"/><stop offset="1" stop-color="#fff"/></linearGradient><path d="M150.8 109.5c-.3-.4-.5-.9-.3-1.4.3-.6 1.1-.6 1.7-.5 2.2.2 4.5.8 6 2.5 1.7 2 2.2 8 1.5 8.5-.5.4-2.8-1.9-3.3-2.3-2.1-2-4-4.3-5.6-6.8z" fill="url(#SVGID_11_)"/><linearGradient id="SVGID_12_" gradientUnits="userSpaceOnUse" x1="89.042" y1="109.255" x2="98.573" y2="109.255" gradientTransform="translate(-62.04)"><stop offset=".024" stop-color="#76c"/><stop offset=".184" stop-color="#8e80d5"/><stop offset="1" stop-color="#cec8ed"/></linearGradient><path d="M28.6 118.1c-1.1-.8-1.8-4.2-1.5-5.9 0 0 2-10.9 3.4-11.9 3.3-2.2 6.1 9.3 6.1 13.8-.1 1.7-5.8 5.7-8 4z" fill="url(#SVGID_12_)"/><path class="st10" d="M50.7 119.6c3.4 1.8 6.5 4.4 8.7 7.7 2.2 3.3 3.6 7.1 4.4 11l-.8-.7 14 .6c4.7.2 9.3.6 14 .9 9.3.6 18.6 1.4 28 2.4-9.4 0-18.7-.2-28-.7-4.7-.2-9.3-.4-14-.7l-14-.9h-.7l-.1-.7c-.5-3.7-1.6-7.4-3.6-10.7-1.9-3.3-4.6-6-7.9-8.2zM124.3 139v-.7c0-.5-.1-1.1 0-2 0-.9.2-1.9.5-3.1.3-1.2.7-2.5 1.4-3.9 1.3-2.7 3.5-5.6 6.7-7.8 3.2-2.1 7.2-3.4 11.3-3.5 4.1 0 8.2 1.4 11.3 3.5 3.2 2.1 5.4 5.1 6.7 7.8.7 1.4 1.1 2.7 1.4 3.9.3 1.2.4 2.2.5 3.1.1.9 0 1.5 0 2v.7s-.1-1-.4-2.7c-.3-1.7-1.1-4-2.5-6.5s-3.7-5-6.7-6.9c-3-1.9-6.6-3-10.4-3-3.7 0-7.5 1.1-10.4 3-3 1.9-5.3 4.4-6.7 6.9-1.4 2.5-2.2 4.8-2.5 6.5-.1 1.7-.2 2.7-.2 2.7zM39.4 100.8s6.6.3 16.6.9c5 .3 10.7.7 16.9 1.2 6.2.5 12.8 1 19.4 1.6 6.6.6 13.2 1.2 19.4 1.8 6.2.6 11.9 1.3 16.9 1.8 9.9 1.1 16.5 2 16.5 2s-6.6-.3-16.6-.9c-5-.3-10.7-.7-16.9-1.2-6.2-.5-12.8-1-19.4-1.6-6.6-.6-13.2-1.2-19.4-1.8-6.2-.6-11.9-1.3-16.9-1.8-9.9-1.1-16.5-2-16.5-2z"/><linearGradient id="SVGID_13_" gradientUnits="userSpaceOnUse" x1="161.999" y1="47.037" x2="171.493" y2="47.037" gradientTransform="matrix(-1 0 0 1 232.319 0)"><stop offset="0" stop-color="#cec8ed"/><stop offset="1" stop-color="#fff"/></linearGradient><path d="M60.8 44.7c0-2.6 2.1-4.7 4.7-4.7s4.7 2.1 4.7 4.7c0 .9-.2 1.7-.7 2.4l-2 3.4-2.1 3.7-2.1-3.7-2-3.5c-.2-.7-.5-1.5-.5-2.3z" fill="url(#SVGID_13_)"/><path class="st10" d="M62.9 45.2c0 1.5 1.2 2.7 2.7 2.7s2.7-1.2 2.7-2.7c0-1.5-1.2-2.7-2.7-2.7s-2.7 1.2-2.7 2.7z"/><linearGradient id="SVGID_14_" gradientUnits="userSpaceOnUse" x1="83.847" y1="10.288" x2="96.223" y2="10.288" gradientTransform="matrix(-1 0 0 1 232.319 0)"><stop offset="0" stop-color="#cec8ed"/><stop offset="1" stop-color="#fff"/></linearGradient><path d="M136.1 7.2c0-3.4 2.8-6.2 6.2-6.2 3.4 0 6.2 2.8 6.2 6.2 0 1.1-.3 2.2-.8 3.1l-2.6 4.5-2.8 4.8-2.8-4.8-2.6-4.6c-.5-.9-.8-1.9-.8-3z" fill="url(#SVGID_14_)"/><path class="st10" d="M138.7 7.9c0 2 1.6 3.5 3.5 3.5 2 0 3.5-1.6 3.5-3.5s-1.6-3.5-3.5-3.5c-1.9-.1-3.5 1.5-3.5 3.5z"/><g><linearGradient id="SVGID_15_" gradientUnits="userSpaceOnUse" x1="58.752" y1="78.577" x2="71.592" y2="78.577" gradientTransform="matrix(-1 0 0 1 232.319 0)"><stop offset="0" stop-color="#cec8ed"/><stop offset="1" stop-color="#fff"/></linearGradient><path d="M163.6 81.5c.7 0 1.4.3 1.8.8l3.6-3c-.2-.4-.4-.8-.4-1.2 0-.3.1-.6.2-.9l-3.8-2.4c-.5.5-1.1.8-1.8.8-1.4 0-2.5-1.1-2.5-2.5s1.1-2.5 2.5-2.5 2.5 1.1 2.5 2.5c0 .3-.1.6-.2.9l3.8 2.4c.5-.5 1.1-.8 1.8-.8 1.4 0 2.5 1.1 2.5 2.5s-1.1 2.5-2.5 2.5c-.6 0-1.1-.2-1.6-.6l-3.7 3c.1.3.2.6.2.9 0 1.4-1.1 2.5-2.5 2.5s-2.5-1.1-2.5-2.5c.1-1.3 1.2-2.4 2.6-2.4z" fill="url(#SVGID_15_)"/></g><g><linearGradient id="SVGID_16_" gradientUnits="userSpaceOnUse" x1="34.02" y1="82.329" x2="47.854" y2="82.329" gradientTransform="matrix(-1 0 0 1 232.319 0)"><stop offset=".024" stop-color="#76c"/><stop offset=".184" stop-color="#8e80d5"/><stop offset="1" stop-color="#cec8ed"/></linearGradient><path d="M192.8 80.8c-1.7-.6-3.2-1.6-4.9-2.3-.8-.3-1.7-.5-2.5-.2-.9.4-1.2 1.5-.9 2.4.3.9 1.1 1.5 1.8 2.2 1.2 1 2.4 2 3.8 2.7 1.4.7 3.2 1.1 4.8.6 1.3-.3 3.6-3.1 3.3-4.2-.2-.7-1.2-.8-1.9-.8-1.2 0-2.3 0-3.5-.4z" fill="url(#SVGID_16_)"/><path d="M209.4 101.1l3.4 17.6c1.4 3.9 3.8 7.4 7 10l8 6.5c-.3.6-.6 1.3-.6 2.2 0 1.1.3 2.2 0 3.2-.1.3-.3.8-.6 1.2l-13.7-10.6c-2.7-2.1-4.9-4.7-6.4-7.8l-7.4-14.8 10.3-7.5z" fill="#a195dc"/><path class="st19" d="M198.9 69.2c.1-1.6-1.5-4.1-3.2-3.8-.9.1-1.7.7-2.6.1-.7-.5-.9-1.4-1-2.2-.1-1.1.2-2.2-.2-3.1-.1-.3-.3-.6-.4-1s0-.8.3-.9c.3-.2.7 0 1-.1.7-.2.7-2.1.8-2.8.9-4.5 6.2-2.2 7.2.3.8 1.8 1.6 4.6 1.1 7.1-.1.7 1 3.5 1.9 4.2.5.4 1.1.9 1.2 1.5-1.9.3-4 .5-6.1.7zM182.8 140.1l-3.5-1 2.2-16.5c.4-2.7 1.2-5.2 2.4-7.6l8.3-16.3 16.4 3.4-14.5 13.3c-3.6 3-6.3 7.1-7.6 11.6l-3.7 13.1z"/><path class="st20" d="M179 140.5c-.8-.5-1.3-1.4-1.8-2.1-.6-.8-1.3-1.5-2.3-1.5-1.2 0-2.2 1.2-2.2 2.5.1 1.2.9 2.3 1.9 3 1 .7 2.2 1.1 3.4 1.5.8.3 2 .8 2.8.9.8.1 1.8-.4 2.2-1.1 1.2-2.6-2.9-2.6-4-3.2zM228.5 140.8c-.1.9-.8 1.7-1.2 2.5-.5.8-.9 1.8-.5 2.7.4 1.2 2 1.6 3.1 1.1s1.8-1.7 2-2.9c.2-1.2.1-2.5.1-3.7 0-.8 0-1.6-.3-2.4-.2-.8-1.1-2.1-1.9-2.1-2.7-.3-1.1 3.5-1.3 4.8z"/><linearGradient id="SVGID_17_" gradientUnits="userSpaceOnUse" x1="29.028" y1="57.022" x2="42.372" y2="57.022" gradientTransform="matrix(-1.0729 -.0042 .0042 1.0336 237.352 -3.42)"><stop offset=".024" stop-color="#76c"/><stop offset=".184" stop-color="#8e80d5"/><stop offset="1" stop-color="#cec8ed"/></linearGradient><path d="M201.6 60.8c.1-1 .2-2.2-.6-3-.6-.6-1.7-.8-2.1-1.6-.3-.5-.2-1.1-.5-1.7-.5-1-2-1-3.1-1.2-1.4-.2-2.7-1.1-3.1-2.4-.4-1.3.5-2.9 1.9-3 .9-.1 1.7.4 2.5.7 1.3.4 2.6.4 3.9.6 1.3.2 2.7.8 3.3 1.9.5 1 .3 2.2.7 3.3.5 1 1.6 1.7 1.9 2.8.3 1.2-.5 2.4-1.4 3.3-.6.5-1.8 2-2.5 2.2-1.1.3-.9-1.2-.9-1.9z" fill="url(#SVGID_17_)"/><path class="st20" d="M195.1 81.8c.5-2.2-.1-4-.4-6.1-.5-3.6-.5-7.4 2.6-8 3.1-.6 4.3-1.1 7.4-.6 4.5.7 7.1 11.6 6.7 13.2-.4 1.6-1.1 9.8.7 13.7 1.1 2.5 3.5 7.1 0 8.5-4.3 1.8-9.9 1.4-16.1-1.1-1.7-.7-3.5-1.9-4.5-3.3-3.3-4.7 2.9-13.2 3.6-16.3z"/><linearGradient id="SVGID_18_" gradientUnits="userSpaceOnUse" x1="10.3" y1="82.517" x2="35.774" y2="82.517" gradientTransform="matrix(-1 0 0 1 232.319 0)"><stop offset=".024" stop-color="#76c"/><stop offset=".184" stop-color="#8e80d5"/><stop offset="1" stop-color="#cec8ed"/></linearGradient><path d="M197.1 71c1.5-2.1 4.3-.5 5.5.7 1.6 1.6 5.3 3 9.1 5.3 8.1 4.8 10.8 17.2 7.8 17.9-1.3.3-2.9-.1-3.3-1.6-.6-2.3-.6-4.4-1.9-6.4-1.4-2.1-3.5-4.5-5.8-5.5-3.7-1.7-10.4-4.9-11.9-7.7-.3-.8 0-1.9.5-2.7z" fill="url(#SVGID_18_)"/><path class="st19" d="M223.6 103.5c.1.3.2.6.1.9-.2.4-.8.5-1.2.5-1.6-.2-2.9-1.4-3.3-3-.1-.5-.2-.9-.3-1.4-.1-.4-.4-.9-.8-1.1-.4-.2-1-.1-1.2.3-.1.2-.7.3-.9-.1-.4-1-.1-3.8 1-3.9 1.1-.1 3 .1 3 .1s3.1 6.3 3.6 7.7zM184.9 76.5c-.5-1.2-2.6-4.2-3.3-3.1-.4.6 1.2 1.2.9 1.8-.6 1-2.3-.4-3.2-1.1-.6-.5-1.2-1.2-1.9-1.1-.6.1-1 .7-1 1.3 0 .6.3 1.2.8 1.6.4.4 1.7 1.5 2.2 1.8.9.6 2.4 1.6 3.9 1.6 1.4 0 2-1.9 1.6-2.8z"/></g><g><linearGradient id="SVGID_19_" gradientUnits="userSpaceOnUse" x1="50.07" y1="79.481" x2="56.383" y2="70.294" gradientTransform="matrix(-1 0 0 1 232.319 0)"><stop offset=".024" stop-color="#76c"/><stop offset="1" stop-color="#8e80d5"/></linearGradient><path d="M180.9 79.8l2-1.3c.5-.3.6-1 .3-1.5l-4.1-6.3c-.3-.5-1-.6-1.5-.3l-2 1.3c-.5.3-.6 1-.3 1.5l4.1 6.3c.3.5 1 .6 1.5.3z" fill="url(#SVGID_19_)"/><path d="M180.7 79.3l1.8-1.1c.4-.3.6-.9.3-1.3l-3.6-5.6c-.3-.4-.9-.6-1.3-.3l-1.8 1.1c-.4.3-.6.9-.3 1.3l3.6 5.6c.3.4.8.5 1.3.3z" fill="#e2dff4"/></g></svg>