<svg xmlns="http://www.w3.org/2000/svg" width="21" height="20"><path fill-rule="evenodd" fill="#7A69E6" d="M17.075 17.072a10.014 10.014 0 01-14.153 0c-3.9-3.89-3.9-10.242 0-14.132a9.976 9.976 0 0112.375-1.412.7.7 0 11-.742 1.188C11.138.599 6.771 1.098 3.906 3.938c-3.348 3.34-3.348 8.796 0 12.136 3.348 3.339 8.82 3.339 12.168 0 2.865-2.857 3.366-7.23 1.208-10.638a.701.701 0 011.191-.74c2.503 3.959 1.933 9.054-1.398 12.376zm-7.888-3.46a.781.781 0 01-.517.258h-.035a.689.689 0 01-.5-.206l-3.262-3.253a.704.704 0 010-.999.71.71 0 011.001 0l2.709 2.703 7.681-9.175a.73.73 0 011.001-.086.725.725 0 01.086.998l-8.164 9.76z"/></svg>