<svg version="1.1" id="Layer_1" xmlns="http://www.w3.org/2000/svg" x="0" y="0" viewBox="0 0 986.7 713.8" xml:space="preserve" enable-background="new 0 0 986.7 713.8"><style>.st16{fill:#fff}.st164{fill:#b8afe4}.st165{fill:#8374d1}.st168{fill:#9689d8}.st174{fill:none}.st195{fill:#9e92db}</style><defs><filter id="Adobe_OpacityMaskFilter" filterUnits="userSpaceOnUse" x="1" y="241.5" width="984.3" height="347.4"><feFlood result="back" flood-color="#fff" flood-opacity="1"/><feBlend in="SourceGraphic" in2="back"/></filter></defs><mask maskUnits="userSpaceOnUse" x="1" y="241.5" width="984.3" height="347.4" id="SVGID_1_"><g filter="url(#Adobe_OpacityMaskFilter)"><defs><filter id="Adobe_OpacityMaskFilter_1_" filterUnits="userSpaceOnUse" x="1" y="241.5" width="984.3" height="347.4"><feFlood result="back" flood-color="#fff" flood-opacity="1"/><feBlend in="SourceGraphic" in2="back"/></filter></defs><linearGradient id="SVGID_2_" gradientUnits="userSpaceOnUse" x1="490.671" y1="267.782" x2="500.671" y2="593.782"><stop offset="0" stop-color="#fff"/><stop offset=".092" stop-color="#f7f7f7"/><stop offset=".237" stop-color="#e0e0e0"/><stop offset=".418" stop-color="#bbb"/><stop offset=".627" stop-color="#878787"/><stop offset=".857" stop-color="#464646"/><stop offset="1" stop-color="#1a1a1a"/></linearGradient><path d="M985.3 241.5H197.9c-26.6 2.3-59 9.8-63.8 33.1-2.9 14.1 19.4 20 26 32.8 6.7 12.9-2.8 28.5-14.1 37.6-21 17-48.3 23.5-73.8 32.2-25.6 8.8-52 21.9-64.2 46-9.2 18.2-8.7 40.3-1.5 59.3s20.5 35.3 35.8 48.8C90 573.4 156.2 589.8 219.9 589c63.7-.8 126-17.2 187.6-33.5 57.1-15.1 114.9-30.3 173.8-33 .8.1 1.5.3 2.3.4 52.5 9.3 106.1 9.5 159.3 8.2 76-1.9 151.9-6.8 227.5-14.7 4.9-.5 9.9-1.1 14.9-1.8V241.5z" mask="url(#SVGID_1_)" fill="url(#SVGID_2_)"/></g></mask><linearGradient id="SVGID_3_" gradientUnits="userSpaceOnUse" x1="490.671" y1="267.782" x2="500.671" y2="593.782"><stop offset="0" stop-color="#fff"/><stop offset=".141" stop-color="#f8f7fc"/><stop offset=".363" stop-color="#e3e0f5"/><stop offset=".639" stop-color="#c2bbe8"/><stop offset=".956" stop-color="#9588d8"/><stop offset="1" stop-color="#8e80d5"/></linearGradient><path d="M985.3 241.5H197.9c-26.6 2.3-59 9.8-63.8 33.1-2.9 14.1 19.4 20 26 32.8 6.7 12.9-2.8 28.5-14.1 37.6-21 17-48.3 23.5-73.8 32.2-25.6 8.8-52 21.9-64.2 46-9.2 18.2-8.7 40.3-1.5 59.3s20.5 35.3 35.8 48.8C90 573.4 156.2 589.8 219.9 589c63.7-.8 126-17.2 187.6-33.5 57.1-15.1 114.9-30.3 173.8-33 .8.1 1.5.3 2.3.4 52.5 9.3 106.1 9.5 159.3 8.2 76-1.9 151.9-6.8 227.5-14.7 4.9-.5 9.9-1.1 14.9-1.8V241.5z" fill="url(#SVGID_3_)"/><defs><filter id="Adobe_OpacityMaskFilter_2_" filterUnits="userSpaceOnUse" x="231.4" y="43.3" width="740.6" height="198"><feFlood result="back" flood-color="#fff" flood-opacity="1"/><feBlend in="SourceGraphic" in2="back"/></filter></defs><mask maskUnits="userSpaceOnUse" x="231.4" y="43.3" width="740.6" height="198" id="SVGID_4_"><g filter="url(#Adobe_OpacityMaskFilter_2_)"><defs><filter id="Adobe_OpacityMaskFilter_3_" filterUnits="userSpaceOnUse" x="231.4" y="43.3" width="740.6" height="198"><feFlood result="back" flood-color="#fff" flood-opacity="1"/><feBlend in="SourceGraphic" in2="back"/></filter></defs><linearGradient id="SVGID_5_" gradientUnits="userSpaceOnUse" x1="-7.34" y1="142.336" x2="972.021" y2="142.336"><stop offset="0" stop-color="#333"/><stop offset=".057" stop-color="#4c4c4c"/><stop offset=".179" stop-color="#7b7b7b"/><stop offset=".305" stop-color="#a3a3a3"/><stop offset=".434" stop-color="#c5c5c5"/><stop offset=".565" stop-color="#dedede"/><stop offset=".7" stop-color="#f1f1f1"/><stop offset=".842" stop-color="#fbfbfb"/><stop offset="1" stop-color="#fff"/></linearGradient><path d="M963.6 115.9c-24.3 6-49.9 7.4-74-.6-52.3-17.5-91.2-76.4-146.1-70.9-36.4 3.6-64 35.6-99.4 45-29.4 7.8-60.6-.7-88.7-12.4-28.1-11.6-55.3-26.5-85.2-31.9-29.9-5.4-64.4.7-83.3 24.5-17.3 21.7-17.6 52.1-27.6 78-16.8 43.7-60.1 72-104.5 86.8-7.7 2.6-15.6 4.9-23.4 6.9H939c0-.1.1-.2.2-.2s.2.1.3.2H972V112.8c-3.6 1.5-6.5 2.6-8.4 3.1z" mask="url(#SVGID_4_)" fill="url(#SVGID_5_)"/></g></mask><linearGradient id="SVGID_6_" gradientUnits="userSpaceOnUse" x1="-7.34" y1="142.336" x2="972.021" y2="142.336"><stop offset="0" stop-color="#8e80d5"/><stop offset=".14" stop-color="#aea4e1"/><stop offset=".298" stop-color="#cbc5ec"/><stop offset=".461" stop-color="#e2def4"/><stop offset=".628" stop-color="#f2f1fa"/><stop offset=".804" stop-color="#fcfbfe"/><stop offset="1" stop-color="#fff"/></linearGradient><path d="M963.6 115.9c-24.3 6-49.9 7.4-74-.6-52.3-17.5-91.2-76.4-146.1-70.9-36.4 3.6-64 35.6-99.4 45-29.4 7.8-60.6-.7-88.7-12.4-28.1-11.6-55.3-26.5-85.2-31.9-29.9-5.4-64.4.7-83.3 24.5-17.3 21.7-17.6 52.1-27.6 78-16.8 43.7-60.1 72-104.5 86.8-7.7 2.6-15.6 4.9-23.4 6.9H939c0-.1.1-.2.2-.2s.2.1.3.2H972V112.8c-3.6 1.5-6.5 2.6-8.4 3.1z" fill="url(#SVGID_6_)"/><defs><filter id="Adobe_OpacityMaskFilter_4_" filterUnits="userSpaceOnUse" x="181.5" y="543.4" width="70.8" height="8.3"><feFlood result="back" flood-color="#fff" flood-opacity="1"/><feBlend in="SourceGraphic" in2="back"/></filter></defs><mask maskUnits="userSpaceOnUse" x="181.5" y="543.4" width="70.8" height="8.3" id="SVGID_7_"><g filter="url(#Adobe_OpacityMaskFilter_4_)"><defs><filter id="Adobe_OpacityMaskFilter_5_" filterUnits="userSpaceOnUse" x="181.5" y="543.4" width="70.8" height="8.3"><feFlood result="back" flood-color="#fff" flood-opacity="1"/><feBlend in="SourceGraphic" in2="back"/></filter></defs><linearGradient id="SVGID_8_" gradientUnits="userSpaceOnUse" x1="3.076" y1="547.509" x2="982.435" y2="547.509"><stop offset="0" stop-color="#333"/><stop offset=".057" stop-color="#4c4c4c"/><stop offset=".179" stop-color="#7b7b7b"/><stop offset=".305" stop-color="#a3a3a3"/><stop offset=".434" stop-color="#c5c5c5"/><stop offset=".565" stop-color="#dedede"/><stop offset=".7" stop-color="#f1f1f1"/><stop offset=".842" stop-color="#fbfbfb"/><stop offset="1" stop-color="#fff"/></linearGradient><path d="M181.5 543.4c1.2 2.8 2.3 5.5 3.3 8.3 22.6-2.2 45.1-5.1 67.6-8.3h-70.9z" mask="url(#SVGID_7_)" fill="url(#SVGID_8_)"/></g></mask><linearGradient id="SVGID_9_" gradientUnits="userSpaceOnUse" x1="3.076" y1="547.509" x2="982.435" y2="547.509"><stop offset="0" stop-color="#8e80d5"/><stop offset=".14" stop-color="#aea4e1"/><stop offset=".298" stop-color="#cbc5ec"/><stop offset=".461" stop-color="#e2def4"/><stop offset=".628" stop-color="#f2f1fa"/><stop offset=".804" stop-color="#fcfbfe"/><stop offset="1" stop-color="#fff"/></linearGradient><path d="M181.5 543.4c1.2 2.8 2.3 5.5 3.3 8.3 22.6-2.2 45.1-5.1 67.6-8.3h-70.9z" fill="url(#SVGID_9_)"/><defs><filter id="Adobe_OpacityMaskFilter_6_" filterUnits="userSpaceOnUse" x="441.2" y="243.7" width="517.7" height="211.7"><feFlood result="back" flood-color="#fff" flood-opacity="1"/><feBlend in="SourceGraphic" in2="back"/></filter></defs><mask maskUnits="userSpaceOnUse" x="441.2" y="243.7" width="517.7" height="211.7" id="SVGID_10_"><g filter="url(#Adobe_OpacityMaskFilter_6_)"><defs><filter id="Adobe_OpacityMaskFilter_7_" filterUnits="userSpaceOnUse" x="441.2" y="243.7" width="517.7" height="211.7"><feFlood result="back" flood-color="#fff" flood-opacity="1"/><feBlend in="SourceGraphic" in2="back"/></filter></defs><linearGradient id="SVGID_11_" gradientUnits="userSpaceOnUse" x1="700.078" y1="439.941" x2="698.951" y2="182.872"><stop offset=".015" stop-color="#fff"/><stop offset="1" stop-color="#333"/></linearGradient><path mask="url(#SVGID_10_)" fill="url(#SVGID_11_)" d="M666.9 243.7L441.2 433 959 455.3 689.3 243.7z"/></g></mask><linearGradient id="SVGID_12_" gradientUnits="userSpaceOnUse" x1="700.078" y1="439.941" x2="698.951" y2="182.872"><stop offset=".015" stop-color="#8e80d5"/><stop offset="1" stop-color="#cec8ed"/></linearGradient><path fill="url(#SVGID_12_)" d="M666.9 243.7L441.2 433 959 455.3 689.3 243.7z"/><path class="st16" d="M937.9 354.1v.4h5v-.4zM935.6 354.5v-.4"/><defs><filter id="Adobe_OpacityMaskFilter_8_" filterUnits="userSpaceOnUse" x="512.2" y="203.9" width="50.3" height="36.8"><feFlood result="back" flood-color="#fff" flood-opacity="1"/><feBlend in="SourceGraphic" in2="back"/></filter></defs><mask maskUnits="userSpaceOnUse" x="512.2" y="203.9" width="50.3" height="36.8" id="SVGID_13_"><g filter="url(#Adobe_OpacityMaskFilter_8_)"><defs><filter id="Adobe_OpacityMaskFilter_9_" filterUnits="userSpaceOnUse" x="512.2" y="203.9" width="50.3" height="36.8"><feFlood result="back" flood-color="#fff" flood-opacity="1"/><feBlend in="SourceGraphic" in2="back"/></filter></defs><linearGradient id="SVGID_14_" gradientUnits="userSpaceOnUse" x1="494.086" y1="267.587" x2="495.419" y2="191.587" gradientTransform="matrix(-1 0 0 1 1032.069 0)"><stop offset="0" stop-color="#ccc"/><stop offset="1" stop-color="#999"/></linearGradient><path mask="url(#SVGID_13_)" fill="url(#SVGID_14_)" d="M559.5 229.5v-25.6h-3.9v28H548v-6.7h-28.1v6.7h-7.7v8.9h50.4v-11.3z"/></g></mask><linearGradient id="SVGID_15_" gradientUnits="userSpaceOnUse" x1="494.086" y1="267.587" x2="495.419" y2="191.587" gradientTransform="matrix(-1 0 0 1 1032.069 0)"><stop offset="0" stop-color="#8e80d5"/><stop offset="1" stop-color="#cec8ed"/></linearGradient><path fill="url(#SVGID_15_)" d="M559.5 229.5v-25.6h-3.9v28H548v-6.7h-28.1v6.7h-7.7v8.9h50.4v-11.3z"/><defs><filter id="Adobe_OpacityMaskFilter_10_" filterUnits="userSpaceOnUse" x="564.9" y="227.6" width="12.4" height="13.1"><feFlood result="back" flood-color="#fff" flood-opacity="1"/><feBlend in="SourceGraphic" in2="back"/></filter></defs><mask maskUnits="userSpaceOnUse" x="564.9" y="227.6" width="12.4" height="13.1" id="SVGID_16_"><g filter="url(#Adobe_OpacityMaskFilter_10_)"><defs><filter id="Adobe_OpacityMaskFilter_11_" filterUnits="userSpaceOnUse" x="564.9" y="227.6" width="12.4" height="13.1"><feFlood result="back" flood-color="#fff" flood-opacity="1"/><feBlend in="SourceGraphic" in2="back"/></filter></defs><linearGradient id="SVGID_17_" gradientUnits="userSpaceOnUse" x1="460.392" y1="266.996" x2="461.725" y2="190.996" gradientTransform="matrix(-1 0 0 1 1032.069 0)"><stop offset="0" stop-color="#ccc"/><stop offset="1" stop-color="#999"/></linearGradient><path mask="url(#SVGID_16_)" fill="url(#SVGID_17_)" d="M564.9 227.6h12.4v13.1h-12.4z"/></g></mask><linearGradient id="SVGID_18_" gradientUnits="userSpaceOnUse" x1="460.392" y1="266.996" x2="461.725" y2="190.996" gradientTransform="matrix(-1 0 0 1 1032.069 0)"><stop offset="0" stop-color="#8e80d5"/><stop offset="1" stop-color="#cec8ed"/></linearGradient><path fill="url(#SVGID_18_)" d="M564.9 227.6h12.4v13.1h-12.4z"/><defs><filter id="Adobe_OpacityMaskFilter_12_" filterUnits="userSpaceOnUse" x="579.2" y="212.9" width="10.3" height="27.9"><feFlood result="back" flood-color="#fff" flood-opacity="1"/><feBlend in="SourceGraphic" in2="back"/></filter></defs><mask maskUnits="userSpaceOnUse" x="579.2" y="212.9" width="10.3" height="27.9" id="SVGID_19_"><g filter="url(#Adobe_OpacityMaskFilter_12_)"><defs><filter id="Adobe_OpacityMaskFilter_13_" filterUnits="userSpaceOnUse" x="579.2" y="212.9" width="10.3" height="27.9"><feFlood result="back" flood-color="#fff" flood-opacity="1"/><feBlend in="SourceGraphic" in2="back"/></filter></defs><linearGradient id="SVGID_20_" gradientUnits="userSpaceOnUse" x1="583.572" y1="269.157" x2="584.905" y2="193.157"><stop offset="0" stop-color="#ccc"/><stop offset="1" stop-color="#999"/></linearGradient><path mask="url(#SVGID_19_)" fill="url(#SVGID_20_)" d="M579.2 212.9v27.9h10.3v-27.9z"/></g></mask><linearGradient id="SVGID_21_" gradientUnits="userSpaceOnUse" x1="583.572" y1="269.157" x2="584.905" y2="193.157"><stop offset="0" stop-color="#8e80d5"/><stop offset="1" stop-color="#cec8ed"/></linearGradient><path fill="url(#SVGID_21_)" d="M579.2 212.9v27.9h10.3v-27.9z"/><defs><filter id="Adobe_OpacityMaskFilter_14_" filterUnits="userSpaceOnUse" x="503.9" y="195.8" width="0" height=".1"><feFlood result="back" flood-color="#fff" flood-opacity="1"/><feBlend in="SourceGraphic" in2="back"/></filter></defs><mask maskUnits="userSpaceOnUse" x="503.9" y="195.8" width="0" height=".1" id="SVGID_22_"><g filter="url(#Adobe_OpacityMaskFilter_14_)"><defs><filter id="Adobe_OpacityMaskFilter_15_" filterUnits="userSpaceOnUse" x="503.9" y="195.8" width="0" height=".1"><feFlood result="back" flood-color="#fff" flood-opacity="1"/><feBlend in="SourceGraphic" in2="back"/></filter></defs><linearGradient id="SVGID_23_" gradientUnits="userSpaceOnUse" x1="502.681" y1="267.714" x2="504.014" y2="191.739"><stop offset="0" stop-color="#ccc"/><stop offset=".184" stop-color="#ccc"/><stop offset="1" stop-color="#fff"/></linearGradient><path d="M503.9 195.8c0 .1 0 0 0 0z" mask="url(#SVGID_22_)" fill="url(#SVGID_23_)"/></g></mask><linearGradient id="SVGID_24_" gradientUnits="userSpaceOnUse" x1="502.681" y1="267.714" x2="504.014" y2="191.739"><stop offset="0" stop-color="#76c"/><stop offset=".184" stop-color="#8e80d5"/><stop offset="1" stop-color="#cec8ed"/></linearGradient><path d="M503.9 195.8c0 .1 0 0 0 0z" fill="url(#SVGID_24_)"/><defs><filter id="Adobe_OpacityMaskFilter_16_" filterUnits="userSpaceOnUse" x="503.9" y="195.7" width="0" height=".1"><feFlood result="back" flood-color="#fff" flood-opacity="1"/><feBlend in="SourceGraphic" in2="back"/></filter></defs><mask maskUnits="userSpaceOnUse" x="503.9" y="195.7" width="0" height=".1" id="SVGID_25_"><g filter="url(#Adobe_OpacityMaskFilter_16_)"><defs><filter id="Adobe_OpacityMaskFilter_17_" filterUnits="userSpaceOnUse" x="503.9" y="195.7" width="0" height=".1"><feFlood result="back" flood-color="#fff" flood-opacity="1"/><feBlend in="SourceGraphic" in2="back"/></filter></defs><linearGradient id="SVGID_26_" gradientUnits="userSpaceOnUse" x1="502.678" y1="267.713" x2="504.011" y2="191.739"><stop offset="0" stop-color="#ccc"/><stop offset=".184" stop-color="#ccc"/><stop offset="1" stop-color="#fff"/></linearGradient><path d="M503.9 195.7z" mask="url(#SVGID_25_)" fill="url(#SVGID_26_)"/></g></mask><linearGradient id="SVGID_27_" gradientUnits="userSpaceOnUse" x1="502.678" y1="267.713" x2="504.011" y2="191.739"><stop offset="0" stop-color="#76c"/><stop offset=".184" stop-color="#8e80d5"/><stop offset="1" stop-color="#cec8ed"/></linearGradient><path d="M503.9 195.7z" fill="url(#SVGID_27_)"/><defs><filter id="Adobe_OpacityMaskFilter_18_" filterUnits="userSpaceOnUse" x="695" y="220.7" width="3.2" height="4.4"><feFlood result="back" flood-color="#fff" flood-opacity="1"/><feBlend in="SourceGraphic" in2="back"/></filter></defs><mask maskUnits="userSpaceOnUse" x="695" y="220.7" width="3.2" height="4.4" id="SVGID_28_"><g filter="url(#Adobe_OpacityMaskFilter_18_)"><defs><filter id="Adobe_OpacityMaskFilter_19_" filterUnits="userSpaceOnUse" x="695" y="220.7" width="3.2" height="4.4"><feFlood result="back" flood-color="#fff" flood-opacity="1"/><feBlend in="SourceGraphic" in2="back"/></filter></defs><linearGradient id="SVGID_29_" gradientUnits="userSpaceOnUse" x1="695.725" y1="271.125" x2="697.058" y2="195.124"><stop offset="0" stop-color="#ccc"/><stop offset="1" stop-color="#999"/></linearGradient><path mask="url(#SVGID_28_)" fill="url(#SVGID_29_)" d="M697.6 225.1l.6-4.4h-2.7l-.5 4.4z"/></g></mask><linearGradient id="SVGID_30_" gradientUnits="userSpaceOnUse" x1="695.725" y1="271.125" x2="697.058" y2="195.124"><stop offset="0" stop-color="#8e80d5"/><stop offset="1" stop-color="#cec8ed"/></linearGradient><path fill="url(#SVGID_30_)" d="M697.6 225.1l.6-4.4h-2.7l-.5 4.4z"/><defs><filter id="Adobe_OpacityMaskFilter_20_" filterUnits="userSpaceOnUse" x="682.5" y="220.7" width="3.4" height="4.4"><feFlood result="back" flood-color="#fff" flood-opacity="1"/><feBlend in="SourceGraphic" in2="back"/></filter></defs><mask maskUnits="userSpaceOnUse" x="682.5" y="220.7" width="3.4" height="4.4" id="SVGID_31_"><g filter="url(#Adobe_OpacityMaskFilter_20_)"><defs><filter id="Adobe_OpacityMaskFilter_21_" filterUnits="userSpaceOnUse" x="682.5" y="220.7" width="3.4" height="4.4"><feFlood result="back" flood-color="#fff" flood-opacity="1"/><feBlend in="SourceGraphic" in2="back"/></filter></defs><linearGradient id="SVGID_32_" gradientUnits="userSpaceOnUse" x1="683.325" y1="270.907" x2="684.659" y2="194.907"><stop offset="0" stop-color="#ccc"/><stop offset="1" stop-color="#999"/></linearGradient><path mask="url(#SVGID_31_)" fill="url(#SVGID_32_)" d="M685.3 225.1l.5-4.4H683l-.5 4.4z"/></g></mask><linearGradient id="SVGID_33_" gradientUnits="userSpaceOnUse" x1="683.325" y1="270.907" x2="684.659" y2="194.907"><stop offset="0" stop-color="#8e80d5"/><stop offset="1" stop-color="#cec8ed"/></linearGradient><path fill="url(#SVGID_33_)" d="M685.3 225.1l.5-4.4H683l-.5 4.4z"/><defs><filter id="Adobe_OpacityMaskFilter_22_" filterUnits="userSpaceOnUse" x="690.9" y="220.7" width="3.5" height="4.4"><feFlood result="back" flood-color="#fff" flood-opacity="1"/><feBlend in="SourceGraphic" in2="back"/></filter></defs><mask maskUnits="userSpaceOnUse" x="690.9" y="220.7" width="3.5" height="4.4" id="SVGID_34_"><g filter="url(#Adobe_OpacityMaskFilter_22_)"><defs><filter id="Adobe_OpacityMaskFilter_23_" filterUnits="userSpaceOnUse" x="690.9" y="220.7" width="3.5" height="4.4"><feFlood result="back" flood-color="#fff" flood-opacity="1"/><feBlend in="SourceGraphic" in2="back"/></filter></defs><linearGradient id="SVGID_35_" gradientUnits="userSpaceOnUse" x1="691.794" y1="271.055" x2="693.127" y2="195.055"><stop offset="0" stop-color="#ccc"/><stop offset="1" stop-color="#999"/></linearGradient><path mask="url(#SVGID_34_)" fill="url(#SVGID_35_)" d="M693.9 225.1l.5-4.4h-3l-.5 4.4z"/></g></mask><linearGradient id="SVGID_36_" gradientUnits="userSpaceOnUse" x1="691.794" y1="271.055" x2="693.127" y2="195.055"><stop offset="0" stop-color="#8e80d5"/><stop offset="1" stop-color="#cec8ed"/></linearGradient><path fill="url(#SVGID_36_)" d="M693.9 225.1l.5-4.4h-3l-.5 4.4z"/><defs><filter id="Adobe_OpacityMaskFilter_24_" filterUnits="userSpaceOnUse" x="672.5" y="220.7" width="9.4" height="20.3"><feFlood result="back" flood-color="#fff" flood-opacity="1"/><feBlend in="SourceGraphic" in2="back"/></filter></defs><mask maskUnits="userSpaceOnUse" x="672.5" y="220.7" width="9.4" height="20.3" id="SVGID_37_"><g filter="url(#Adobe_OpacityMaskFilter_24_)"><defs><filter id="Adobe_OpacityMaskFilter_25_" filterUnits="userSpaceOnUse" x="672.5" y="220.7" width="9.4" height="20.3"><feFlood result="back" flood-color="#fff" flood-opacity="1"/><feBlend in="SourceGraphic" in2="back"/></filter></defs><linearGradient id="SVGID_38_" gradientUnits="userSpaceOnUse" x1="676.43" y1="270.786" x2="677.763" y2="194.786"><stop offset="0" stop-color="#ccc"/><stop offset="1" stop-color="#999"/></linearGradient><path d="M681.2 226.2h-.5c-.3 0-.6-.3-.6-.6s.2-.6.6-.6h.6l.5-4.4h-2.2l-1.9 13.2c0 .3-.3.5-.6.5h-4.8l1.7 6.7h5.2l2-14.8z" mask="url(#SVGID_37_)" fill="url(#SVGID_38_)"/></g></mask><linearGradient id="SVGID_39_" gradientUnits="userSpaceOnUse" x1="676.43" y1="270.786" x2="677.763" y2="194.786"><stop offset="0" stop-color="#8e80d5"/><stop offset="1" stop-color="#cec8ed"/></linearGradient><path d="M681.2 226.2h-.5c-.3 0-.6-.3-.6-.6s.2-.6.6-.6h.6l.5-4.4h-2.2l-1.9 13.2c0 .3-.3.5-.6.5h-4.8l1.7 6.7h5.2l2-14.8z" fill="url(#SVGID_39_)"/><defs><filter id="Adobe_OpacityMaskFilter_26_" filterUnits="userSpaceOnUse" x="639.9" y="234.5" width="16" height="6.5"><feFlood result="back" flood-color="#fff" flood-opacity="1"/><feBlend in="SourceGraphic" in2="back"/></filter></defs><mask maskUnits="userSpaceOnUse" x="639.9" y="234.5" width="16" height="6.5" id="SVGID_40_"><g filter="url(#Adobe_OpacityMaskFilter_26_)"><defs><filter id="Adobe_OpacityMaskFilter_27_" filterUnits="userSpaceOnUse" x="639.9" y="234.5" width="16" height="6.5"><feFlood result="back" flood-color="#fff" flood-opacity="1"/><feBlend in="SourceGraphic" in2="back"/></filter></defs><linearGradient id="SVGID_41_" gradientUnits="userSpaceOnUse" x1="647.323" y1="270.275" x2="648.656" y2="194.275"><stop offset="0" stop-color="#ccc"/><stop offset="1" stop-color="#999"/></linearGradient><path mask="url(#SVGID_40_)" fill="url(#SVGID_41_)" d="M655.9 234.5h-16l.4 6.5h15.6z"/></g></mask><linearGradient id="SVGID_42_" gradientUnits="userSpaceOnUse" x1="647.323" y1="270.275" x2="648.656" y2="194.275"><stop offset="0" stop-color="#8e80d5"/><stop offset="1" stop-color="#cec8ed"/></linearGradient><path fill="url(#SVGID_42_)" d="M655.9 234.5h-16l.4 6.5h15.6z"/><defs><filter id="Adobe_OpacityMaskFilter_28_" filterUnits="userSpaceOnUse" x="625.9" y="187.2" width="19.9" height="8.3"><feFlood result="back" flood-color="#fff" flood-opacity="1"/><feBlend in="SourceGraphic" in2="back"/></filter></defs><mask maskUnits="userSpaceOnUse" x="625.9" y="187.2" width="19.9" height="8.3" id="SVGID_43_"><g filter="url(#Adobe_OpacityMaskFilter_28_)"><defs><filter id="Adobe_OpacityMaskFilter_29_" filterUnits="userSpaceOnUse" x="625.9" y="187.2" width="19.9" height="8.3"><feFlood result="back" flood-color="#fff" flood-opacity="1"/><feBlend in="SourceGraphic" in2="back"/></filter></defs><linearGradient id="SVGID_44_" gradientUnits="userSpaceOnUse" x1="634.59" y1="270.052" x2="635.923" y2="194.052"><stop offset="0" stop-color="#ccc"/><stop offset="1" stop-color="#999"/></linearGradient><path d="M635.9 187.2c-1.3 3.7-4.9 6.8-9.7 8.2l-.3.1h19.9l-.3-.1c-4.7-1.5-8.3-4.5-9.6-8.2z" mask="url(#SVGID_43_)" fill="url(#SVGID_44_)"/></g></mask><linearGradient id="SVGID_45_" gradientUnits="userSpaceOnUse" x1="634.59" y1="270.052" x2="635.923" y2="194.052"><stop offset="0" stop-color="#8e80d5"/><stop offset="1" stop-color="#cec8ed"/></linearGradient><path d="M635.9 187.2c-1.3 3.7-4.9 6.8-9.7 8.2l-.3.1h19.9l-.3-.1c-4.7-1.5-8.3-4.5-9.6-8.2z" fill="url(#SVGID_45_)"/><defs><filter id="Adobe_OpacityMaskFilter_30_" filterUnits="userSpaceOnUse" x="657" y="193.8" width="16" height="47.2"><feFlood result="back" flood-color="#fff" flood-opacity="1"/><feBlend in="SourceGraphic" in2="back"/></filter></defs><mask maskUnits="userSpaceOnUse" x="657" y="193.8" width="16" height="47.2" id="SVGID_46_"><g filter="url(#Adobe_OpacityMaskFilter_30_)"><defs><filter id="Adobe_OpacityMaskFilter_31_" filterUnits="userSpaceOnUse" x="657" y="193.8" width="16" height="47.2"><feFlood result="back" flood-color="#fff" flood-opacity="1"/><feBlend in="SourceGraphic" in2="back"/></filter></defs><linearGradient id="SVGID_47_" gradientUnits="userSpaceOnUse" x1="664.072" y1="270.569" x2="665.406" y2="194.569"><stop offset="0" stop-color="#ccc"/><stop offset="1" stop-color="#999"/></linearGradient><path d="M673 241l-.9-3.4h-8c-.3 0-.6-.3-.6-.6s.2-.6.6-.6h7.8l-1.1-4.4h-8.1c-.3 0-.6-.3-.6-.6s.2-.6.6-.6h7.8l-1-4h-7.8c-.3 0-.6-.3-.6-.6s.2-.6.6-.6h7.6l-4.5-17.6h-5.6c-.3 0-.6-.3-.6-.6s.2-.6.6-.6h5.3l-.8-3h-4.5c-.3 0-.6-.3-.6-.6s.2-.6.6-.6h4.2l-.7-2.7h-3.6c-.3 0-.6-.3-.6-.6s.2-.6.6-.6h3.3l-1.4-5.5h-4V240.5h16z" mask="url(#SVGID_46_)" fill="url(#SVGID_47_)"/></g></mask><linearGradient id="SVGID_48_" gradientUnits="userSpaceOnUse" x1="664.072" y1="270.569" x2="665.406" y2="194.569"><stop offset="0" stop-color="#8e80d5"/><stop offset="1" stop-color="#cec8ed"/></linearGradient><path d="M673 241l-.9-3.4h-8c-.3 0-.6-.3-.6-.6s.2-.6.6-.6h7.8l-1.1-4.4h-8.1c-.3 0-.6-.3-.6-.6s.2-.6.6-.6h7.8l-1-4h-7.8c-.3 0-.6-.3-.6-.6s.2-.6.6-.6h7.6l-4.5-17.6h-5.6c-.3 0-.6-.3-.6-.6s.2-.6.6-.6h5.3l-.8-3h-4.5c-.3 0-.6-.3-.6-.6s.2-.6.6-.6h4.2l-.7-2.7h-3.6c-.3 0-.6-.3-.6-.6s.2-.6.6-.6h3.3l-1.4-5.5h-4V240.5h16z" fill="url(#SVGID_48_)"/><defs><filter id="Adobe_OpacityMaskFilter_32_" filterUnits="userSpaceOnUse" x="705.9" y="173.3" width="179.2" height="67.8"><feFlood result="back" flood-color="#fff" flood-opacity="1"/><feBlend in="SourceGraphic" in2="back"/></filter></defs><mask maskUnits="userSpaceOnUse" x="705.9" y="173.3" width="179.2" height="67.8" id="SVGID_49_"><g filter="url(#Adobe_OpacityMaskFilter_32_)"><defs><filter id="Adobe_OpacityMaskFilter_33_" filterUnits="userSpaceOnUse" x="705.9" y="173.3" width="179.2" height="67.8"><feFlood result="back" flood-color="#fff" flood-opacity="1"/><feBlend in="SourceGraphic" in2="back"/></filter></defs><linearGradient id="SVGID_50_" gradientUnits="userSpaceOnUse" x1="794.503" y1="272.857" x2="795.836" y2="196.857"><stop offset="0" stop-color="#ccc"/><stop offset="1" stop-color="#999"/></linearGradient><path d="M885 241v-8.9h-9.2v-23.4l-9.7-9.8-9.7 9.8v23.4h-18.7v-41.4h-17V186H815v-12.7h-17.7V186h-4.9v46.2H786v-16c0-3.3-2.6-5.9-5.9-5.9-1.6 0-3 .6-4.1 1.7-1.1 1.1-1.7 2.6-1.7 4.2v16h-13.9v-6.6h-28.1v6.6h-7.5v-27.9h-3.9v25.6H715V195h-9v46h153.8v-29.2c0-.3.2-.6.6-.6s.6.3.6.6V241h2.4v-29.2c0-.3.2-.6.6-.6.3 0 .6.3.6.6V241h2.7v-29.2c0-.3.2-.6.6-.6s.6.3.6.6V241H885z" mask="url(#SVGID_49_)" fill="url(#SVGID_50_)"/></g></mask><linearGradient id="SVGID_51_" gradientUnits="userSpaceOnUse" x1="794.503" y1="272.857" x2="795.836" y2="196.857"><stop offset="0" stop-color="#8e80d5"/><stop offset="1" stop-color="#cec8ed"/></linearGradient><path d="M885 241v-8.9h-9.2v-23.4l-9.7-9.8-9.7 9.8v23.4h-18.7v-41.4h-17V186H815v-12.7h-17.7V186h-4.9v46.2H786v-16c0-3.3-2.6-5.9-5.9-5.9-1.6 0-3 .6-4.1 1.7-1.1 1.1-1.7 2.6-1.7 4.2v16h-13.9v-6.6h-28.1v6.6h-7.5v-27.9h-3.9v25.6H715V195h-9v46h153.8v-29.2c0-.3.2-.6.6-.6s.6.3.6.6V241h2.4v-29.2c0-.3.2-.6.6-.6.3 0 .6.3.6.6V241h2.7v-29.2c0-.3.2-.6.6-.6s.6.3.6.6V241H885z" fill="url(#SVGID_51_)"/><defs><filter id="Adobe_OpacityMaskFilter_34_" filterUnits="userSpaceOnUse" x="696.7" y="220.7" width="8" height="20.3"><feFlood result="back" flood-color="#fff" flood-opacity="1"/><feBlend in="SourceGraphic" in2="back"/></filter></defs><mask maskUnits="userSpaceOnUse" x="696.7" y="220.7" width="8" height="20.3" id="SVGID_52_"><g filter="url(#Adobe_OpacityMaskFilter_34_)"><defs><filter id="Adobe_OpacityMaskFilter_35_" filterUnits="userSpaceOnUse" x="696.7" y="220.7" width="8" height="20.3"><feFlood result="back" flood-color="#fff" flood-opacity="1"/><feBlend in="SourceGraphic" in2="back"/></filter></defs><linearGradient id="SVGID_53_" gradientUnits="userSpaceOnUse" x1="700.224" y1="271.203" x2="701.558" y2="195.203"><stop offset="0" stop-color="#ccc"/><stop offset="1" stop-color="#999"/></linearGradient><path d="M704.8 241v-6h-4.7c-.2 0-.3-.1-.4-.2-.1-.1-.2-.3-.1-.5l2-13.7h-2.2l-2.5 20.3h7.9z" mask="url(#SVGID_52_)" fill="url(#SVGID_53_)"/></g></mask><linearGradient id="SVGID_54_" gradientUnits="userSpaceOnUse" x1="700.224" y1="271.203" x2="701.558" y2="195.203"><stop offset="0" stop-color="#8e80d5"/><stop offset="1" stop-color="#cec8ed"/></linearGradient><path d="M704.8 241v-6h-4.7c-.2 0-.3-.1-.4-.2-.1-.1-.2-.3-.1-.5l2-13.7h-2.2l-2.5 20.3h7.9z" fill="url(#SVGID_54_)"/><g><defs><filter id="Adobe_OpacityMaskFilter_36_" filterUnits="userSpaceOnUse" x="591.9" y="227.9" width="12.4" height="13.1"><feFlood result="back" flood-color="#fff" flood-opacity="1"/><feBlend in="SourceGraphic" in2="back"/></filter></defs><mask maskUnits="userSpaceOnUse" x="591.9" y="227.9" width="12.4" height="13.1" id="SVGID_55_"><g filter="url(#Adobe_OpacityMaskFilter_36_)"><defs><filter id="Adobe_OpacityMaskFilter_37_" filterUnits="userSpaceOnUse" x="591.9" y="227.9" width="12.4" height="13.1"><feFlood result="back" flood-color="#fff" flood-opacity="1"/><feBlend in="SourceGraphic" in2="back"/></filter></defs><linearGradient id="SVGID_56_" gradientUnits="userSpaceOnUse" x1="597.511" y1="269.401" x2="598.844" y2="193.401"><stop offset="0" stop-color="#ccc"/><stop offset="1" stop-color="#999"/></linearGradient><path mask="url(#SVGID_55_)" fill="url(#SVGID_56_)" d="M591.9 227.9h12.4V241h-12.4z"/></g></mask><linearGradient id="SVGID_57_" gradientUnits="userSpaceOnUse" x1="597.511" y1="269.401" x2="598.844" y2="193.401"><stop offset="0" stop-color="#8e80d5"/><stop offset="1" stop-color="#cec8ed"/></linearGradient><path fill="url(#SVGID_57_)" d="M591.9 227.9h12.4V241h-12.4z"/></g><g><defs><filter id="Adobe_OpacityMaskFilter_38_" filterUnits="userSpaceOnUse" x="686.4" y="220.7" width="3.9" height="4.4"><feFlood result="back" flood-color="#fff" flood-opacity="1"/><feBlend in="SourceGraphic" in2="back"/></filter></defs><mask maskUnits="userSpaceOnUse" x="686.4" y="220.7" width="3.9" height="4.4" id="SVGID_58_"><g filter="url(#Adobe_OpacityMaskFilter_38_)"><defs><filter id="Adobe_OpacityMaskFilter_39_" filterUnits="userSpaceOnUse" x="686.4" y="220.7" width="3.9" height="4.4"><feFlood result="back" flood-color="#fff" flood-opacity="1"/><feBlend in="SourceGraphic" in2="back"/></filter></defs><linearGradient id="SVGID_59_" gradientUnits="userSpaceOnUse" x1="687.517" y1="270.98" x2="688.851" y2="194.98"><stop offset="0" stop-color="#ccc"/><stop offset="1" stop-color="#999"/></linearGradient><path mask="url(#SVGID_58_)" fill="url(#SVGID_59_)" d="M689.8 225.1l.5-4.4H687l-.6 4.4z"/></g></mask><linearGradient id="SVGID_60_" gradientUnits="userSpaceOnUse" x1="687.517" y1="270.98" x2="688.851" y2="194.98"><stop offset="0" stop-color="#8e80d5"/><stop offset="1" stop-color="#cec8ed"/></linearGradient><path fill="url(#SVGID_60_)" d="M689.8 225.1l.5-4.4H687l-.6 4.4z"/></g><g><defs><filter id="Adobe_OpacityMaskFilter_40_" filterUnits="userSpaceOnUse" x="680.5" y="226.2" width="4.7" height="14.8"><feFlood result="back" flood-color="#fff" flood-opacity="1"/><feBlend in="SourceGraphic" in2="back"/></filter></defs><mask maskUnits="userSpaceOnUse" x="680.5" y="226.2" width="4.7" height="14.8" id="SVGID_61_"><g filter="url(#Adobe_OpacityMaskFilter_40_)"><defs><filter id="Adobe_OpacityMaskFilter_41_" filterUnits="userSpaceOnUse" x="680.5" y="226.2" width="4.7" height="14.8"><feFlood result="back" flood-color="#fff" flood-opacity="1"/><feBlend in="SourceGraphic" in2="back"/></filter></defs><linearGradient id="SVGID_62_" gradientUnits="userSpaceOnUse" x1="682.168" y1="270.887" x2="683.501" y2="194.886"><stop offset="0" stop-color="#ccc"/><stop offset="1" stop-color="#999"/></linearGradient><path mask="url(#SVGID_61_)" fill="url(#SVGID_62_)" d="M682.3 226.2l-1.8 14.8h2.8l1.9-14.8z"/></g></mask><linearGradient id="SVGID_63_" gradientUnits="userSpaceOnUse" x1="682.168" y1="270.887" x2="683.501" y2="194.886"><stop offset="0" stop-color="#8e80d5"/><stop offset="1" stop-color="#cec8ed"/></linearGradient><path fill="url(#SVGID_63_)" d="M682.3 226.2l-1.8 14.8h2.8l1.9-14.8z"/></g><g><defs><filter id="Adobe_OpacityMaskFilter_42_" filterUnits="userSpaceOnUse" x="684.4" y="226.2" width="5.2" height="14.8"><feFlood result="back" flood-color="#fff" flood-opacity="1"/><feBlend in="SourceGraphic" in2="back"/></filter></defs><mask maskUnits="userSpaceOnUse" x="684.4" y="226.2" width="5.2" height="14.8" id="SVGID_64_"><g filter="url(#Adobe_OpacityMaskFilter_42_)"><defs><filter id="Adobe_OpacityMaskFilter_43_" filterUnits="userSpaceOnUse" x="684.4" y="226.2" width="5.2" height="14.8"><feFlood result="back" flood-color="#fff" flood-opacity="1"/><feBlend in="SourceGraphic" in2="back"/></filter></defs><linearGradient id="SVGID_65_" gradientUnits="userSpaceOnUse" x1="686.36" y1="270.96" x2="687.693" y2="194.96"><stop offset="0" stop-color="#ccc"/><stop offset="1" stop-color="#999"/></linearGradient><path mask="url(#SVGID_64_)" fill="url(#SVGID_65_)" d="M686.3 226.2l-1.9 14.8h3.4l1.8-14.8z"/></g></mask><linearGradient id="SVGID_66_" gradientUnits="userSpaceOnUse" x1="686.36" y1="270.96" x2="687.693" y2="194.96"><stop offset="0" stop-color="#8e80d5"/><stop offset="1" stop-color="#cec8ed"/></linearGradient><path fill="url(#SVGID_66_)" d="M686.3 226.2l-1.9 14.8h3.4l1.8-14.8z"/></g><g><defs><filter id="Adobe_OpacityMaskFilter_44_" filterUnits="userSpaceOnUse" x="616.9" y="227.9" width="15.5" height="13.1"><feFlood result="back" flood-color="#fff" flood-opacity="1"/><feBlend in="SourceGraphic" in2="back"/></filter></defs><mask maskUnits="userSpaceOnUse" x="616.9" y="227.9" width="15.5" height="13.1" id="SVGID_67_"><g filter="url(#Adobe_OpacityMaskFilter_44_)"><defs><filter id="Adobe_OpacityMaskFilter_45_" filterUnits="userSpaceOnUse" x="616.9" y="227.9" width="15.5" height="13.1"><feFlood result="back" flood-color="#fff" flood-opacity="1"/><feBlend in="SourceGraphic" in2="back"/></filter></defs><linearGradient id="SVGID_68_" gradientUnits="userSpaceOnUse" x1="623.843" y1="269.863" x2="625.176" y2="193.863"><stop offset="0" stop-color="#ccc"/><stop offset="1" stop-color="#999"/></linearGradient><path mask="url(#SVGID_67_)" fill="url(#SVGID_68_)" d="M632.3 227.9h-15.4V241h14.6z"/></g></mask><linearGradient id="SVGID_69_" gradientUnits="userSpaceOnUse" x1="623.843" y1="269.863" x2="625.176" y2="193.863"><stop offset="0" stop-color="#8e80d5"/><stop offset="1" stop-color="#cec8ed"/></linearGradient><path fill="url(#SVGID_69_)" d="M632.3 227.9h-15.4V241h14.6z"/></g><g><defs><filter id="Adobe_OpacityMaskFilter_46_" filterUnits="userSpaceOnUse" x="690.4" y="226.2" width="3.3" height="2.5"><feFlood result="back" flood-color="#fff" flood-opacity="1"/><feBlend in="SourceGraphic" in2="back"/></filter></defs><mask maskUnits="userSpaceOnUse" x="690.4" y="226.2" width="3.3" height="2.5" id="SVGID_70_"><g filter="url(#Adobe_OpacityMaskFilter_46_)"><defs><filter id="Adobe_OpacityMaskFilter_47_" filterUnits="userSpaceOnUse" x="690.4" y="226.2" width="3.3" height="2.5"><feFlood result="back" flood-color="#fff" flood-opacity="1"/><feBlend in="SourceGraphic" in2="back"/></filter></defs><linearGradient id="SVGID_71_" gradientUnits="userSpaceOnUse" x1="691.3" y1="271.047" x2="692.633" y2="195.046"><stop offset="0" stop-color="#ccc"/><stop offset="1" stop-color="#999"/></linearGradient><path mask="url(#SVGID_70_)" fill="url(#SVGID_71_)" d="M693.4 228.7l.3-2.5h-3l-.3 2.5z"/></g></mask><linearGradient id="SVGID_72_" gradientUnits="userSpaceOnUse" x1="691.3" y1="271.047" x2="692.633" y2="195.046"><stop offset="0" stop-color="#8e80d5"/><stop offset="1" stop-color="#cec8ed"/></linearGradient><path fill="url(#SVGID_72_)" d="M693.4 228.7l.3-2.5h-3l-.3 2.5z"/></g><g><defs><filter id="Adobe_OpacityMaskFilter_48_" filterUnits="userSpaceOnUse" x="625.9" y="196.6" width="19.9" height="44.4"><feFlood result="back" flood-color="#fff" flood-opacity="1"/><feBlend in="SourceGraphic" in2="back"/></filter></defs><mask maskUnits="userSpaceOnUse" x="625.9" y="196.6" width="19.9" height="44.4" id="SVGID_73_"><g filter="url(#Adobe_OpacityMaskFilter_48_)"><defs><filter id="Adobe_OpacityMaskFilter_49_" filterUnits="userSpaceOnUse" x="625.9" y="196.6" width="19.9" height="44.4"><feFlood result="back" flood-color="#fff" flood-opacity="1"/><feBlend in="SourceGraphic" in2="back"/></filter></defs><linearGradient id="SVGID_74_" gradientUnits="userSpaceOnUse" x1="634.609" y1="270.052" x2="635.943" y2="194.052"><stop offset="0" stop-color="#ccc"/><stop offset="1" stop-color="#999"/></linearGradient><path d="M637.1 206.6c-.2-3.2 1.3-6.2 3.9-7.9 1.4-.9 2.9-1.6 4.6-2.1l.3-.1H626l.3.1c1.7.5 3.3 1.2 4.6 2.1 2.6 1.7 4.1 4.7 3.9 7.9l-2.1 34.4h6.5l-2.1-34.4z" mask="url(#SVGID_73_)" fill="url(#SVGID_74_)"/></g></mask><linearGradient id="SVGID_75_" gradientUnits="userSpaceOnUse" x1="634.609" y1="270.052" x2="635.943" y2="194.052"><stop offset="0" stop-color="#8e80d5"/><stop offset="1" stop-color="#cec8ed"/></linearGradient><path d="M637.1 206.6c-.2-3.2 1.3-6.2 3.9-7.9 1.4-.9 2.9-1.6 4.6-2.1l.3-.1H626l.3.1c1.7.5 3.3 1.2 4.6 2.1 2.6 1.7 4.1 4.7 3.9 7.9l-2.1 34.4h6.5l-2.1-34.4z" fill="url(#SVGID_75_)"/></g><g><defs><filter id="Adobe_OpacityMaskFilter_50_" filterUnits="userSpaceOnUse" x="694.5" y="226.2" width="3" height="2.5"><feFlood result="back" flood-color="#fff" flood-opacity="1"/><feBlend in="SourceGraphic" in2="back"/></filter></defs><mask maskUnits="userSpaceOnUse" x="694.5" y="226.2" width="3" height="2.5" id="SVGID_76_"><g filter="url(#Adobe_OpacityMaskFilter_50_)"><defs><filter id="Adobe_OpacityMaskFilter_51_" filterUnits="userSpaceOnUse" x="694.5" y="226.2" width="3" height="2.5"><feFlood result="back" flood-color="#fff" flood-opacity="1"/><feBlend in="SourceGraphic" in2="back"/></filter></defs><linearGradient id="SVGID_77_" gradientUnits="userSpaceOnUse" x1="695.231" y1="271.116" x2="696.564" y2="195.115"><stop offset="0" stop-color="#ccc"/><stop offset="1" stop-color="#999"/></linearGradient><path mask="url(#SVGID_76_)" fill="url(#SVGID_77_)" d="M694.5 228.7h2.7l.3-2.5h-2.7z"/></g></mask><linearGradient id="SVGID_78_" gradientUnits="userSpaceOnUse" x1="695.231" y1="271.116" x2="696.564" y2="195.115"><stop offset="0" stop-color="#8e80d5"/><stop offset="1" stop-color="#cec8ed"/></linearGradient><path fill="url(#SVGID_78_)" d="M694.5 228.7h2.7l.3-2.5h-2.7z"/></g><g><defs><filter id="Adobe_OpacityMaskFilter_52_" filterUnits="userSpaceOnUse" x="688.9" y="229.9" width="4.4" height="11.2"><feFlood result="back" flood-color="#fff" flood-opacity="1"/><feBlend in="SourceGraphic" in2="back"/></filter></defs><mask maskUnits="userSpaceOnUse" x="688.9" y="229.9" width="4.4" height="11.2" id="SVGID_79_"><g filter="url(#Adobe_OpacityMaskFilter_52_)"><defs><filter id="Adobe_OpacityMaskFilter_53_" filterUnits="userSpaceOnUse" x="688.9" y="229.9" width="4.4" height="11.2"><feFlood result="back" flood-color="#fff" flood-opacity="1"/><feBlend in="SourceGraphic" in2="back"/></filter></defs><linearGradient id="SVGID_80_" gradientUnits="userSpaceOnUse" x1="690.439" y1="271.032" x2="691.772" y2="195.031"><stop offset="0" stop-color="#ccc"/><stop offset="1" stop-color="#999"/></linearGradient><path mask="url(#SVGID_79_)" fill="url(#SVGID_80_)" d="M690.3 229.9l-1.4 11.1h3l1.4-11.1z"/></g></mask><linearGradient id="SVGID_81_" gradientUnits="userSpaceOnUse" x1="690.439" y1="271.032" x2="691.772" y2="195.031"><stop offset="0" stop-color="#8e80d5"/><stop offset="1" stop-color="#cec8ed"/></linearGradient><path fill="url(#SVGID_81_)" d="M690.3 229.9l-1.4 11.1h3l1.4-11.1z"/></g><g><defs><filter id="Adobe_OpacityMaskFilter_54_" filterUnits="userSpaceOnUse" x="693" y="229.9" width="4" height="11.2"><feFlood result="back" flood-color="#fff" flood-opacity="1"/><feBlend in="SourceGraphic" in2="back"/></filter></defs><mask maskUnits="userSpaceOnUse" x="693" y="229.9" width="4" height="11.2" id="SVGID_82_"><g filter="url(#Adobe_OpacityMaskFilter_54_)"><defs><filter id="Adobe_OpacityMaskFilter_55_" filterUnits="userSpaceOnUse" x="693" y="229.9" width="4" height="11.2"><feFlood result="back" flood-color="#fff" flood-opacity="1"/><feBlend in="SourceGraphic" in2="back"/></filter></defs><linearGradient id="SVGID_83_" gradientUnits="userSpaceOnUse" x1="694.37" y1="271.101" x2="695.703" y2="195.1"><stop offset="0" stop-color="#ccc"/><stop offset="1" stop-color="#999"/></linearGradient><path mask="url(#SVGID_82_)" fill="url(#SVGID_83_)" d="M693 241h2.6l1.4-11.1h-2.6z"/></g></mask><linearGradient id="SVGID_84_" gradientUnits="userSpaceOnUse" x1="694.37" y1="271.101" x2="695.703" y2="195.1"><stop offset="0" stop-color="#8e80d5"/><stop offset="1" stop-color="#cec8ed"/></linearGradient><path fill="url(#SVGID_84_)" d="M693 241h2.6l1.4-11.1h-2.6z"/></g><defs><filter id="Adobe_OpacityMaskFilter_56_" filterUnits="userSpaceOnUse" x="605.4" y="201.8" width="10.3" height="39.2"><feFlood result="back" flood-color="#fff" flood-opacity="1"/><feBlend in="SourceGraphic" in2="back"/></filter></defs><mask maskUnits="userSpaceOnUse" x="605.4" y="201.8" width="10.3" height="39.2" id="SVGID_85_"><g filter="url(#Adobe_OpacityMaskFilter_56_)"><defs><filter id="Adobe_OpacityMaskFilter_57_" filterUnits="userSpaceOnUse" x="605.4" y="201.8" width="10.3" height="39.2"><feFlood result="back" flood-color="#fff" flood-opacity="1"/><feBlend in="SourceGraphic" in2="back"/></filter></defs><linearGradient id="SVGID_86_" gradientUnits="userSpaceOnUse" x1="609.732" y1="269.616" x2="611.065" y2="193.616"><stop offset="0" stop-color="#ccc"/><stop offset="1" stop-color="#999"/></linearGradient><path mask="url(#SVGID_85_)" fill="url(#SVGID_86_)" d="M605.4 201.8V241h10.3V201.8z"/></g></mask><linearGradient id="SVGID_87_" gradientUnits="userSpaceOnUse" x1="609.732" y1="269.616" x2="611.065" y2="193.616"><stop offset="0" stop-color="#8e80d5"/><stop offset="1" stop-color="#cec8ed"/></linearGradient><path fill="url(#SVGID_87_)" d="M605.4 201.8V241h10.3V201.8z"/><g><defs><filter id="Adobe_OpacityMaskFilter_58_" filterUnits="userSpaceOnUse" x="621.5" y="196" width="0" height=".1"><feFlood result="back" flood-color="#fff" flood-opacity="1"/><feBlend in="SourceGraphic" in2="back"/></filter></defs><mask maskUnits="userSpaceOnUse" x="621.5" y="196" width="0" height=".1" id="SVGID_88_"><g filter="url(#Adobe_OpacityMaskFilter_58_)"><defs><filter id="Adobe_OpacityMaskFilter_59_" filterUnits="userSpaceOnUse" x="621.5" y="196" width="0" height=".1"><feFlood result="back" flood-color="#fff" flood-opacity="1"/><feBlend in="SourceGraphic" in2="back"/></filter></defs><linearGradient id="SVGID_89_" gradientUnits="userSpaceOnUse" x1="620.225" y1="269.811" x2="621.559" y2="193.799"><stop offset="0" stop-color="#ccc"/><stop offset="1" stop-color="#999"/></linearGradient><path d="M621.5 196.1s0-.1 0 0c0-.1 0 0 0 0z" mask="url(#SVGID_88_)" fill="url(#SVGID_89_)"/></g></mask><linearGradient id="SVGID_90_" gradientUnits="userSpaceOnUse" x1="620.225" y1="269.811" x2="621.559" y2="193.799"><stop offset="0" stop-color="#8e80d5"/><stop offset="1" stop-color="#cec8ed"/></linearGradient><path d="M621.5 196.1s0-.1 0 0c0-.1 0 0 0 0z" fill="url(#SVGID_90_)"/></g><g><defs><filter id="Adobe_OpacityMaskFilter_60_" filterUnits="userSpaceOnUse" x="650.3" y="196" width="0" height=".1"><feFlood result="back" flood-color="#fff" flood-opacity="1"/><feBlend in="SourceGraphic" in2="back"/></filter></defs><mask maskUnits="userSpaceOnUse" x="650.3" y="196" width="0" height=".1" id="SVGID_91_"><g filter="url(#Adobe_OpacityMaskFilter_60_)"><defs><filter id="Adobe_OpacityMaskFilter_61_" filterUnits="userSpaceOnUse" x="650.3" y="196" width="0" height=".1"><feFlood result="back" flood-color="#fff" flood-opacity="1"/><feBlend in="SourceGraphic" in2="back"/></filter></defs><linearGradient id="SVGID_92_" gradientUnits="userSpaceOnUse" x1="648.982" y1="270.279" x2="650.315" y2="194.305"><stop offset="0" stop-color="#ccc"/><stop offset="1" stop-color="#999"/></linearGradient><path d="M650.3 196.1s0-.1 0 0c0-.1 0 0 0 0z" mask="url(#SVGID_91_)" fill="url(#SVGID_92_)"/></g></mask><linearGradient id="SVGID_93_" gradientUnits="userSpaceOnUse" x1="648.982" y1="270.279" x2="650.315" y2="194.305"><stop offset="0" stop-color="#8e80d5"/><stop offset="1" stop-color="#cec8ed"/></linearGradient><path d="M650.3 196.1s0-.1 0 0c0-.1 0 0 0 0z" fill="url(#SVGID_93_)"/></g><g><defs><filter id="Adobe_OpacityMaskFilter_62_" filterUnits="userSpaceOnUse" x="621.5" y="195.9" width="0" height=".1"><feFlood result="back" flood-color="#fff" flood-opacity="1"/><feBlend in="SourceGraphic" in2="back"/></filter></defs><mask maskUnits="userSpaceOnUse" x="621.5" y="195.9" width="0" height=".1" id="SVGID_94_"><g filter="url(#Adobe_OpacityMaskFilter_62_)"><defs><filter id="Adobe_OpacityMaskFilter_63_" filterUnits="userSpaceOnUse" x="621.5" y="195.9" width="0" height=".1"><feFlood result="back" flood-color="#fff" flood-opacity="1"/><feBlend in="SourceGraphic" in2="back"/></filter></defs><linearGradient id="SVGID_95_" gradientUnits="userSpaceOnUse" x1="620.222" y1="269.844" x2="621.556" y2="193.798"><stop offset="0" stop-color="#ccc"/><stop offset="1" stop-color="#999"/></linearGradient><path d="M621.5 195.9c0 .1 0 .1 0 0 0 .1 0 0 0 0z" mask="url(#SVGID_94_)" fill="url(#SVGID_95_)"/></g></mask><linearGradient id="SVGID_96_" gradientUnits="userSpaceOnUse" x1="620.222" y1="269.844" x2="621.556" y2="193.798"><stop offset="0" stop-color="#8e80d5"/><stop offset="1" stop-color="#cec8ed"/></linearGradient><path d="M621.5 195.9c0 .1 0 .1 0 0 0 .1 0 0 0 0z" fill="url(#SVGID_96_)"/></g><g><defs><filter id="Adobe_OpacityMaskFilter_64_" filterUnits="userSpaceOnUse" x="650.3" y="195.9" width="0" height=".1"><feFlood result="back" flood-color="#fff" flood-opacity="1"/><feBlend in="SourceGraphic" in2="back"/></filter></defs><mask maskUnits="userSpaceOnUse" x="650.3" y="195.9" width="0" height=".1" id="SVGID_97_"><g filter="url(#Adobe_OpacityMaskFilter_64_)"><defs><filter id="Adobe_OpacityMaskFilter_65_" filterUnits="userSpaceOnUse" x="650.3" y="195.9" width="0" height=".1"><feFlood result="back" flood-color="#fff" flood-opacity="1"/><feBlend in="SourceGraphic" in2="back"/></filter></defs><linearGradient id="SVGID_98_" gradientUnits="userSpaceOnUse" x1="648.979" y1="270.28" x2="650.312" y2="194.305"><stop offset="0" stop-color="#ccc"/><stop offset="1" stop-color="#999"/></linearGradient><path d="M650.3 195.9s0 .1 0 0c0 .1 0 .1 0 0z" mask="url(#SVGID_97_)" fill="url(#SVGID_98_)"/></g></mask><linearGradient id="SVGID_99_" gradientUnits="userSpaceOnUse" x1="648.979" y1="270.28" x2="650.312" y2="194.305"><stop offset="0" stop-color="#8e80d5"/><stop offset="1" stop-color="#cec8ed"/></linearGradient><path d="M650.3 195.9s0 .1 0 0c0 .1 0 .1 0 0z" fill="url(#SVGID_99_)"/></g><g><defs><filter id="Adobe_OpacityMaskFilter_66_" filterUnits="userSpaceOnUse" x="658.6" y="199.2" width="4.1" height="1.1"><feFlood result="back" flood-color="#fff" flood-opacity="1"/><feBlend in="SourceGraphic" in2="back"/></filter></defs><mask maskUnits="userSpaceOnUse" x="658.6" y="199.2" width="4.1" height="1.1" id="SVGID_100_"><g filter="url(#Adobe_OpacityMaskFilter_66_)"><defs><filter id="Adobe_OpacityMaskFilter_67_" filterUnits="userSpaceOnUse" x="658.6" y="199.2" width="4.1" height="1.1"><feFlood result="back" flood-color="#fff" flood-opacity="1"/><feBlend in="SourceGraphic" in2="back"/></filter></defs><linearGradient id="SVGID_101_" gradientUnits="userSpaceOnUse" x1="659.405" y1="270.487" x2="660.739" y2="194.487"><stop offset="0" stop-color="#ccc"/><stop offset="1" stop-color="#999"/></linearGradient><path d="M658.6 199.8c0 .3.2.6.6.6h3.6l-.3-1.1h-3.3c-.4-.1-.6.2-.6.5z" mask="url(#SVGID_100_)" fill="url(#SVGID_101_)"/></g></mask><linearGradient id="SVGID_102_" gradientUnits="userSpaceOnUse" x1="659.405" y1="270.487" x2="660.739" y2="194.487"><stop offset="0" stop-color="#8e80d5"/><stop offset="1" stop-color="#cec8ed"/></linearGradient><path d="M658.6 199.8c0 .3.2.6.6.6h3.6l-.3-1.1h-3.3c-.4-.1-.6.2-.6.5z" fill="url(#SVGID_102_)"/></g><g><defs><filter id="Adobe_OpacityMaskFilter_68_" filterUnits="userSpaceOnUse" x="662.1" y="231" width="8.7" height="1.1"><feFlood result="back" flood-color="#fff" flood-opacity="1"/><feBlend in="SourceGraphic" in2="back"/></filter></defs><mask maskUnits="userSpaceOnUse" x="662.1" y="231" width="8.7" height="1.1" id="SVGID_103_"><g filter="url(#Adobe_OpacityMaskFilter_68_)"><defs><filter id="Adobe_OpacityMaskFilter_69_" filterUnits="userSpaceOnUse" x="662.1" y="231" width="8.7" height="1.1"><feFlood result="back" flood-color="#fff" flood-opacity="1"/><feBlend in="SourceGraphic" in2="back"/></filter></defs><linearGradient id="SVGID_104_" gradientUnits="userSpaceOnUse" x1="665.729" y1="270.599" x2="667.062" y2="194.597"><stop offset="0" stop-color="#ccc"/><stop offset="1" stop-color="#999"/></linearGradient><path d="M662.1 231.6c0 .3.2.6.6.6h8.1l-.3-1.1h-7.8c-.4-.1-.6.1-.6.5z" mask="url(#SVGID_103_)" fill="url(#SVGID_104_)"/></g></mask><linearGradient id="SVGID_105_" gradientUnits="userSpaceOnUse" x1="665.729" y1="270.599" x2="667.062" y2="194.597"><stop offset="0" stop-color="#8e80d5"/><stop offset="1" stop-color="#cec8ed"/></linearGradient><path d="M662.1 231.6c0 .3.2.6.6.6h8.1l-.3-1.1h-7.8c-.4-.1-.6.1-.6.5z" fill="url(#SVGID_105_)"/></g><g><path class="st16" d="M885 241h-16.9v.4l16.9-.1z"/></g><g><defs><filter id="Adobe_OpacityMaskFilter_70_" filterUnits="userSpaceOnUse" x="859.7" y="211.3" width="1.1" height="29.7"><feFlood result="back" flood-color="#fff" flood-opacity="1"/><feBlend in="SourceGraphic" in2="back"/></filter></defs><mask maskUnits="userSpaceOnUse" x="859.7" y="211.3" width="1.1" height="29.7" id="SVGID_106_"><g filter="url(#Adobe_OpacityMaskFilter_70_)"><defs><filter id="Adobe_OpacityMaskFilter_71_" filterUnits="userSpaceOnUse" x="859.7" y="211.3" width="1.1" height="29.7"><feFlood result="back" flood-color="#fff" flood-opacity="1"/><feBlend in="SourceGraphic" in2="back"/></filter></defs><linearGradient id="SVGID_107_" gradientUnits="userSpaceOnUse" x1="859.384" y1="273.995" x2="860.717" y2="197.996"><stop offset="0" stop-color="#ccc"/><stop offset="1" stop-color="#999"/></linearGradient><path d="M860.8 211.8c0-.3-.2-.6-.6-.6-.3 0-.6.3-.6.6V241h1.1v-29.2z" mask="url(#SVGID_106_)" fill="url(#SVGID_107_)"/></g></mask><linearGradient id="SVGID_108_" gradientUnits="userSpaceOnUse" x1="859.384" y1="273.995" x2="860.717" y2="197.996"><stop offset="0" stop-color="#8e80d5"/><stop offset="1" stop-color="#cec8ed"/></linearGradient><path d="M860.8 211.8c0-.3-.2-.6-.6-.6-.3 0-.6.3-.6.6V241h1.1v-29.2z" fill="url(#SVGID_108_)"/></g><g><defs><filter id="Adobe_OpacityMaskFilter_72_" filterUnits="userSpaceOnUse" x="863.2" y="211.3" width="1.1" height="29.7"><feFlood result="back" flood-color="#fff" flood-opacity="1"/><feBlend in="SourceGraphic" in2="back"/></filter></defs><mask maskUnits="userSpaceOnUse" x="863.2" y="211.3" width="1.1" height="29.7" id="SVGID_109_"><g filter="url(#Adobe_OpacityMaskFilter_72_)"><defs><filter id="Adobe_OpacityMaskFilter_73_" filterUnits="userSpaceOnUse" x="863.2" y="211.3" width="1.1" height="29.7"><feFlood result="back" flood-color="#fff" flood-opacity="1"/><feBlend in="SourceGraphic" in2="back"/></filter></defs><linearGradient id="SVGID_110_" gradientUnits="userSpaceOnUse" x1="862.912" y1="274.057" x2="864.245" y2="198.057"><stop offset="0" stop-color="#ccc"/><stop offset="1" stop-color="#999"/></linearGradient><path d="M864.3 211.8c0-.3-.2-.6-.6-.6-.3 0-.6.3-.6.6V241h1.1v-29.2z" mask="url(#SVGID_109_)" fill="url(#SVGID_110_)"/></g></mask><linearGradient id="SVGID_111_" gradientUnits="userSpaceOnUse" x1="862.912" y1="274.057" x2="864.245" y2="198.057"><stop offset="0" stop-color="#8e80d5"/><stop offset="1" stop-color="#cec8ed"/></linearGradient><path d="M864.3 211.8c0-.3-.2-.6-.6-.6-.3 0-.6.3-.6.6V241h1.1v-29.2z" fill="url(#SVGID_111_)"/></g><g><defs><filter id="Adobe_OpacityMaskFilter_74_" filterUnits="userSpaceOnUse" x="867" y="211.3" width="1.1" height="29.7"><feFlood result="back" flood-color="#fff" flood-opacity="1"/><feBlend in="SourceGraphic" in2="back"/></filter></defs><mask maskUnits="userSpaceOnUse" x="867" y="211.3" width="1.1" height="29.7" id="SVGID_112_"><g filter="url(#Adobe_OpacityMaskFilter_74_)"><defs><filter id="Adobe_OpacityMaskFilter_75_" filterUnits="userSpaceOnUse" x="867" y="211.3" width="1.1" height="29.7"><feFlood result="back" flood-color="#fff" flood-opacity="1"/><feBlend in="SourceGraphic" in2="back"/></filter></defs><linearGradient id="SVGID_113_" gradientUnits="userSpaceOnUse" x1="866.719" y1="274.124" x2="868.052" y2="198.124"><stop offset="0" stop-color="#ccc"/><stop offset="1" stop-color="#999"/></linearGradient><path d="M867.6 211.3c-.3 0-.6.3-.6.6V241h1.1v-29.2c0-.3-.2-.5-.5-.5z" mask="url(#SVGID_112_)" fill="url(#SVGID_113_)"/></g></mask><linearGradient id="SVGID_114_" gradientUnits="userSpaceOnUse" x1="866.719" y1="274.124" x2="868.052" y2="198.124"><stop offset="0" stop-color="#8e80d5"/><stop offset="1" stop-color="#cec8ed"/></linearGradient><path d="M867.6 211.3c-.3 0-.6.3-.6.6V241h1.1v-29.2c0-.3-.2-.5-.5-.5z" fill="url(#SVGID_114_)"/></g><g><defs><filter id="Adobe_OpacityMaskFilter_76_" filterUnits="userSpaceOnUse" x="709.9" y="193.9" width="1.1" height="1.1"><feFlood result="back" flood-color="#fff" flood-opacity="1"/><feBlend in="SourceGraphic" in2="back"/></filter></defs><mask maskUnits="userSpaceOnUse" x="709.9" y="193.9" width="1.1" height="1.1" id="SVGID_115_"><g filter="url(#Adobe_OpacityMaskFilter_76_)"><defs><filter id="Adobe_OpacityMaskFilter_77_" filterUnits="userSpaceOnUse" x="709.9" y="193.9" width="1.1" height="1.1"><feFlood result="back" flood-color="#fff" flood-opacity="1"/><feBlend in="SourceGraphic" in2="back"/></filter></defs><linearGradient id="SVGID_116_" gradientUnits="userSpaceOnUse" x1="709.148" y1="271.356" x2="710.481" y2="195.36"><stop offset="0" stop-color="#ccc"/><stop offset="1" stop-color="#999"/></linearGradient><path d="M710.5 195c.3 0 .6-.3.6-.6v-.6H710v.6c-.1.3.2.6.5.6z" mask="url(#SVGID_115_)" fill="url(#SVGID_116_)"/></g></mask><linearGradient id="SVGID_117_" gradientUnits="userSpaceOnUse" x1="709.148" y1="271.356" x2="710.481" y2="195.36"><stop offset="0" stop-color="#8e80d5"/><stop offset="1" stop-color="#cec8ed"/></linearGradient><path d="M710.5 195c.3 0 .6-.3.6-.6v-.6H710v.6c-.1.3.2.6.5.6z" fill="url(#SVGID_117_)"/></g><g><path class="st16" d="M397.8 179h21.1c1 0 1.9-.9 1.9-1.9 0-.9-.7-1.7-1.6-1.9.1-.3.1-.6.1-.9 0-2.4-1.9-4.3-4.3-4.3-1 0-1.9.3-2.6.9-.5-1.9-2.1-3.3-4.1-3.3-2.4 0-4.3 1.9-4.3 4.3v.5c-.6-.3-1.2-.5-2-.5-2 0-3.7 1.4-4.1 3.3h-.3c-1 0-1.9.9-1.9 1.9.2 1 1.1 1.9 2.1 1.9z"/></g><g><path class="st16" d="M448.5 118H491c2.1 0 3.8-1.7 3.8-3.9 0-2.1-1.7-3.9-3.8-3.9h-.5c-.9-3.8-4.3-6.6-8.3-6.6-1.4 0-2.8.4-3.9 1 0-.3.1-.6.1-1 0-4.8-3.8-8.7-8.6-8.7-4 0-7.4 2.8-8.3 6.6-1.4-1.1-3.3-1.8-5.2-1.8-4.7 0-8.6 3.9-8.6 8.7 0 .6.1 1.2.2 1.8-1.8.3-3.2 1.9-3.2 3.8 0 2.3 1.7 4 3.8 4z"/></g><g><path class="st16" d="M547.8 157.6h46.5c4 0 7.4-3.4 7.4-7.4s-3.3-7.4-7.4-7.4h-3.8c-1-3.7-4.4-6.5-8.3-6.5h-.3c-1.2-5.3-5.9-9.2-11.4-9.2-5 0-9.4 3.3-11 7.8-1.2-.6-2.5-.9-3.9-.9-4.8 0-8.7 3.9-8.7 8.8v.1c-3.6.4-6.5 3.6-6.5 7.4.1 4 3.4 7.3 7.4 7.3z"/></g><g><defs><filter id="Adobe_OpacityMaskFilter_78_" filterUnits="userSpaceOnUse" x="804.9" y="202.7" width="0" height="0"><feFlood result="back" flood-color="#fff" flood-opacity="1"/><feBlend in="SourceGraphic" in2="back"/></filter></defs><mask maskUnits="userSpaceOnUse" x="804.9" y="202.7" width="0" height="0" id="SVGID_118_"><g filter="url(#Adobe_OpacityMaskFilter_78_)"><defs><filter id="Adobe_OpacityMaskFilter_79_" filterUnits="userSpaceOnUse" x="804.9" y="202.7" width="0" height="0"><feFlood result="back" flood-color="#fff" flood-opacity="1"/><feBlend in="SourceGraphic" in2="back"/></filter></defs><linearGradient id="SVGID_119_" gradientUnits="userSpaceOnUse" x1="804.891" y1="202.75" x2="804.891" y2="202.75"><stop offset="0" stop-color="#ccc"/><stop offset="1" stop-color="#999"/></linearGradient></g></mask><linearGradient id="SVGID_120_" gradientUnits="userSpaceOnUse" x1="804.891" y1="202.75" x2="804.891" y2="202.75"><stop offset="0" stop-color="#8e80d5"/><stop offset="1" stop-color="#cec8ed"/></linearGradient></g><linearGradient id="SVGID_121_" gradientUnits="userSpaceOnUse" x1="709.738" y1="283.876" x2="707.256" y2="246.656"><stop offset=".024" stop-color="#76c"/><stop offset=".184" stop-color="#8e80d5"/><stop offset="1" stop-color="#cec8ed"/></linearGradient><path d="M724 263.6h2.2c.7 0 1.3-.6 1.3-1.3 0-.7-.6-1.3-1.3-1.3H724c-.7 0-1.3.6-1.3 1.3v.1h-.8c-.4-.8-.8-1.9-1.3-3-1-2.8-2.2-6.1-4.6-6.1h-15.2c-1.5 0-3.6 1.1-4.3 2.9-.2.6-.4 1.3-.6 2.2-.3 1.3-.6 2.8-1.2 3.9h-.6c0-.7-.6-1.3-1.3-1.3h-2.2c-.7 0-1.3.6-1.3 1.3 0 .7.6 1.3 1.3 1.3h2.2c.6 0 1.1-.4 1.3-1h.5c-.2.3-.4.6-.7.8-.4.3-.8.5-1.1.7-1.2.7-2.3 1.3-2.3 2.8v4c0 .6.1 1.1.4 1.6-.7.3-1.2 1-1.2 1.8 0 1 .9 1.9 1.9 1.9h.2v3.1c0 1.1.9 1.9 1.9 1.9h1.6c1.1 0 1.9-.9 1.9-1.9v-3.1h21.9v3.2c0 1 .8 1.9 1.9 1.9h1.7c1 0 1.9-.8 1.9-1.9v-3-.2h.4c1 0 1.9-.9 1.9-1.9 0-.7-.3-1.3-.9-1.6.3-.5.5-1.1.5-1.8v-4c0-1.9-2.3-3.1-3.7-3.5-.3-.1-.5-.3-.8-.7h.7c.3.5.8.9 1.3.9z" fill="url(#SVGID_121_)"/><g><linearGradient id="SVGID_122_" gradientUnits="userSpaceOnUse" x1="1279.087" y1="295.896" x2="1305.612" y2="295.896" gradientTransform="matrix(.3772 1.2201 -1.2657 .3913 366.223 -1435.26)"><stop offset=".024" stop-color="#76c"/><stop offset=".184" stop-color="#8e80d5"/><stop offset="1" stop-color="#cec8ed"/></linearGradient><path d="M481.8 252.9c2.7 3.5 6.2 6.2 9 9.7 1.3 1.6 2.5 3.6 2.2 5.6-.3 2.5-2.8 3.9-5.1 3.8-2.3-.1-4.5-1.4-6.6-2.6-3.3-2-6.7-4-9.4-6.8-2.8-2.8-4.9-6.7-5-10.7-.1-3.2 4.8-10.8 7.9-10.8 1.9 0 2.9 2.2 3.5 3.9 1 2.8 1.6 5.3 3.5 7.9z" fill="url(#SVGID_122_)"/><path d="M448.6 281.9l-6.5 33.7c-2.6 7.5-7.3 14.1-13.5 19.2l-15.4 12.5c.6 1.2 1.1 2.6 1.1 4.2.1 2.1-.6 4.2 0 6.2.2.5.6 1.6 1.1 2.4l26.3-20.3c5.2-4 9.4-9.1 12.3-14.9l14.1-28.4-19.5-14.6z" fill="#a195dc"/><path class="st164" d="M468.7 220.6c-.1-3.1 2.8-7.9 6.2-7.3 1.7.3 3.3 1.3 5 .2 1.3-.9 1.8-2.7 1.9-4.2.1-2-.3-4.2.5-6 .3-.6.7-1.2.8-1.9.1-.7 0-1.5-.7-1.8-.6-.3-1.3 0-2-.2-1.3-.4-1.4-4-1.6-5.4-1.7-8.6-11.8-4.2-13.9.5-1.5 3.4-3.1 8.8-2.2 13.7.3 1.4-1.9 6.6-3.7 8.1-1 .8-2.1 1.7-2.3 2.8 3.9.8 8 1.3 12 1.5zM499.5 356.7l6.8-1.8-4.3-31.6c-.7-5.1-2.2-10-4.6-14.6l-15.9-31.2-31.5 6.6 27.8 25.6c7 5.8 12 13.6 14.6 22.3l7.1 24.7z"/><path class="st165" d="M506.8 357.3c1.5-1 2.5-2.6 3.5-4 1.1-1.5 2.5-2.9 4.3-2.9 2.4-.1 4.3 2.4 4.2 4.7-.1 2.4-1.7 4.4-3.7 5.7-2 1.3-4.3 2-6.5 2.9-1.5.6-3.9 1.5-5.5 1.7-1.6.2-3.5-.8-4.2-2.2-2.1-4.6 5.8-4.6 7.9-5.9zM411.9 357.9c.3 1.8 1.4 3.3 2.4 4.8.9 1.5 1.7 3.4 1 5.1-.8 2.2-3.8 3-6 2-2.1-1-3.4-3.3-3.9-5.6s-.2-4.7-.1-7.1c0-1.6 0-3.2.5-4.7s2.1-4 3.7-4.1c5.2-.1 2.1 7.3 2.4 9.6z"/><linearGradient id="SVGID_123_" gradientUnits="userSpaceOnUse" x1="1203.225" y1="203.156" x2="1228.81" y2="203.156" gradientTransform="matrix(1.0729 -.0042 -.0042 1.0336 -835.924 -10.687)"><stop offset=".024" stop-color="#76c"/><stop offset=".184" stop-color="#8e80d5"/><stop offset="1" stop-color="#cec8ed"/></linearGradient><path d="M463.5 204.5c-.1-2-.3-4.2 1.1-5.7 1.2-1.2 3.3-1.6 4.1-3.1.5-1 .4-2.2.9-3.2 1-1.9 3.8-1.8 6-2.2 2.6-.4 5.1-2.1 5.9-4.6.7-2.5-.9-5.5-3.6-5.7-1.7-.2-3.3.7-4.9 1.3-2.4.8-5 .7-7.5 1.1-2.5.4-5.1 1.5-6.2 3.7-1 1.9-.5 4.3-1.4 6.3-.9 1.9-3 3.3-3.6 5.3-.7 2.3.9 4.7 2.7 6.3 1.1 1 3.4 3.8 4.8 4.2 2 .6 1.7-2.3 1.7-3.7z" fill="url(#SVGID_123_)"/><path class="st165" d="M476 244.9c-.9-4.2.2-7.6.8-11.7.9-7 .9-14.3-5-15.4-6-1.1-8.2-2.2-14.2-1.2-8.6 1.4-13.6 22.2-12.8 25.2.7 3.1 2 18.8-1.4 26.3-2.2 4.8-6.7 13.5 0 16.4 8.2 3.5 18.9 2.7 30.8-2 3.3-1.3 6.6-3.7 8.6-6.4 6.3-9-5.6-25.3-6.8-31.2z"/><linearGradient id="SVGID_124_" gradientUnits="userSpaceOnUse" x1="1232.842" y1="246.239" x2="1281.682" y2="246.239" gradientTransform="translate(-808.532)"><stop offset=".024" stop-color="#76c"/><stop offset=".184" stop-color="#8e80d5"/><stop offset="1" stop-color="#cec8ed"/></linearGradient><path d="M472.1 224.1c-2.8-4.1-8.3-.9-10.6 1.4-3.1 3.1-10.1 5.8-17.5 10.2-15.6 9.3-20.7 32.9-15 34.4 2.5.7 5.6-.2 6.3-3.1 1.1-4.3 1.2-8.4 3.7-12.2 2.6-4 6.8-8.6 11.1-10.6 7-3.3 19.9-9.4 22.7-14.7.8-1.7.3-3.9-.7-5.4z" fill="url(#SVGID_124_)"/><path class="st164" d="M421.2 286.4c-.2.5-.4 1.1-.2 1.6.3.8 1.5 1 2.4.9 3-.4 5.6-2.8 6.4-5.7.2-.9.3-1.8.6-2.6.3-.9.7-1.7 1.5-2.1.8-.4 1.9-.2 2.4.5.2.4 1.4.6 1.7-.2.8-2 .1-7.3-2-7.5-2.1-.2-5.8.1-5.8.1s-6 12.3-7 15zM494.1 267c2.4.6 8.5 4.1 6.6 5.7-1 .8-2.6-2.1-3.6-1.3-1.7 1.3 1.2 4.3 2.8 5.8 1.1 1 2.5 2 2.4 3.5 0 1.2-1.1 2.1-2.3 2.2-1.1.1-2.3-.4-3.1-1.2-.9-.8-3.1-3-3.8-3.9-1.3-1.7-3.6-4.2-3.9-7.1-.4-2.6 3.2-4.1 4.9-3.7z"/></g><path class="st16" d="M549.2 375.5l50.1-58h-6.5l-67.5 58zM590.1 375.5l30.8-58h-9.6l-45.2 58zM630 375.5l14.4-58H634l-27.8 58zM672 375.5l-3.3-58H658l-9.4 58zM712.5 375.5l-17.4-58h-10.3l4.1 58zM755.2 375.5l-33-58h-8.5l18.1 58zM795.5 375.5l-50.3-58h-9.9l34.7 58zM840.5 375.5l-67-58h-9.1l49.5 58z"/><g><path class="st168" d="M984.6 485.4c-.3-.1-.5-.1-.8-.2v101.2c.3.1.5.1.8.2V485.4z"/><path class="st16" d="M348.6 531.6c0 .5-.1 1.3-.1 2.2.1-1 .1-2 .2-2.9-.1.2-.1.5-.1.7z"/><linearGradient id="SVGID_125_" gradientUnits="userSpaceOnUse" x1="554.831" y1="398.965" x2="562.417" y2="775.699"><stop offset=".024" stop-color="#76c"/><stop offset=".184" stop-color="#8e80d5"/><stop offset="1" stop-color="#cec8ed"/></linearGradient><path d="M564.6 456.9l-22.1 3.4c6.9 2 10.1 10.4 10.8 13.8v.1c.1.5.2 1 .2 1.4 1.5 7.6 8.2 13 15.9 13V456c-1.6.4-3.3.6-4.8.9z" fill="url(#SVGID_125_)"/><linearGradient id="SVGID_126_" gradientUnits="userSpaceOnUse" x1="621.559" y1="397.621" x2="629.145" y2="774.356"><stop offset=".024" stop-color="#76c"/><stop offset=".184" stop-color="#8e80d5"/><stop offset="1" stop-color="#cec8ed"/></linearGradient><path d="M617 580.6h14.1c24.2 0 43.9-19.8 43.9-44.2v-24.6c0-2.9-2.3-5.2-5.2-5.2h-91.7c-2.9 0-5.2 2.3-5.2 5.2v24.6c.2 24.4 19.9 44.2 44.1 44.2z" fill="url(#SVGID_126_)"/><linearGradient id="SVGID_127_" gradientUnits="userSpaceOnUse" x1="688.741" y1="396.269" x2="696.326" y2="773.005"><stop offset=".024" stop-color="#76c"/><stop offset=".184" stop-color="#8e80d5"/><stop offset="1" stop-color="#cec8ed"/></linearGradient><path d="M676.4 488.8c7.7 0 14.4-5.5 15.9-13.1 0-.5.1-1 .2-1.4v-.1c.7-3.4 2.5-6.6 5.2-9.6 1.6-1.8 3.8-3.1 6.5-4.1l-23-3.5c-1.6-.2-3.2-.5-4.9-.7l.1 32.5z" fill="url(#SVGID_127_)"/><linearGradient id="SVGID_128_" gradientUnits="userSpaceOnUse" x1="552.157" y1="399.018" x2="559.743" y2="775.753"><stop offset=".024" stop-color="#76c"/><stop offset=".184" stop-color="#8e80d5"/><stop offset="1" stop-color="#cec8ed"/></linearGradient><path d="M554.5 510c-3.8 0-6.8 3.1-6.8 6.8 0 3.8 3.1 6.8 6.8 6.8s6.8-3.1 6.8-6.8c0-3.7-3-6.8-6.8-6.8z" fill="url(#SVGID_128_)"/><linearGradient id="SVGID_129_" gradientUnits="userSpaceOnUse" x1="691.513" y1="499.962" x2="692.777" y2="526.51"><stop offset=".024" stop-color="#76c"/><stop offset=".184" stop-color="#8e80d5"/><stop offset="1" stop-color="#cec8ed"/></linearGradient><path d="M692.3 510c-3.8 0-6.8 3.1-6.8 6.8 0 3.8 3.1 6.8 6.8 6.8 3.8 0 6.8-3.1 6.8-6.8 0-3.7-3-6.8-6.8-6.8z" fill="url(#SVGID_129_)"/><path class="st16" d="M348.2 539.7c0-1 0-2 .1-3 0 1-.1 1.7-.1 1.7l-1.4 1.6c-1.6 1.7-2.3 4.2-1.8 6.5l4.4 20.3c.9-.2 1.8-.3 2.7-.5-2.5-8.5-3.9-17.4-3.9-26.6z"/><path class="st174" d="M232.4 460.5h.2c60.8-15.1 127-27.7 192.9-36.3-65.2 8.3-129.7 20.4-193.1 36.3zM786.3 423.7l8.9 1.2c63.8 8.7 126.8 21.7 188.6 39v-.5C922 446 859 433 795.2 424.3c-3-.4-5.9-.8-8.9-1.2-61.1-8-122.9-13.3-184.9-12-11.8.3-23.6.6-35.3 1.2 12-.4 23.8-.6 35.3-.6 62.1 0 123.8 4.1 184.9 12z"/><path class="st16" d="M425.4 424.3c46.7-5.9 93.7-9.9 140.7-11.9-45.2 1.4-92.8 5.6-140.7 11.9z"/><path class="st16" d="M795.2 421.3c-3-.4-5.9-.8-8.9-1.2-61.1-7.9-122.9-11.9-184.9-11.9-131.4 0-256.6 19.2-386.9 53.3-1.1.3-18.1 5.3-19.3 5.7-2.1.7-22.1 24.8-25.7 34 36.8-10.3 77.4-24.7 119.9-33.3C392.8 446.8 506.9 432 602.3 432c133.6 0 258.4 16.6 381.5 50.7v-.5c.3.1.5.1.8.2v-21.9c-62.1-17.4-125.3-30.4-189.4-39.2zm-229.1-9c-47 2-94 6-140.7 11.9 47.9-6.2 95.5-10.4 140.7-11.9zm417.8 51.5c-11.8-3.3-23.7-6.4-35.7-9.4 11.9 2.7 23.8 5.6 35.7 8.9v.5z"/><linearGradient id="SVGID_130_" gradientUnits="userSpaceOnUse" x1="655.841" y1="396.931" x2="663.426" y2="773.665"><stop offset=".024" stop-color="#76c"/><stop offset=".184" stop-color="#8e80d5"/><stop offset="1" stop-color="#cec8ed"/></linearGradient><path d="M641.3 453.8v34.9h32.1v-32.9c-9.3-1-20.5-1.6-32.1-2z" fill="url(#SVGID_130_)"/><linearGradient id="SVGID_131_" gradientUnits="userSpaceOnUse" x1="620.938" y1="397.634" x2="628.524" y2="774.367"><stop offset=".024" stop-color="#76c"/><stop offset=".184" stop-color="#8e80d5"/><stop offset="1" stop-color="#cec8ed"/></linearGradient><path d="M623.9 453.6c-5.8 0-11.6.1-17.4.2v35h31.9v-35c-4.8-.2-9.7-.2-14.5-.2z" fill="url(#SVGID_131_)"/><linearGradient id="SVGID_132_" gradientUnits="userSpaceOnUse" x1="625.836" y1="397.535" x2="633.422" y2="774.27"><stop offset=".024" stop-color="#76c"/><stop offset=".184" stop-color="#8e80d5"/><stop offset="1" stop-color="#cec8ed"/></linearGradient><path d="M631.2 583.6H617c-22.7 0-41.7-16.3-46-37.8-10.2.3-18.6.6-27.6 1.1 1.1 4.4 1.7 8.9 1.7 13.5v90.1h29.5c11.3 0 21.8-5.9 27.8-15.7l.5-.8c7-11.5 19.5-18.6 32.9-18.6h18c18.5 0 35.5-9.3 45.5-24.9l13.2-20.5c6.3-9.8-.3-22.8-12-23.3-7.7-.3-15.5-.6-23.4-.9-4.3 21.6-23.2 37.8-45.9 37.8z" fill="url(#SVGID_132_)"/><linearGradient id="SVGID_133_" gradientUnits="userSpaceOnUse" x1="928.902" y1="391.433" x2="936.487" y2="768.167"><stop offset=".024" stop-color="#76c"/><stop offset=".184" stop-color="#8e80d5"/><stop offset="1" stop-color="#cec8ed"/></linearGradient><path d="M944.4 504.8c-7.6-2.1-19.9-5.2-35.1-8.6h-.4c-.8 0-1.2.6-1.4.9-.4.7-.5 1.8.2 2.6l8 8.9 39.5 9.8c-.6-6.6-4.9-12-10.8-13.6z" fill="url(#SVGID_133_)"/><linearGradient id="SVGID_134_" gradientUnits="userSpaceOnUse" x1="586.537" y1="398.326" x2="594.123" y2="775.061"><stop offset=".024" stop-color="#76c"/><stop offset=".184" stop-color="#8e80d5"/><stop offset="1" stop-color="#cec8ed"/></linearGradient><path d="M572.5 455.8v32.9h31v-34.9c-11.2.4-22 1.1-31 2z" fill="url(#SVGID_134_)"/><linearGradient id="SVGID_135_" gradientUnits="userSpaceOnUse" x1="435.254" y1="391.868" x2="447.053" y2="852.04"><stop offset=".024" stop-color="#76c"/><stop offset=".184" stop-color="#8e80d5"/><stop offset="1" stop-color="#cec8ed"/></linearGradient><path d="M386.5 524.6h1.8c4.6 0 8.8-2.5 11-6.5 5.6-10.2 15.1-18 26.5-21.3 4-1.2 8.1-1.8 12.5-1.8 4.3 0 8.5.6 12.5 1.8 11.4 3.3 20.9 11.1 26.5 21.3 2.2 4 6.4 6.5 11 6.5h1.8c9.6 0 15.7-10.3 11.1-18.8-12-22.6-35.7-37.9-63-37.9-27.3 0-51 15.4-63 37.9-4.3 8.6 1.7 18.8 11.3 18.8z" fill="url(#SVGID_135_)"/><linearGradient id="SVGID_136_" gradientUnits="userSpaceOnUse" x1="434.542" y1="391.886" x2="446.341" y2="852.058"><stop offset=".024" stop-color="#76c"/><stop offset=".184" stop-color="#8e80d5"/><stop offset="1" stop-color="#cec8ed"/></linearGradient><path d="M450.8 519.7c-3.6-2.3-7.9-3.6-12.5-3.6s-8.9 1.3-12.5 3.6c-2.1 1.3-4 3-5.6 5-3.4 4.1-5.4 9.3-5.4 15 0 2.5.4 4.9 1.1 7.2 1.7 5.3 5.2 9.8 9.9 12.8 3.6 2.3 7.9 3.6 12.5 3.6s8.8-1.3 12.5-3.6c4.6-2.9 8.2-7.4 9.9-12.8.7-2.3 1.1-4.7 1.1-7.2 0-5.7-2-10.9-5.4-15-1.6-2-3.5-3.7-5.6-5z" fill="url(#SVGID_136_)"/><path class="st16" d="M527.6 527c.1 1 .3 1.9.4 2.9 0-.4-.1-.7-.1-.9-.1-.5-.2-1.2-.3-2z"/><path class="st168" d="M287.7 497.8c-15.4 3.4-27.7 6.5-35.4 8.6-6 1.6-10.3 7.1-11 13.6l39.9-9.8 8.1-8.9c.8-.9.6-2 .2-2.6-.2-.4-.8-1.1-1.8-.9z"/><path class="st16" d="M531.6 544.2c.5-2.3-.2-4.7-1.8-6.5l-1.4-1.5s-.2-2.2-.4-4.3c.2 2.6.4 5.2.4 7.8 0 1.7-.1 3.4-.1 5.1 1.1-.1 2.2-.1 3.2-.2l.1-.4zM528.2 546c-.8 11.4-3.6 22.2-8.2 32 3-1.5 5.2-4.3 6-7.8l4.9-22.6c-.8.1-1.7.1-2.6.2l-.1-1.8z"/><path class="st168" d="M241.2 529.2l28.1-5.9 8.3-9.2-36.4 9z"/><linearGradient id="SVGID_137_" gradientUnits="userSpaceOnUse" x1="393.221" y1="392.945" x2="405.02" y2="853.118"><stop offset=".024" stop-color="#76c"/><stop offset=".184" stop-color="#8e80d5"/><stop offset="1" stop-color="#cec8ed"/></linearGradient><path d="M380.8 561.8V573c0 2.4-.5 4.8-1.5 7 7.5 11.1 18.1 20 30.5 25.5 7.6 3.3 16.1-2.3 16.1-10.6v-4.4c0-4.4-2.5-8.5-6.5-10.4-10.6-5-18.9-14.2-22.9-25.4-1.6-4.6-5.9-7.8-10.8-7.8h-4.3c-7.7 0-13.3 7.6-10.9 15 .7 2.1 1.5 4.1 2.3 6.1 1-3.7 4.2-6.2 8-6.2z" fill="url(#SVGID_137_)"/><linearGradient id="SVGID_138_" gradientUnits="userSpaceOnUse" x1="560.151" y1="398.858" x2="567.737" y2="775.592"><stop offset=".024" stop-color="#76c"/><stop offset=".184" stop-color="#8e80d5"/><stop offset="1" stop-color="#cec8ed"/></linearGradient><path d="M673.5 645h18c18.5 0 35.5-9.3 45.5-24.9l28.2-44.5c6.8-10.8-.3-25-12.9-25.9-.6 0-1.3-.1-1.9-.1-12.4-.9-24.4 5.1-31.2 15.6l-17.4 27c-10.6 16.4-28.6 26.2-48 26.2h-18c-12.3 0-23.9 6.6-30.3 17.1l-.5.9c-3.8 6.3-9.5 11.2-16.2 14h-90.6l17.1-36.6c2.5-5.4 1.7-11.7-2.1-16.3l-2.7-3.3c-16.5 21.9-42.6 36-71.9 36-28.9 0-54.6-13.7-71-34.9l-3.6 4.3c-3.8 4.6-4.7 10.9-2.1 16.3l22.2 47.7H405c8.1 0 14.7 6.6 14.7 14.7 0 19 15.4 34.4 34.4 34.4h124.3c23.2 0 42-18.8 42-42 0-3.9 3.2-7.1 7.1-7.1h8.8c2.5 0 4.9-1.2 6.4-3.2 7.2-9.4 18.7-15.4 30.8-15.4z" fill="url(#SVGID_138_)"/><path class="st16" d="M352.9 569.1c-.9.2-1.9.4-2.8.5l.6 2.8c.9 4 3.7 7.1 7.4 8.4-2.2-4.3-4-8.7-5.5-13.3l.3 1.6z"/><path class="st168" d="M241.2 543.6c0 2.4 1.4 3.8 2.7 4.3 1.5.6 3 .2 4.2-1l17.9-19.7-24.8 5.1v11.3z"/><linearGradient id="SVGID_139_" gradientUnits="userSpaceOnUse" x1="474.037" y1="390.873" x2="485.836" y2="851.046"><stop offset=".024" stop-color="#76c"/><stop offset=".184" stop-color="#8e80d5"/><stop offset="1" stop-color="#cec8ed"/></linearGradient><path d="M495.9 559.6c3.9 0 7.4 2.7 8.2 6.6.1.3.1.6.2.9.7-1.8 1.4-3.5 2-5.3 2.4-7.3-3.2-14.8-10.8-14.8H491c-4.9 0-9.1 3.1-10.8 7.7-4 11.3-12.3 20.5-23 25.5-4 1.9-6.4 5.9-6.4 10.3v4.6c0 8.2 8.4 13.7 15.9 10.5 12.8-5.6 23.7-14.9 31.3-26.5-1.4-2.5-2.1-5.4-2.1-8.3v-11.2z" fill="url(#SVGID_139_)"/><linearGradient id="SVGID_140_" gradientUnits="userSpaceOnUse" x1="940.386" y1="391.202" x2="947.971" y2="767.936"><stop offset=".024" stop-color="#76c"/><stop offset=".184" stop-color="#8e80d5"/><stop offset="1" stop-color="#cec8ed"/></linearGradient><path d="M948.6 545.2c1.1 1.2 2.6 1.6 4.1 1 1.7-.6 2.7-2.3 2.7-4.3v-11.4l-24.5-5.1 17.7 19.8z" fill="url(#SVGID_140_)"/><linearGradient id="SVGID_141_" gradientUnits="userSpaceOnUse" x1="934.816" y1="391.314" x2="942.402" y2="768.048"><stop offset=".024" stop-color="#76c"/><stop offset=".184" stop-color="#8e80d5"/><stop offset="1" stop-color="#cec8ed"/></linearGradient><path fill="url(#SVGID_141_)" d="M927.5 521.7l27.9 5.9v-6.1l-36.1-8.9z"/><linearGradient id="SVGID_142_" gradientUnits="userSpaceOnUse" x1="920.408" y1="391.604" x2="927.993" y2="768.339"><stop offset=".024" stop-color="#76c"/><stop offset=".184" stop-color="#8e80d5"/><stop offset="1" stop-color="#cec8ed"/></linearGradient><path d="M945.4 492.6c-13.1-3.5-34.1-9-60.3-14.7-.3-.1-.6-.1-.8-.1-1.3 0-2.5.7-3.3 2.1-.9 1.6-1.1 4 .5 5.8l70.1 78.2c2.2 2.4 5.3 3.2 8.2 2.1 3.3-1.3 5.4-4.6 5.4-8.4v-37.1c-.1-13.3-8.2-24.7-19.8-27.9zm13 49.4c0 3.2-1.8 6-4.6 7.1-.8.3-1.6.5-2.4.5-1.8 0-3.6-.8-4.9-2.3l-40.8-45.5c-1.5-1.7-1.7-4.1-.6-6.1 1-1.8 3-2.7 4.9-2.3 15.3 3.4 27.6 6.5 35.2 8.6 7.8 2.1 13.2 9.7 13.2 18.4V542z" fill="url(#SVGID_142_)"/><path class="st16" d="M528.3 544.7c0 .4-.1.9-.1 1.3l.1 1.7c.9-.1 1.7-.1 2.6-.2l.7-3c-1.1.1-2.2.2-3.3.2zM571.1 545.8c-.2-1-.4-2-.5-3-10.3.3-18.8.6-27.9 1.1.3 1 .6 2 .8 2.9 9-.4 17.4-.7 27.6-1zM352.6 567.5c-.1-.4-.3-.9-.4-1.3-.9.2-1.8.3-2.7.5l.6 2.9c.9-.2 1.9-.4 2.8-.5l-.3-1.6zM211.5 600.3c0 1 .9 1.7 1.9 1.4 35.7-10 79-20.4 117-28.2.7-.1 1.2-.7 1.2-1.5 0-.9-.9-1.7-1.8-1.5-38.1 7.8-81.4 18.2-117.2 28.2-.7.3-1.1.9-1.1 1.6zM251.7 576.7c-6.4 1.5-13 3.1-19.6 4.8-.7.2-1.1.8-1.1 1.4 0 1 .9 1.7 1.9 1.4 6.6-1.7 13.2-3.2 19.6-4.7.7-.2 1.2-.8 1.1-1.5-.1-1-1-1.6-1.9-1.4z"/><linearGradient id="SVGID_143_" gradientUnits="userSpaceOnUse" x1="438.331" y1="412.059" x2="438.331" y2="645.293"><stop offset="0" stop-color="#fff"/><stop offset="1" stop-color="#cec8ed"/></linearGradient><path d="M348.4 533.8c-.1 1-.1 2-.1 2.9 0 1-.1 2-.1 3 0 9.2 1.4 18.2 3.9 26.6h.2l.2 1.3c1.5 4.6 3.3 9.1 5.5 13.3 1.2.4 2.5.7 3.9.7.9 0 1.8-.4 2.5-1l5-5c1.7-1.7 2.7-4.5 3.3-7.1 0-.2.1-.3.2-.5-.9-2-1.6-4-2.3-6.1-2.4-7.4 3.2-15 10.9-15h4.3c4.9 0 9.2 3.2 10.8 7.8 4 11.2 12.3 20.4 22.9 25.4 4 1.9 6.5 6 6.5 10.4v4.4c0 8.3-8.5 13.9-16.1 10.6-12.4-5.4-23-14.3-30.5-25.5-.6 1.5-1.5 2.9-2.5 4.1l-9.5 11.3c16.5 21.2 42.2 34.9 71 34.9 29.4 0 55.5-14.2 71.9-36l-10.4-12.4c-.7-.9-1.4-1.8-1.9-2.8-7.6 11.6-18.4 20.9-31.3 26.5-7.5 3.3-15.9-2.2-15.9-10.5v-4.6c0-4.4 2.5-8.4 6.4-10.3 10.7-5 19-14.2 23-25.5 1.6-4.6 5.9-7.7 10.8-7.7h4.4c7.7 0 13.2 7.5 10.8 14.8-.6 1.8-1.3 3.6-2 5.3.6 2.3 1.5 4.7 3 6.2l5 5c.7.7 1.5 1 2.5 1 1.9 0 3.7-.5 5.2-1.3 4.6-9.8 7.4-20.6 8.2-32l-.1-1.3h.2c.1-1.7.1-3.4.1-5.1 0-2.6-.1-5.2-.4-7.8-.1-.7-.1-1.4-.2-2-.1-1-.2-1.9-.4-2.9-.2-1.6-.5-3.3-.8-4.9-8.1-41.6-44.6-73-88.4-73-44.6 0-81.7 32.6-88.9 75.5-.2 1.5-.6 4.6-.8 6.3.1 1 .1 2 0 3zm112.3 13.1c-1.7 5.3-5.2 9.9-9.9 12.8-3.6 2.3-7.9 3.6-12.5 3.6s-8.9-1.3-12.5-3.6c-4.6-2.9-8.2-7.4-9.9-12.8-.7-2.3-1.1-4.7-1.1-7.2 0-5.7 2-10.9 5.4-15 1.6-1.9 3.5-3.6 5.6-5 3.6-2.3 7.9-3.6 12.5-3.6s8.8 1.3 12.5 3.6c2.1 1.3 4 3 5.6 5 3.4 4.1 5.4 9.3 5.4 15 0 2.5-.4 4.9-1.1 7.2zm-85.3-41c12-22.6 35.7-37.9 63-37.9 27.2 0 50.9 15.4 63 37.9 4.5 8.5-1.6 18.8-11.1 18.8h-1.8c-4.6 0-8.8-2.5-11-6.5-5.6-10.2-15.1-18-26.5-21.3-4-1.2-8.1-1.8-12.5-1.8-4.3 0-8.5.6-12.5 1.8-11.4 3.3-20.9 11.1-26.5 21.3-2.2 4-6.4 6.5-11 6.5h-1.8c-9.8-.1-15.8-10.3-11.3-18.8z" fill="url(#SVGID_143_)"/><path class="st16" d="M528.1 544.7l.1 1.3c0-.4.1-.9.1-1.3h-.2zM352.3 566.2h-.2c.1.4.3.9.4 1.3l-.2-1.3zM383.8 663.7L361.5 616c-2.5-5.4-1.7-11.8 2.1-16.3l3.6-4.3c-3.5-4.5-6.6-9.4-9.2-14.5-3.7-1.3-6.5-4.4-7.4-8.4l-.6-2.8c-6 1.1-12.2 2.3-18.5 3.6v90.4h52.3zM345 546.4c-.5-2.3.2-4.7 1.8-6.5l1.4-1.6s0-.7.1-1.7c0-.9.1-1.9.1-2.9 0-.9.1-1.7.1-2.2 0-.2 0-.4.1-.7.2-2.1.5-4.2.8-6.3.1-.5.1-.8.1-.8l-4.8 4.5c-8.6 9.4-13.3 21.6-13.3 34.3v7.7c6.1-1.2 12.1-2.4 17.9-3.5l-4.3-20.3zM380.8 573v-11.2c-3.8 0-7 2.5-8 6.1 1.8 4.2 4 8.3 6.6 12 .9-2.1 1.4-4.5 1.4-6.9z"/><path class="st16" d="M350.1 569.7l-.6-2.9c-5.8 1.1-11.8 2.3-17.9 3.5v3c6.3-1.3 12.5-2.5 18.5-3.6zM349.5 524.5c-.3 2.1-.6 4.2-.8 6.3.1-1.7.6-4.8.8-6.3zM348.3 536.7c0-1 .1-2 .1-2.9 0 1-.1 2-.1 2.9zM379.3 580c-2.6-3.8-4.8-7.8-6.6-12 0 .2-.1.3-.2.5-.6 2.6-1.6 5.4-3.3 7.1l-5 5c-.7.7-1.5 1-2.5 1-1.3 0-2.6-.2-3.9-.7 2.6 5.1 5.7 10 9.2 14.5l9.5-11.3c1.3-1.3 2.2-2.7 2.8-4.1zM504.1 566.2c-.8-3.9-4.3-6.6-8.2-6.6v11.2c0 2.9.7 5.8 2.1 8.3 2.5-3.8 4.6-7.8 6.3-12-.1-.3-.2-.6-.2-.9zM515.1 613.8l-47.1 99h76.8l.4-59.5v-93.1c0-4.5-.5-9.1-1.7-13.5-4 .2-8.1.4-12.6.7L526 570c-.8 3.5-3 6.3-6 7.8-2.7 5.8-5.9 11.2-9.7 16.2l2.7 3.3c3.8 4.7 4.7 11.1 2.1 16.5zM527.8 528.9c0 .2.1.6.1.9.1.6.1 1.3.2 2 .2 2.1.4 4.3.4 4.3l1.4 1.5c1.6 1.7 2.3 4.2 1.8 6.5l-.1.3c3.9-.2 7.6-.4 11.1-.6-2.1-6.7-5.7-13-10.8-17.9-1.2-1.2-5.2-4.5-5.2-4.5s0 .2.1.6c.2 1 .5 3.2.8 4.9.1.9.2 1.6.2 2z"/><path class="st16" d="M530.9 547.6c4.5-.3 8.6-.5 12.6-.7-.2-1-.5-2-.8-2.9-3.5.2-7.2.4-11.1.6l-.7 3zM528.1 531.9c-.1-.7-.1-1.4-.2-2 .1.6.2 1.3.2 2zM526.8 522.1c.3 1.6.6 3.3.8 4.9-.3-1.7-.7-3.9-.8-4.9zM512.3 578.3l-5-5c-1.5-1.5-2.5-3.9-3-6.2-1.7 4.2-3.8 8.2-6.3 12 .5 1 1.2 1.9 1.9 2.8l10.4 12.4c3.8-5 7-10.5 9.7-16.2-1.6.8-3.4 1.3-5.2 1.3-1-.1-1.9-.5-2.5-1.1z"/><path class="st168" d="M984.6 589.7c-.3-.1-.5-.1-.8-.2v74.2h.8v-74z"/><linearGradient id="SVGID_144_" gradientUnits="userSpaceOnUse" x1="542.956" y1="399.204" x2="550.542" y2="775.938"><stop offset=".024" stop-color="#76c"/><stop offset=".184" stop-color="#8e80d5"/><stop offset="1" stop-color="#cec8ed"/></linearGradient><path d="M602.4 431.4c-136.2 0-266.3 18.7-393 54.6-10.1 2.5-20.1 5.1-29.8 7.8-7.3 2-12.6 8.5-12.6 16.1v.1c0 16.4-13.3 29.7-29.7 29.7-16.3 0-29.6 13.3-29.6 29.6v29.6c0 17.3 14.1 31.4 31.4 31.4h45.4c12.8 0 25.1 6.4 31.7 17.4 5.9 9.7 16.5 16.1 28.6 16.1h86.6v-90.4c-31.1 6.3-67.9 14.3-100.1 22.9v-2.5c32.1-8.5 68.1-16.9 100.1-23.4v-7.7c0-12.7 4.7-25 13.3-34.3l4.8-4.5s0 .3-.1.8c7.2-42.8 44.2-75.5 88.9-75.5 43.8 0 80.3 31.4 88.4 73-.1-.4-.1-.6-.1-.6s4 3.3 5.2 4.5c5.1 5 8.7 11.2 10.8 17.9 9.2-.5 17.6-.8 27.9-1.1-.3-2.1-.4-4.2-.4-6.4v-24.6c0-4.5 3.7-8.2 8.1-8.2H670c4.5 0 8.1 3.7 8.1 8.2v24.6c0 2.2-.1 4.3-.4 6.4 117.9 3.8 204.7 16.1 306.2 43.5V482.1C860.8 448 736 431.4 602.4 431.4zm-311.7 64.3c.5.4 1 .9 1.3 1.5 1.1 2 .9 4.4-.6 6.1l-.7.8v-8.4zm-43.4 71.8c-2.1 2.3-4.9 3.5-7.8 3.5-1.3 0-2.6-.2-3.8-.7-1.7-.7-3.1-1.7-4.3-3v-8.1c0 3.8 2.1 7.1 5.4 8.4 3 1.2 6.1.4 8.3-2.1l12.2-13.5h4l-14 15.5zm70.7-78.3l-27.3 30.2V515l25.1-27.8c1.6-1.8 1.5-4.2.6-5.7-.8-1.4-2-2.1-3.4-2.1-.3 0-.6 0-.9.1-7.6 1.7-14.8 3.3-21.5 4.9v-3.1c6.5-1.5 13.5-3.1 20.9-4.7 3-.7 5.8.7 7.4 3.4 1.8 3 1.4 6.7-.9 9.2zM289.5 468c31.5-7 63.2-12.9 95.2-17.7-31.9 4.8-63.6 10.7-95.2 17.7zm96.2-17.9c12.5-1.9 25-3.6 37.6-5.1-12.6 1.6-25.2 3.3-37.6 5.1zm168.8 76.6c-5.4 0-9.8-4.4-9.8-9.8s4.4-9.8 9.8-9.8 9.8 4.4 9.8 9.8-4.4 9.8-9.8 9.8zm137.8 0c-5.4 0-9.8-4.4-9.8-9.8s4.4-9.8 9.8-9.8 9.8 4.4 9.8 9.8-4.4 9.8-9.8 9.8zm13-63.5c-2.3.8-4.1 1.9-5.3 3.3-2.4 2.6-3.9 5.4-4.5 8.3v.1c-.1.4-.1.8-.2 1.2 0 .1 0 .2-.1.3-1.9 8.9-9.8 15.3-18.8 15.3H569.5c-9 0-16.9-6.4-18.8-15.3 0-.1 0-.2-.1-.3 0-.4-.1-.8-.2-1.2v-.1c-.6-2.9-3.7-11.2-10.2-11.9-1.3-.1-2.2-1.1-2.2-2.4 0-1.4.9-2.6 2.3-2.8l23.9-3.7c2.1-.3 4.4-.6 6.8-.9 10.2-1.5 30.6-2.5 52.2-2.5 21.5 0 41.7.9 51.9 2.5 2.4.3 4.7.6 6.8.9l22.9 3.6c1.3.2 2.3 1.3 2.5 2.6 0 1.3-.8 2.5-2 3zM968 557.5c0 5.1-2.8 9.5-7.2 11.2-1.2.5-2.5.7-3.7.7-2.9 0-5.6-1.2-7.7-3.5l-70.1-78.2c-2.3-2.5-2.6-6.3-.9-9.3 1.6-2.7 4.4-4 7.3-3.4 26.3 5.8 47.4 11.2 60.5 14.8 12.9 3.5 21.9 16.1 21.9 30.6v37.1z" fill="url(#SVGID_144_)"/><path class="st16" d="M311.6 476.6c-26.5 5.8-47.8 11.2-61 14.8-13 3.5-22.1 16.1-22.1 30.6v37.1c0 5 2.8 9.4 7.3 11.2 1.3.5 2.5.7 3.8.7 2.9 0 5.7-1.2 7.8-3.5l70.7-78.2c2.3-2.5 2.7-6.2.9-9.2-1.6-2.9-4.5-4.2-7.4-3.5zm4.3 10.6l-70.7 78.2c-2.2 2.4-5.4 3.2-8.3 2.1-3.3-1.3-5.4-4.6-5.4-8.4V522c0-13.2 8.2-24.6 19.9-27.8 13.2-3.5 34.4-9 60.9-14.7.3-.1.6-.1.9-.1 1.4 0 2.6.7 3.4 2.1.7 1.6.9 3.9-.7 5.7z"/><path class="st16" d="M287.1 494.9c-15.4 3.4-27.8 6.5-35.5 8.6-7.8 2.1-13.3 9.7-13.3 18.4v21.6c0 3.2 1.8 6 4.6 7.1.8.3 1.6.5 2.4.5 1.8 0 3.6-.8 5-2.3l41.2-45.5c1.5-1.7 1.8-4.1.6-6.1-1.1-1.8-3.1-2.7-5-2.3zm2.1 6.4l-8.1 8.9.4-.1.7 2.9-4.7 1.2-8.3 9.2.5-.1.6 2.9-4.5.9-17.9 19.7c-1.1 1.2-2.7 1.6-4.2 1-1.3-.5-2.7-1.9-2.7-4.3v-11.4l-1.2.2-.6-2.9 1.8-.4v-6.1l-1.1.3-.7-2.9 2-.5c.7-6.6 5-12 11-13.6 7.7-2.1 20-5.2 35.4-8.6 1-.2 1.6.5 1.8.9.5.8.6 1.9-.2 2.8z"/><path class="st16" d="M241.2 521.9v1.2l36.4-9 3.6-3.9-39.9 9.8c-.1.6-.1 1.3-.1 1.9z"/><path class="st16" d="M241.3 520l-2 .5.7 2.9 1.1-.3v-1.2c.1-.6.1-1.3.2-1.9zM282.3 513l-.7-2.9-.4.1-3.6 3.9zM241.2 532.2l24.7-5.1 3.4-3.8-28.1 5.9z"/><path class="st16" d="M270.4 526.1l-.6-2.9-.5.1-3.4 3.8zM239.4 529.5l.6 2.9 1.2-.2v-3zM946.1 489.8c-13.1-3.5-34.2-9-60.5-14.8-2.9-.7-5.8.6-7.3 3.4-1.7 3-1.4 6.7.9 9.3l70.1 78.2c2.1 2.3 4.9 3.5 7.7 3.5 1.2 0 2.5-.2 3.7-.7 4.4-1.7 7.2-6.1 7.2-11.2v-37.1c.1-14.6-8.9-27.2-21.8-30.6zm19 67.7c0 3.8-2.1 7.1-5.4 8.4-2.9 1.1-6 .4-8.2-2.1l-70.1-78.2c-1.6-1.8-1.4-4.2-.5-5.8.8-1.3 2-2.1 3.3-2.1.3 0 .6 0 .8.1 26.2 5.8 47.3 11.2 60.3 14.7 11.6 3.1 19.7 14.5 19.7 27.8v37.2z"/><path class="st16" d="M945.2 501.9c-7.6-2.1-19.9-5.2-35.2-8.6-2-.4-3.9.5-4.9 2.3-1.1 2-.9 4.4.6 6.1l40.8 45.5c1.3 1.5 3.1 2.3 4.9 2.3.8 0 1.6-.1 2.4-.5 2.8-1.1 4.6-3.9 4.6-7.1v-21.6c0-8.7-5.5-16.3-13.2-18.4zm12 17l-.7 2.9-1.1-.3v6.1l1.8.4-.6 2.9-1.2-.2V542c0 2-1.1 3.7-2.7 4.3-1.4.6-3 .2-4.1-1l-17.7-19.8-4.4-.9.6-2.9.5.1-8.2-9.2-4.7-1.2.7-2.9.4.1-8-8.9c-.7-.8-.7-1.9-.2-2.6.2-.3.6-.9 1.4-.9h.4c15.2 3.4 27.5 6.5 35.1 8.6 5.9 1.6 10.2 7.1 10.9 13.6l1.8.5z"/><path class="st16" d="M919.3 512.6l36.1 9v-1.2c0-.7 0-1.3-.1-1.9l-39.5-9.8 3.5 3.9z"/><path class="st16" d="M915.3 508.5l-.7 2.9 4.7 1.2-3.5-4zM955.4 521.5l1.1.3.7-2.9-2-.5c.1.6.1 1.3.1 1.9v1.2zM930.9 525.5l24.5 5.1v-3l-27.9-5.9z"/><path class="st16" d="M927.1 521.6l-.7 2.9 4.5 1-3.4-3.8zM956.6 530.9l.6-3-1.8-.3v3zM572.3 545.7H571c4.3 21.5 23.3 37.8 46 37.8h14.1c22.7 0 41.6-16.2 46-37.8h-1.3l.1-3c.6 0 1.1 0 1.7.1.3-2.1.4-4.3.4-6.4v-24.6c0-4.5-3.7-8.2-8.1-8.2h-91.7c-4.5 0-8.1 3.7-8.1 8.2v24.6c0 2.2.2 4.3.4 6.4h1.7l.1 2.9zm.8-33.8c0-2.9 2.3-5.2 5.2-5.2H670c2.9 0 5.2 2.3 5.2 5.2v24.6c0 24.4-19.7 44.2-43.9 44.2H617c-24.2 0-44-19.8-44-44.2v-24.6z"/><path class="st16" d="M572.3 545.7l-.1-3h-1.7c.1 1 .3 2 .5 3 .5.1.9 0 1.3 0zM675.9 545.8h1.3c.2-1 .4-2 .5-3-.5 0-1.1 0-1.7-.1l-.1 3.1z"/><path class="st168" d="M603.5 453.8c-12.9.3-24 1-31 2 9-.9 19.8-1.6 31-2zM623.9 453.6c-6 0-11.8 0-17.4.2v.1c5.8-.3 11.6-.3 17.4-.3z"/><path class="st16" d="M673.4 488.8h3v-32.6l-3-.3v32.9zM569.5 490.3v-1.5c-7.7 0-14.4-5.5-15.9-13 0-.5-.1-1-.2-1.4v-.1c-.7-3.4-4-11.8-10.8-13.8l22.1-3.4c1.6-.2 3.2-.5 4.9-.7v-1.7c0-.7.5-1.4 1.3-1.5h.1c-2.4.3-4.6.6-6.8.9l-23.9 3.7c-1.3.2-2.3 1.4-2.2 2.8 0 1.3.9 2.3 2.2 2.4 6.5.7 9.6 9 10.2 11.9v.1c.1.4.1.8.2 1.2 0 .1 0 .2.1.3 1.9 8.9 9.8 15.3 18.8 15.3h1.5c-.9-.1-1.6-.7-1.6-1.5z"/><path class="st168" d="M623.1 450.5c18.2 0 37.3.8 51.9 2.5-10.2-1.5-30.4-2.5-51.9-2.5zM570.9 453c14.7-1.7 33.9-2.5 52.2-2.5-21.6 0-42 1-52.2 2.5z"/><g><path class="st16" d="M569.5 456.2v32.6h3v-32.9l-3 .3z"/></g><g><path class="st16" d="M704.7 457.5l-22.9-3.6c-2.1-.3-4.4-.6-6.8-.9h.1c.7.1 1.3.7 1.3 1.5v1.7c1.7.2 3.4.4 4.9.7l23 3.5c-2.7 1-4.9 2.4-6.5 4.1-2.7 3-4.5 6.2-5.2 9.6v.1c-.1.5-.2 1-.2 1.4-1.5 7.6-8.2 13.1-15.9 13.1v1.5c0 .8-.7 1.5-1.5 1.5h1.5c9 0 16.9-6.5 18.8-15.3 0-.1 0-.2.1-.3 0-.4.1-.8.2-1.2v-.1c.6-2.9 2.1-5.7 4.5-8.3 1.3-1.4 3.1-2.5 5.3-3.3 1.3-.5 2-1.7 1.9-3-.3-1.4-1.3-2.5-2.6-2.7z"/></g><g><path class="st168" d="M673.4 455.8c-7.2-1-18.8-1.7-32.1-2.1v.1c11.6.4 22.8 1 32.1 2z"/></g><g><path class="st168" d="M638.3 453.7c-4.7-.1-9.5-.1-14.4-.1 4.8 0 9.7 0 14.4.1z"/></g><g><path class="st16" d="M569.5 454.5v1.7l3-.3c7-1 18.2-1.7 31-2v-1c0-.8.7-1.5 1.5-1.5s1.5.7 1.5 1.5v1c5.6-.1 11.5-.2 17.4-.2 4.9 0 9.8 0 14.4.1v-.2c0-.8.7-1.5 1.5-1.5s1.5.7 1.5 1.5v.3c13.3.3 24.9 1 32.1 2l3 .3v-1.7c0-.7-.5-1.4-1.3-1.5h-.1c-14.6-1.7-33.7-2.5-51.9-2.5-18.3 0-37.5.8-52.2 2.5h-.1c-.7.2-1.3.8-1.3 1.5z"/></g><g><path class="st16" d="M603.5 490.3v-1.5h-34v1.5c0 .8.7 1.5 1.5 1.5h34c-.8-.1-1.5-.7-1.5-1.5z"/></g><g><path class="st16" d="M676.4 490.3v-1.5h-35.1v.8c0 .8-.7 1.5-1.5 1.5s-1.5-.7-1.5-1.5v-.8h-31.9v1.5c0 .8-.7 1.5-1.5 1.5h69.9c.9-.1 1.6-.7 1.6-1.5z"/></g><g><path class="st16" d="M603.5 453.9v34.9h3v-35c-1 0-2 0-3 .1z"/></g><g><path class="st168" d="M606.5 453.8h-3v.1c1-.1 2-.1 3-.1z"/></g><g><path class="st16" d="M606.5 490.3v-1.5h-3v1.5c0 .8.7 1.5 1.5 1.5.8-.1 1.5-.7 1.5-1.5z"/></g><g><path class="st16" d="M606.5 452.8c0-.8-.7-1.5-1.5-1.5s-1.5.7-1.5 1.5v1c1 0 2-.1 3-.1v-.9z"/></g><g><path class="st16" d="M638.3 453.8v35h3v-34.9c-1-.1-2-.1-3-.1z"/></g><g><path class="st168" d="M641.3 453.8c-1-.1-2-.1-3-.1 1 .1 2 .1 3 .1z"/></g><g><path class="st16" d="M638.3 489.5c0 .8.7 1.5 1.5 1.5s1.5-.7 1.5-1.5v-.8h-3v.8z"/></g><g><path class="st16" d="M641.3 453.5c0-.8-.7-1.5-1.5-1.5s-1.5.7-1.5 1.5v.2c1 0 2 0 3 .1v-.3z"/></g><g><linearGradient id="SVGID_145_" gradientUnits="userSpaceOnUse" x1="689.889" y1="396.245" x2="697.474" y2="772.98"><stop offset=".024" stop-color="#76c"/><stop offset=".184" stop-color="#8e80d5"/><stop offset="1" stop-color="#cec8ed"/></linearGradient><path d="M692.3 523.7c-3.8 0-6.8-3.1-6.8-6.8 0-3.8 3.1-6.8 6.8-6.8 3.8 0 6.8 3.1 6.8 6.8 0 3.7-3 6.8-6.8 6.8z" fill="url(#SVGID_145_)"/></g><g><path class="st16" d="M604.9 636.3l.5-.9c6.4-10.5 18-17.1 30.3-17.1h18c19.5 0 37.4-9.8 48-26.2l17.4-27c6.8-10.5 18.8-16.5 31.2-15.6.6 0 1.3.1 1.9.1 12.7.9 19.7 15.1 12.9 25.9L737 620.1c-10 15.6-27 24.9-45.5 24.9h-18c-13.3 0-25.9 7.1-32.8 18.5l-.1.2h3.5c6.6-9.8 17.6-15.7 29.4-15.7h18.1c19.5 0 37.4-9.8 48-26.2l28-44.3c9.8-15.5 27.7-24 45.9-21.8 57.8 7 111.7 17.9 170.5 33.8v-3.1c-101.5-27.5-188.3-39.8-306.2-43.5-.1 1-.3 2-.5 3 7.9.2 15.7.5 23.4.9 11.6.5 18.3 13.5 12 23.3l-13.2 20.5c-10 15.6-27.1 24.9-45.5 24.9h-18c-13.4 0-25.9 7-32.9 18.6l-.5.8c-5.9 9.7-16.4 15.7-27.8 15.7h-29.5v3h29.5c12.1-.2 23.7-6.8 30.1-17.3z"/></g><g><linearGradient id="SVGID_146_" gradientUnits="userSpaceOnUse" x1="813.229" y1="393.762" x2="820.815" y2="770.497"><stop offset=".024" stop-color="#76c"/><stop offset=".184" stop-color="#8e80d5"/><stop offset="1" stop-color="#cec8ed"/></linearGradient><path d="M983.9 589.5c-58.8-16-112.7-26.8-170.5-33.8-18.2-2.2-36 6.3-45.9 21.8l-28 44.3c-10.6 16.4-28.6 26.2-48 26.2h-18.1c-6.9 0-13.4 2-19 5.6-4.6 3-2.6 10.2 3 10.2h82.1c14.5 0 28.1 8 34.4 21.1 4 8.2 11.6 15.7 26 16h77.8c9.7-.6 15.5-5.7 19-11.9 8.7-15.6 25.2-25.2 43-25.2h44.2v-74.3z" fill="url(#SVGID_146_)"/></g></g><circle transform="rotate(-76.714 901.922 57.093)" class="st16" cx="901.9" cy="57.1" r="47.5"/><g><linearGradient id="SVGID_147_" gradientUnits="userSpaceOnUse" x1="905.111" y1="-15.204" x2="902.374" y2="258.524"><stop offset=".024" stop-color="#76c"/><stop offset=".184" stop-color="#8e80d5"/><stop offset="1" stop-color="#cec8ed"/></linearGradient><path d="M910.7 118.4c28.2-3.3 50.1-28 50.1-58 0-32.2-25.3-58.4-56.5-58.4s-56.5 26.1-56.5 58.4c0 30 21.9 54.7 50.1 58 0 0 3 .7 6.6.6 4.3-.2 6.2-.6 6.2-.6zm-47.8-59.2c0-23.2 18.6-42 41.5-42s41.5 18.8 41.5 42-18.6 42-41.5 42-41.5-18.7-41.5-42z" fill="url(#SVGID_147_)"/></g><g><linearGradient id="SVGID_148_" gradientUnits="userSpaceOnUse" x1="911.094" y1="-225.603" x2="904.247" y2="459.147"><stop offset=".024" stop-color="#76c"/><stop offset=".184" stop-color="#8e80d5"/><stop offset="1" stop-color="#cec8ed"/></linearGradient><path d="M912.6 108.4v304.4l-12.8-8.9V108.4c2.1.6 4.2.9 6.4.9s4.3-.3 6.4-.9z" fill="url(#SVGID_148_)"/></g><g><path class="st195" d="M880.9 37.8c.6 0 1.2.1 1.7.2s.9.4 1.3.6c.4.3.6.6.8 1.1.2.4.3.9.3 1.5s-.1 1.1-.3 1.5c-.2.4-.5.8-.8 1.1-.4.3-.8.5-1.3.6-.5.1-1.1.2-1.7.2H879v3c0 .1 0 .2-.1.3-.1.1-.2.1-.3.1h-1.9c-.1 0-.2 0-.3-.1s-.1-.2-.1-.3v-9.4c0-.1 0-.2.1-.3.1-.1.2-.1.3-.1h4.2zm-1.9 4.6h1.8c.4 0 .7-.1 1-.3.3-.2.4-.5.4-.9s-.1-.7-.4-.9c-.3-.2-.6-.3-1-.3H879v2.4zM893.5 45.7c.1 0 .2 0 .3.1.1.1.1.2.1.3v1.5c0 .1 0 .2-.1.3-.1.1-.2.1-.3.1h-6.8c-.1 0-.2 0-.3-.1s-.1-.2-.1-.3v-9.4c0-.1 0-.2.1-.3.1-.1.2-.1.3-.1h1.9c.1 0 .2 0 .3.1.1.1.1.2.1.3v7.5h4.5zM902.5 45.7c.1 0 .2 0 .3.1.1.1.1.2.1.3v1.5c0 .1 0 .2-.1.3-.1.1-.2.1-.3.1h-6.9c-.1 0-.2 0-.3-.1-.1-.1-.1-.2-.1-.3v-9.4c0-.1 0-.2.1-.3.1-.1.2-.1.3-.1h6.8c.1 0 .2 0 .3.1.1.1.1.2.1.3v1.5c0 .1 0 .2-.1.3-.1.1-.2.1-.3.1h-4.5v1.6h4.2c.1 0 .2 0 .3.1.1.1.1.2.1.3v1.5c0 .1 0 .2-.1.3-.1.1-.2.1-.3.1h-4.2v1.6h4.6zM909.9 37.8c.2 0 .3.1.4.2.1.1.2.2.2.3l3.2 9.2c0 .1.1.2.1.2 0 .1 0 .2-.1.2-.1.1-.1.1-.2.1h-1.8c-.2 0-.3 0-.4-.1-.1-.1-.1-.2-.2-.2l-.4-1.2h-3.9l-.4 1.2c0 .1-.1.2-.2.2-.1.1-.2.1-.4.1H904c-.1 0-.2 0-.2-.1-.1-.1-.1-.1-.1-.2 0 0 0-.1.1-.2l3.2-9.2c0-.1.1-.2.2-.3.1-.1.3-.2.4-.2h2.3zm-2.3 6.4h2.4l-1.2-3.5-1.2 3.5zM918.6 37.7c.6 0 1.2.1 1.7.3.5.2 1 .4 1.4.7.4.3.7.6.9.9.2.3.3.7.3 1 0 .1 0 .2-.1.2-.1.1-.1.1-.2.1h-1.9c-.1 0-.2 0-.3-.1-.1 0-.2-.1-.3-.2l-.1-.1c-.1-.1-.2-.1-.3-.2-.1-.1-.3-.1-.4-.2-.2-.1-.4-.1-.6-.1h-.5c-.2 0-.3.1-.5.1-.1.1-.2.1-.3.2-.1.1-.1.2-.1.4 0 .1 0 .3.1.4.1.1.2.2.5.3.2.1.5.2.9.2.4.1.8.2 1.3.3.5.1 1 .2 1.4.4.4.2.7.4 1 .6.3.2.5.5.6.9.1.3.2.7.2 1.2s-.1.9-.3 1.3c-.2.4-.5.7-.9 1-.4.3-.9.5-1.4.6-.6.1-1.2.2-1.8.2-.7 0-1.3-.1-1.8-.3-.5-.2-1-.4-1.4-.7-.4-.3-.7-.6-.9-1-.2-.4-.3-.7-.4-1.1 0-.1 0-.2.1-.2.1-.1.1-.1.2-.1h1.9c.1 0 .2 0 .3.1.1 0 .2.1.2.2l.2.2.3.3c.1.1.3.2.5.2.2.1.4.1.7.1.5 0 .9-.1 1.3-.2.3-.1.5-.3.5-.6 0-.1-.1-.3-.2-.4-.1-.1-.3-.2-.6-.3-.3-.1-.6-.2-1-.2-.4-.1-.9-.2-1.4-.3-1-.2-1.7-.6-2.2-1.1-.5-.5-.7-1.2-.7-2 0-.4.1-.8.3-1.2.2-.4.5-.7.8-1 .4-.3.8-.5 1.3-.7.5 0 1.1-.1 1.7-.1zM932 45.7c.1 0 .2 0 .3.1.1.1.1.2.1.3v1.5c0 .1 0 .2-.1.3-.1.1-.2.1-.3.1h-6.9c-.1 0-.2 0-.3-.1-.1-.1-.1-.2-.1-.3v-9.4c0-.1 0-.2.1-.3.1-.1.2-.1.3-.1h6.8c.1 0 .2 0 .3.1.1.1.1.2.1.3v1.5c0 .1 0 .2-.1.3-.1.1-.2.1-.3.1h-4.5v1.6h4.2c.1 0 .2 0 .3.1.1.1.1.2.1.3v1.5c0 .1 0 .2-.1.3-.1.1-.2.1-.3.1h-4.2v1.6h4.6zM884.4 55.4c.7 0 1.3.1 1.8.3.6.2 1 .5 1.4.8.4.4.7.8.9 1.3.2.5.4 1 .4 1.6v2.1c0 .6-.2 1.2-.4 1.7s-.5.9-.9 1.3-.9.6-1.4.8c-.5.2-1.2.3-1.8.3h-3.9c-.1 0-.2 0-.3-.1-.1-.1-.1-.2-.1-.3v-9.4c0-.1 0-.2.1-.3.1-.1.2-.1.3-.1h3.9zm1.9 4c-.1-1.1-.7-1.7-2-1.7h-1.5v5.6h1.6c1.2 0 1.9-.6 1.9-1.7V61v-.5-.5-.6zM895.4 55.4c.6 0 1.2.1 1.7.2s.9.3 1.3.6.6.6.8 1c.2.4.3.9.3 1.5 0 .7-.2 1.3-.5 1.8s-.7.8-1.3 1.1l1.8 3.5v.2c0 .1 0 .2-.1.2-.1.1-.1.1-.2.1h-2c-.2 0-.3 0-.4-.1-.1-.1-.1-.2-.2-.3l-1.6-3.1h-1.3v3.1c0 .1 0 .2-.1.3-.1.1-.2.1-.3.1h-1.9c-.1 0-.2 0-.3-.1-.1-.1-.1-.2-.1-.3v-9.4c0-.1 0-.2.1-.3.1-.1.2-.1.3-.1h4zm-1.6 4.4h1.7c.4 0 .7-.1 1-.2.3-.2.4-.4.4-.8s-.1-.7-.4-.8c-.3-.2-.6-.2-1-.2h-1.7v2zM902 65.6c-.1 0-.2 0-.3-.1-.1-.1-.1-.2-.1-.3v-9.4c0-.1 0-.2.1-.3.1-.1.2-.1.3-.1h1.9c.1 0 .2 0 .3.1.1.1.1.2.1.3v9.4c0 .1 0 .2-.1.3-.1.1-.2.1-.3.1H902zM909.9 65.6c-.4 0-.6-.2-.8-.6l-3-9.1v-.1-.1c0-.1 0-.2.1-.2.1-.1.1-.1.2-.1h1.8c.2 0 .3 0 .4.1.1.1.1.2.2.2l2 6.4 2-6.4c0-.1.1-.2.2-.2.1-.1.2-.1.4-.1h1.8c.1 0 .2 0 .2.1.1.1.1.1.1.2v.2l-3 9.1c-.1.4-.4.6-.8.6h-1.8zM924.7 63.3c.1 0 .2 0 .3.1.1.1.1.2.1.3v1.5c0 .1 0 .2-.1.3-.1.1-.2.1-.3.1h-6.9c-.1 0-.2 0-.3-.1-.1-.1-.1-.2-.1-.3v-9.4c0-.1 0-.2.1-.3.1-.1.2-.1.3-.1h6.8c.1 0 .2 0 .3.1.1.1.1.2.1.3v1.5c0 .1 0 .2-.1.3-.1.1-.2.1-.3.1h-4.5v1.6h4.2c.1 0 .2 0 .3.1.1.1.1.2.1.3v1.5c0 .1 0 .2-.1.3-.1.1-.2.1-.3.1h-4.2v1.6h4.6zM881.2 72.8c.6 0 1.2.1 1.7.3.5.2 1 .4 1.4.7.4.3.7.6.9.9.2.3.3.7.3 1 0 .1 0 .2-.1.2-.1.1-.1.1-.2.1h-1.9c-.1 0-.2 0-.3-.1-.1 0-.2-.1-.3-.2l-.1-.1c-.1-.1-.2-.1-.3-.2-.1-.1-.3-.1-.4-.2-.2-.1-.4-.1-.6-.1h-.5c-.2 0-.3.1-.5.1-.1.1-.2.1-.3.2-.1.1-.1.2-.1.4 0 .1 0 .3.1.4.1.1.2.2.5.3.2.1.5.2.9.2.4.1.8.2 1.3.3.5.1 1 .2 1.4.4.4.2.7.4 1 .6.3.2.5.5.6.9.1.3.2.7.2 1.2s-.1.9-.3 1.3c-.2.4-.5.7-.9 1-.4.3-.9.5-1.4.6-.6.1-1.2.2-1.8.2-.7 0-1.3-.1-1.8-.3-.5-.2-1-.4-1.4-.7-.4-.3-.7-.6-.9-1-.2-.4-.3-.7-.4-1.1 0-.1 0-.2.1-.2.1-.1.1-.1.2-.1h1.9c.1 0 .2 0 .3.1.1 0 .2.1.2.2l.2.2.3.3c.1.1.3.2.5.2.2.1.4.1.7.1.5 0 .9-.1 1.3-.2.3-.1.5-.3.5-.6 0-.1-.1-.3-.2-.4-.1-.1-.3-.2-.6-.3-.3-.1-.6-.2-1-.2-.4-.1-.9-.2-1.4-.3-1-.2-1.7-.6-2.2-1.1-.5-.5-.7-1.2-.7-2 0-.4.1-.8.3-1.2.2-.4.5-.7.8-1 .4-.3.8-.5 1.3-.7.5-.1 1.1-.1 1.7-.1zM892.5 72.9c.2 0 .3.1.4.2.1.1.2.2.2.3l3.2 9.2c0 .1.1.2.1.2 0 .1 0 .2-.1.2-.1.1-.1.1-.2.1h-1.8c-.2 0-.3 0-.4-.1-.1-.1-.1-.2-.2-.2l-.4-1.2h-3.9l-.4 1.2c0 .1-.1.2-.2.2-.1.1-.2.1-.4.1h-1.8c-.1 0-.2 0-.2-.1-.1-.1-.1-.1-.1-.2 0 0 0-.1.1-.2l3.2-9.2c0-.1.1-.2.2-.3.1-.1.3-.2.4-.2h2.3zm-2.4 6.4h2.4l-1.2-3.5-1.2 3.5zM904.6 72.9c.1 0 .2 0 .3.1.1.1.1.2.1.3v1.5c0 .1 0 .2-.1.3-.1.1-.2.1-.3.1h-4.4v2h4.1c.1 0 .2 0 .3.1.1.1.1.2.1.3v1.5c0 .1 0 .2-.1.3-.1.1-.2.1-.3.1h-4.1v3.2c0 .1 0 .2-.1.3-.1.1-.2.1-.3.1H898c-.1 0-.2 0-.3-.1-.1-.1-.1-.2-.1-.3v-9.4c0-.1 0-.2.1-.3.1-.1.2-.1.3-.1h6.6zM913.9 80.8c.1 0 .2 0 .3.1.1.1.1.2.1.3v1.5c0 .1 0 .2-.1.3-.1.1-.2.1-.3.1H907c-.1 0-.2 0-.3-.1-.1-.1-.1-.2-.1-.3v-9.4c0-.1 0-.2.1-.3.1-.1.2-.1.3-.1h6.8c.1 0 .2 0 .3.1.1.1.1.2.1.3v1.5c0 .1 0 .2-.1.3-.1.1-.2.1-.3.1h-4.5v1.6h4.2c.1 0 .2 0 .3.1.1.1.1.2.1.3v1.5c0 .1 0 .2-.1.3-.1.1-.2.1-.3.1h-4.2v1.6h4.6zM923.1 80.8c.1 0 .2 0 .3.1.1.1.1.2.1.3v1.5c0 .1 0 .2-.1.3-.1.1-.2.1-.3.1h-6.8c-.1 0-.2 0-.3-.1-.1-.1-.1-.2-.1-.3v-9.4c0-.1 0-.2.1-.3.1-.1.2-.1.3-.1h1.9c.1 0 .2 0 .3.1.1.1.1.2.1.3v7.5h4.5zM928.7 82.7c0 .1 0 .2-.1.3-.1.1-.2.1-.3.1h-1.9c-.1 0-.2 0-.3-.1-.1-.1-.1-.2-.1-.3v-3.1l-3.4-6.2c0-.1-.1-.1-.1-.2s0-.2.1-.2c.1-.1.1-.1.2-.1h2c.2 0 .3 0 .4.1l.2.2 1.8 3.6 1.9-3.6.2-.2c.1-.1.2-.1.4-.1h2c.1 0 .2 0 .2.1.1.1.1.1.1.2s0 .1-.1.2l-3.4 6.2v3.1z"/></g></svg>