<svg xmlns="http://www.w3.org/2000/svg" viewBox="0 0 80 80"><defs><style>.cls-2{fill:#6363b7}</style></defs><g id="Слой_2" data-name="Слой 2"><g id="Layer_1" data-name="Layer 1"><path d="M78.92 22.78a25 25 0 00-21.69-21.7 137.9 137.9 0 00-34.45 0 25 25 0 00-21.7 21.7A138.23 138.23 0 000 40c0 2 .06 4.07.15 6.1 0 0 .74 9.63.93 11.13A25 25 0 006.44 69.8L10 73.37a25 25 0 0012.83 5.55c1.36.17 2.73.32 4.1.45l6.61.46c2.17.1 4.34.17 6.51.17a137.63 137.63 0 0017.22-1.08 25 25 0 0021.7-21.69 137.9 137.9 0 00-.05-34.45z" fill="#e0edff"/><path class="cls-2" d="M50.3 27h-17a2.5 2.5 0 000 5h10.96L6.44 69.8A25.75 25.75 0 0010 73.37l37.8-37.85v10.94a2.5 2.5 0 005 0v-17A2.5 2.5 0 0050.3 27z"/><path class="cls-2" d="M50.3 57h-17a2.5 2.5 0 000 5h10.96L26.88 79.37q3.3.31 6.61.46L47.8 65.52v10.94a2.5 2.5 0 005 0v-17A2.5 2.5 0 0050.3 57zM17.8 46.46a2.5 2.5 0 005 0v-17A2.5 2.5 0 0020.3 27h-17a2.5 2.5 0 000 5h10.96L.15 46.1c.1 2.21.24 4.42.44 6.62l17.21-17.2z"/></g></g></svg>