<svg xmlns="http://www.w3.org/2000/svg" viewBox="0 0 80 80"><defs><style>.cls-2,.cls-3{fill:#0095f7}.cls-3{fill-opacity:.26}</style></defs><g id="Слой_2" data-name="Слой 2"><g id="Layer_1" data-name="Layer 1"><g opacity=".1"><path id="a" class="cls-2" d="M22.78 1.08a137.9 137.9 0 0134.45 0 25 25 0 0121.69 21.7 137.9 137.9 0 010 34.45 25 25 0 01-21.7 21.69A137.63 137.63 0 0140 80a138.23 138.23 0 01-17.22-1.08 25 25 0 01-21.7-21.69 137.9 137.9 0 010-34.45 25 25 0 0121.7-21.7z"/></g><path id="Rectangle-2" class="cls-3" d="M18.5 27.44h43a13 13 0 0113 13 13 13 0 01-13 13.05h-43a13 13 0 01-13-13.05 13 13 0 0113-13z"/><g id="Group-4"><path id="Rectangle-2-2" data-name="Rectangle-2" class="cls-3" d="M34.2 35.65h26.57A2.19 2.19 0 0163 37.83 2.18 2.18 0 0160.77 40H34.2a2.17 2.17 0 01-2.2-2.17 2.18 2.18 0 012.2-2.18z"/><path id="Rectangle-2-3" data-name="Rectangle-2" class="cls-3" d="M34.2 41.45h15a2.17 2.17 0 012.17 2.17 2.17 2.17 0 01-2.17 2.18h-15a2.17 2.17 0 01-2.2-2.18 2.17 2.17 0 012.2-2.17z"/></g><circle id="Oval-4" class="cls-2" cx="18.5" cy="40.48" r="8.7"/></g></g></svg>