<svg xmlns="http://www.w3.org/2000/svg" viewBox="0 0 80 80"><g data-name="Слой 2"><g data-name="Layer 1"><path d="M22.78 1.08a137.9 137.9 0 0134.45 0 25 25 0 0121.69 21.7 137.9 137.9 0 010 34.45 25 25 0 01-21.7 21.69A137.63 137.63 0 0140 80a138.23 138.23 0 01-17.22-1.08 25 25 0 01-21.7-21.69 137.9 137.9 0 010-34.45 25 25 0 0121.7-21.7z" fill="#f8e71c" opacity=".2"/><path d="M42.81 13c1.72-2.78 5.57-.63 4.63 2.59L41.75 34h10.44c2.16 0 3.39 2.78 2.08 4.72L34.84 67.29c-1.84 2.71-5.58.37-4.53-2.79l6.2-19.19h-8.7c-2.1 0-3.35-2.66-2.15-4.6L42.83 13z" fill="#ffca28"/></g></g></svg>