<svg xmlns="http://www.w3.org/2000/svg" viewBox="0 0 80 80"><defs><style>.cls-2{fill:#e1bee7}.cls-3{fill:#ce93d8}</style></defs><g id="Слой_2" data-name="Слой 2"><g id="Layer_1" data-name="Layer 1"><path id="a" d="M22.78 1.08a137.9 137.9 0 0134.45 0 25 25 0 0121.69 21.7 137.9 137.9 0 010 34.45 25 25 0 01-21.7 21.69A137.63 137.63 0 0140 80a138.23 138.23 0 01-17.22-1.08 25 25 0 01-21.7-21.69 137.9 137.9 0 010-34.45 25 25 0 0121.7-21.7z" fill="#f3e5f5"/><path id="Rectangle-6" class="cls-2" d="M15.14 59.54l12.56 5.14v-40.8l-12.56-5.13v40.79z"/><path id="Rectangle-6-2" data-name="Rectangle-6" class="cls-2" d="M40.26 59.54l12.56 5.14v-40.8l-12.56-5.13v40.79z"/><path id="Rectangle-6-3" data-name="Rectangle-6" class="cls-3" d="M40.26 59.54L27.7 64.68v-40.8l12.56-5.13v40.79z"/><path id="Rectangle-6-4" data-name="Rectangle-6" class="cls-3" d="M65.38 59.54l-12.56 5.14v-40.8l12.56-5.13v40.79z"/><path id="route" d="M56.47 38l2.12-3.26 3.26 2.12.9-1.38-3.26-2.12 2.12-3.27-1.39-.9-2.12 3.25-3.26-2.12-.9 1.38 3.26 2.12-2.12 3.26zM40.14 53.47l-.62-1.57-2.6.72.35 1.63zm-11.33-5.6l1.82-.39-.52-2.48-1.82.38zm1.81 4.05l1.6-.94-1.28-2-1.74.71zm-6.13-9.7l.3-1.68-2.85-.08v1.71zm3.18 2.06L29 43.13l-2.17-1.75-1.14 1.35zM35 54.23l.61-1.58-2.46-.93-.81 1.54zM45.56 38l-1.44-1-1.5 2.28 1.58.77zm-1.81 12l-1.51-.87-1.56 2 1.46 1.06zm7.16-14l2.72-.58-.35-1.63-2.72.58zm-1.74.29l-.44-1.62-2.73.94.71 1.55zM42.75 48l1.81.05-.08-2.63-1.85.22zm1-6.69l-1.86.13.3 2.56 1.81-.3z" fill="#ab47bc"/></g></g></svg>