<svg xmlns="http://www.w3.org/2000/svg" viewBox="0 0 80 80"><g data-name="Слой 2"><g data-name="Layer 1"><path d="M22.78 1.08a137.9 137.9 0 0134.45 0 25 25 0 0121.69 21.7 137.9 137.9 0 010 34.45 25 25 0 01-21.7 21.69A137.63 137.63 0 0140 80a138.23 138.23 0 01-17.22-1.08 25 25 0 01-21.7-21.69 137.9 137.9 0 010-34.45 25 25 0 0121.7-21.7z" fill="#b2dfdb"/><path d="M26.51 43.22l10.88-5.39-11.15-9.5 3.45-1.71 18 6.09 8.62-4.27c2.27-1.14 6-.83 6.88.89a2 2 0 01.2.92c0 1.76-1.77 4.14-3.66 5.09l-8.62 4.27-6.09 18-3.45 1.71-.77-14.59-10.87 5.39-2.25 5.4-2.41 1.19-.84-8.17-6-5.62 2.41-1.19 5.66 1.49z" fill="#26a69a"/></g></g></svg>