<svg xmlns="http://www.w3.org/2000/svg" viewBox="0 0 80 80"><g data-name="Слой 2"><g data-name="Layer 1"><path d="M22.78 1.08a137.9 137.9 0 0134.45 0 25 25 0 0121.69 21.7 137.9 137.9 0 010 34.45 25 25 0 01-21.7 21.69A137.63 137.63 0 0140 80a138.23 138.23 0 01-17.22-1.08 25 25 0 01-21.7-21.69 137.9 137.9 0 010-34.45 25 25 0 0121.7-21.7z" fill="#fbe9e7"/><path d="M40 10z" fill="#fff"/><path d="M66.06 54.85a30 30 0 01-52.6-.85c1-1.42 2.81-2.44 5.82-3.13 7.72-1.76 15.32-3.33 11.66-10-10.29-18.7-3.83-29.72 6.81-30.78q1-.09 2.07-.09h.38c11 .44 18.43 11.17 7.85 30.87-3.56 6.61 3.78 8.18 11.66 10 3.6.8 5.43 2.13 6.35 3.98z" fill="#ff7043"/></g></g></svg>