<svg xmlns="http://www.w3.org/2000/svg" viewBox="0 0 80 80"><defs><style>.cls-3{fill:#ec407a}</style></defs><g id="Слой_2" data-name="Слой 2"><g id="Layer_1" data-name="Layer 1"><path id="a" d="M22.78 1.08a137.9 137.9 0 0134.45 0 25 25 0 0121.69 21.7 137.9 137.9 0 010 34.45 25 25 0 01-21.7 21.69A137.63 137.63 0 0140 80a138.23 138.23 0 01-17.22-1.08 25 25 0 01-21.7-21.69 137.9 137.9 0 010-34.45 25 25 0 0121.7-21.7z" fill="#fce4ec"/><path id="Shape" d="M54.25 19.07a4 4 0 00-4-4h-20a4 4 0 00-4 4v39.86a4 4 0 004 4h20a4 4 0 004-4z" fill="#f8bbd0"/><path id="Path" class="cls-3" d="M37.24 19.07h6a1 1 0 010 2h-6a1 1 0 010-2z"/><path id="Path-2" data-name="Path" class="cls-3" d="M40.24 58.93a2 2 0 112-2 2 2 0 01-2 2z"/><path id="Path-3" data-name="Path" class="cls-3" d="M50.25 52.95H30.23V25h20.02v27.95z"/></g></g></svg>