<svg xmlns="http://www.w3.org/2000/svg" viewBox="0 0 80 80"><g data-name="Слой 2"><g data-name="Layer 1"><path d="M22.78 1.08a137.9 137.9 0 0134.45 0 25 25 0 0121.69 21.7 137.9 137.9 0 010 34.45 25 25 0 01-21.7 21.69A137.63 137.63 0 0140 80a138.23 138.23 0 01-17.22-1.08 25 25 0 01-21.7-21.69 137.9 137.9 0 010-34.45 25 25 0 0121.7-21.7z" fill="#f3efff"/><path d="M62.75 43.27a.68.68 0 010 1.34c-6.88 1.31-21.81 4-23.62 4a4.69 4.69 0 01-4.7-4.69c0-1.85 2.78-19.65 4.06-26.86a.63.63 0 011.24.05l3.55 22.5z" fill="#c8b7ff"/></g></g></svg>