<svg xmlns="http://www.w3.org/2000/svg" viewBox="0 0 80 80"><g data-name="Слой 2"><g data-name="Layer 1"><path d="M22.78 1.08a137.9 137.9 0 0134.45 0 25 25 0 0121.69 21.7 137.9 137.9 0 010 34.45 25 25 0 01-21.7 21.69A137.63 137.63 0 0140 80a138.23 138.23 0 01-17.22-1.08 25 25 0 01-21.7-21.69 137.9 137.9 0 010-34.45 25 25 0 0121.7-21.7z" fill="#e8faf0"/><path d="M41.64 56.08v3.42h-3.28v-3.24a23 23 0 01-9.86-2.36l1.5-5.35c3.15 1.21 7.33 2.49 10.6 1.76 3.78-.85 4.55-4.69.38-6.54-3.06-1.41-12.42-2.61-12.42-10.54 0-4.43 3.42-8.39 9.81-9.26V20.5h3.28v3.31a30.42 30.42 0 018 1.37l-1.19 5.35a21.09 21.09 0 00-8-1.51c-4.89.28-5.32 4.47-1.91 6.22 5.63 2.62 13 4.56 13 11.53-.04 5.58-4.46 8.56-9.91 9.31z" fill="#27cf68" data-name="4-Value-Props"/></g></g></svg>